<?xml version="1.0" encoding="utf-8"?>
<!-- Generator: Adobe Illustrator 20.1.0, SVG Export Plug-In . SVG Version: 6.00 Build 0)  -->
<svg version="1.1" id="Layer_1" xmlns="http://www.w3.org/2000/svg" xmlns:xlink="http://www.w3.org/1999/xlink" x="0px" y="0px"
	 viewBox="0 0 571.8 147.6" style="enable-background:new 0 0 571.8 147.6;" xml:space="preserve">
<style type="text/css">
	.st0{fill:#1B3D6E;}
</style>
<title>logoitj_login</title>
<g>
	<g>
		<g>
			<path class="st0" d="M128.8,99.5V69l0-1.6v-3.2c0-4.8-6.9-3.7-6.9-3.7l0-3.3l22.1,0l0,3.2c0,0-6.9-0.9-6.9,3.7v3.2l0,1.6v33.8
				c0,0,0.5,7-9,6.9c-7.2-0.1-8.9-5.7-8.9-5.7s-0.7-2.2,1.1-3.3c0,0,1.6-1.2,3.4,0.6c0,0,1,1,2,1
				C126.9,102.2,128.8,101.7,128.8,99.5"/>
		</g>
		<g>
			<path class="st0" d="M106.9,38.2c-5.5-1.2-6.6,2-6.6,2l-0.1,59.3c0,10.2,8.2,10.2,10.1,10.2v3.5H79.5v-3.5
				c2.2,0,10.4-0.1,10.4-10.3c0-7.7-0.3-59.3-0.3-59.3s-1-3.3-6.8-2c-5.7,1.3-12.7,7.7-15.2,13.1h-7l6.9-17l54.8,0l6.9,17l-6.9,0
				C122.5,51.3,117.1,40.5,106.9,38.2"/>
		</g>
		<g>
			<path class="st0" d="M61.2,68.8v34.1c0,4.8,6.9,3.7,6.9,3.7l0,3.2l-22.2,0l0-3.2c0,0,6.9,1,6.9-3.6V68.9l0-1.6V64
				c0-4.5-6.9-3.4-6.9-3.4l0-3.2l22.2,0l0,3.2c0,0-6.9-1.2-6.9,3.4v3.2L61.2,68.8z"/>
		</g>
		<g>
			<path class="st0" d="M156.7,73.6c0,35-28.3,63.3-63.3,63.3c-35,0-63.3-28.3-63.3-63.3s28.3-63.3,63.3-63.3
				C128.4,10.3,156.7,38.7,156.7,73.6 M163.8,73.6c0-38.8-31.5-70.3-70.3-70.3c-38.8,0-70.3,31.5-70.3,70.3s31.5,70.3,70.3,70.3
				C132.3,143.9,163.8,112.5,163.8,73.6"/>
		</g>
	</g>
	<g>
		<g>
			<polygon class="st0" points="16.6,138 16.6,131.5 18.5,131.5 19.7,135.9 20.9,131.5 22.8,131.5 22.8,138 21.6,138 21.6,132.9 
				20.3,138 19.1,138 17.8,132.9 17.8,138 			"/>
		</g>
		<g>
			<g>
				<path class="st0" d="M24.7,134.3h1c0.6,0,1,0,1.2-0.1c0.2-0.1,0.3-0.1,0.4-0.3c0.1-0.1,0.1-0.3,0.1-0.5c0-0.2-0.1-0.4-0.2-0.5
					c-0.1-0.1-0.3-0.2-0.5-0.3c-0.1,0-0.4,0-0.9,0h-1V134.3z M23.4,138v-6.4h2.7c0.7,0,1.2,0.1,1.5,0.2c0.3,0.1,0.6,0.3,0.8,0.6
					c0.2,0.3,0.3,0.6,0.3,1c0,0.5-0.1,0.9-0.4,1.2c-0.3,0.3-0.7,0.5-1.3,0.6c0.3,0.2,0.5,0.3,0.7,0.5c0.2,0.2,0.4,0.5,0.7,1l0.8,1.3
					h-1.6l-0.9-1.4c-0.3-0.5-0.6-0.8-0.7-0.9c-0.1-0.1-0.3-0.2-0.4-0.3c-0.1,0-0.4-0.1-0.7-0.1h-0.3v2.7H23.4z"/>
			</g>
			<g>
				<path class="st0" d="M14.5,134.8c0,4.6,3.7,8.3,8.3,8.3c4.6,0,8.3-3.7,8.3-8.3c0-4.6-3.7-8.3-8.3-8.3
					C18.3,126.5,14.6,130.2,14.5,134.8 M13.4,134.8c0-5.2,4.2-9.4,9.5-9.4c5.2,0,9.4,4.2,9.4,9.4c0,5.2-4.2,9.4-9.4,9.4
					C17.7,144.2,13.4,140,13.4,134.8"/>
			</g>
		</g>
	</g>
	<g>
		<g>
			<g>
				<path class="st0" d="M195.3,98.8l-1.2,0.9c-0.7-0.9-1.5-1.5-2.4-2c-0.9-0.5-2-0.7-3.1-0.7c-1.2,0-2.4,0.3-3.4,0.9
					c-1.1,0.6-1.9,1.4-2.4,2.4c-0.6,1-0.9,2.1-0.9,3.4c0,1.9,0.6,3.5,1.9,4.7c1.3,1.3,2.9,1.9,4.9,1.9c2.2,0,4-0.8,5.4-2.5l1.2,0.9
					c-0.8,1-1.7,1.7-2.9,2.3c-1.2,0.5-2.4,0.8-3.9,0.8c-2.7,0-4.8-0.9-6.4-2.7c-1.3-1.5-2-3.4-2-5.5c0-2.3,0.8-4.2,2.4-5.7
					c1.6-1.5,3.6-2.3,6-2.3c1.4,0,2.7,0.3,3.9,0.9C193.6,96.9,194.5,97.7,195.3,98.8z"/>
			</g>
			<g>
				<path class="st0" d="M204.7,95.9l7.2,15.5h-1.7l-2.4-5.1h-6.7l-2.4,5.1H197l7.3-15.5H204.7z M204.5,99.2l-2.7,5.6h5.3
					L204.5,99.2z"/>
			</g>
			<g>
				<path class="st0" d="M213.6,111.3l2.2-15.5h0.3l6.3,12.7l6.2-12.7h0.2l2.2,15.5h-1.5l-1.5-11.1l-5.5,11.1h-0.4l-5.5-11.1
					l-1.5,11.1H213.6z"/>
			</g>
			<g>
				<path class="st0" d="M234.1,95.9h3.1c1.8,0,3,0.1,3.6,0.2c0.9,0.2,1.6,0.7,2.2,1.3c0.6,0.7,0.8,1.5,0.8,2.5c0,1-0.3,1.9-0.8,2.5
					c-0.5,0.7-1.3,1.1-2.3,1.4c-0.7,0.2-2,0.3-3.9,0.3h-1.1v7.2h-1.5V95.9z M235.6,97.4v5.2l2.6,0c1.1,0,1.8-0.1,2.3-0.3
					c0.5-0.2,0.9-0.5,1.2-0.9c0.3-0.4,0.4-0.9,0.4-1.4c0-0.5-0.1-1-0.4-1.4c-0.3-0.4-0.7-0.7-1.1-0.9c-0.5-0.2-1.2-0.3-2.3-0.3
					H235.6z"/>
			</g>
			<g>
				<path class="st0" d="M246.9,95.9h1.5v9.3c0,1.1,0,1.8,0.1,2.1c0.1,0.6,0.3,1.1,0.5,1.5c0.3,0.4,0.7,0.8,1.3,1
					c0.6,0.3,1.2,0.4,1.8,0.4c0.5,0,1-0.1,1.5-0.3c0.5-0.2,0.9-0.5,1.2-0.9c0.3-0.4,0.5-0.9,0.7-1.4c0.1-0.4,0.2-1.2,0.2-2.4v-9.3
					h1.5v9.3c0,1.4-0.1,2.5-0.4,3.3c-0.3,0.9-0.8,1.6-1.6,2.2c-0.8,0.6-1.8,0.9-2.9,0.9c-1.2,0-2.3-0.3-3.2-0.9
					c-0.9-0.6-1.5-1.4-1.8-2.4c-0.2-0.6-0.3-1.7-0.3-3.3V95.9z"/>
			</g>
			<g>
				<path class="st0" d="M259.3,108.5l1.3-0.8c0.9,1.7,2,2.6,3.2,2.6c0.5,0,1-0.1,1.5-0.4c0.5-0.2,0.8-0.6,1-1
					c0.2-0.4,0.4-0.8,0.4-1.3c0-0.5-0.2-1-0.5-1.5c-0.5-0.7-1.4-1.5-2.6-2.5c-1.3-1-2.1-1.7-2.4-2.1c-0.5-0.7-0.8-1.5-0.8-2.4
					c0-0.7,0.2-1.3,0.5-1.8c0.3-0.6,0.8-1,1.4-1.3c0.6-0.3,1.2-0.5,1.9-0.5c0.7,0,1.4,0.2,2,0.5c0.6,0.4,1.3,1,2,2l-1.3,1
					c-0.6-0.8-1.1-1.3-1.5-1.5c-0.4-0.2-0.9-0.4-1.3-0.4c-0.6,0-1.1,0.2-1.5,0.6s-0.6,0.8-0.6,1.4c0,0.3,0.1,0.7,0.2,1
					c0.1,0.3,0.4,0.7,0.8,1c0.2,0.2,0.9,0.7,2,1.5c1.3,1,2.3,1.9,2.8,2.6c0.5,0.8,0.7,1.5,0.7,2.3c0,1.1-0.4,2.1-1.3,2.9
					c-0.9,0.8-1.9,1.2-3.1,1.2c-0.9,0-1.8-0.3-2.6-0.8C260.7,110.5,260,109.6,259.3,108.5z"/>
			</g>
			<g>
				<path class="st0" d="M292.5,98.5l-1.2,1.1c-0.9-0.8-1.8-1.5-2.8-1.9c-1-0.4-2-0.7-3-0.7c-1.2,0-2.4,0.3-3.5,0.9
					c-1.1,0.6-1.9,1.4-2.5,2.4c-0.6,1-0.9,2.1-0.9,3.2c0,1.2,0.3,2.3,0.9,3.3c0.6,1,1.5,1.9,2.6,2.5c1.1,0.6,2.3,0.9,3.6,0.9
					c1.6,0,2.9-0.4,4-1.3c1.1-0.9,1.8-2.1,2-3.5h-4.9v-1.5h6.7c0,2.4-0.7,4.3-2.1,5.7c-1.4,1.4-3.3,2.1-5.6,2.1
					c-2.9,0-5.1-1-6.8-2.9c-1.3-1.5-1.9-3.2-1.9-5.2c0-1.5,0.4-2.8,1.1-4.1c0.7-1.3,1.7-2.2,3-3c1.3-0.7,2.7-1.1,4.4-1.1
					c1.3,0,2.5,0.2,3.7,0.7C290.3,96.7,291.4,97.4,292.5,98.5z"/>
			</g>
			<g>
				<path class="st0" d="M296.4,95.9h1.5v9.3c0,1.1,0,1.8,0.1,2.1c0.1,0.6,0.3,1.1,0.5,1.5c0.3,0.4,0.7,0.8,1.3,1
					c0.6,0.3,1.2,0.4,1.8,0.4c0.5,0,1-0.1,1.5-0.3c0.5-0.2,0.9-0.5,1.2-0.9c0.3-0.4,0.5-0.9,0.7-1.4c0.1-0.4,0.2-1.2,0.2-2.4v-9.3
					h1.5v9.3c0,1.4-0.1,2.5-0.4,3.3c-0.3,0.9-0.8,1.6-1.6,2.2c-0.8,0.6-1.8,0.9-2.9,0.9c-1.2,0-2.3-0.3-3.2-0.9
					c-0.9-0.6-1.5-1.4-1.8-2.4c-0.2-0.6-0.3-1.7-0.3-3.3V95.9z"/>
			</g>
			<g>
				<path class="st0" d="M316.8,95.9l7.2,15.5h-1.7l-2.4-5.1h-6.7l-2.4,5.1h-1.7l7.3-15.5H316.8z M316.6,99.2l-2.6,5.6h5.3
					L316.6,99.2z"/>
			</g>
			<g>
				<path class="st0" d="M326.4,111.3V95.9h3.2c2.3,0,4,0.2,5,0.6c1.5,0.5,2.7,1.4,3.5,2.7c0.8,1.3,1.3,2.8,1.3,4.6
					c0,1.5-0.3,2.9-1,4.1c-0.7,1.2-1.5,2-2.6,2.6c-1.1,0.6-2.6,0.8-4.5,0.8H326.4z M327.9,109.9h1.8c2.1,0,3.6-0.1,4.4-0.4
					c1.2-0.4,2.1-1.1,2.7-2c0.7-1,1-2.2,1-3.6c0-1.5-0.4-2.8-1.1-3.8c-0.7-1.1-1.7-1.8-3-2.2c-1-0.3-2.6-0.4-4.8-0.4h-1.1V109.9z"/>
			</g>
			<g>
				<path class="st0" d="M348.7,95.9l7.2,15.5h-1.7l-2.4-5.1h-6.7l-2.4,5.1h-1.7l7.3-15.5H348.7z M348.6,99.2l-2.6,5.6h5.3
					L348.6,99.2z"/>
			</g>
			<g>
				<path class="st0" d="M358.4,95.9h1.5v14h5.9v1.5h-7.5V95.9z"/>
			</g>
			<g>
				<path class="st0" d="M374.6,95.9l7.2,15.5h-1.7l-2.4-5.1h-6.7l-2.4,5.1h-1.7l7.3-15.5H374.6z M374.4,99.2l-2.7,5.6h5.3
					L374.4,99.2z"/>
			</g>
			<g>
				<path class="st0" d="M389.3,95.9h1.5v10.4c0,1.6-0.1,2.7-0.4,3.3c-0.2,0.6-0.7,1.1-1.2,1.5c-0.6,0.4-1.3,0.6-2.1,0.6
					c-0.6,0-1.2-0.1-1.8-0.4c-0.6-0.2-1.3-0.7-2-1.3l0.8-1.2c0.8,0.6,1.5,1,2,1.2c0.4,0.2,0.7,0.2,1,0.2c0.4,0,0.8-0.1,1.2-0.4
					c0.4-0.3,0.6-0.6,0.8-1.1c0.1-0.4,0.2-1.3,0.2-2.6V95.9z"/>
			</g>
			<g>
				<path class="st0" d="M400.9,95.9l7.2,15.5h-1.7l-2.4-5.1h-6.7l-2.4,5.1h-1.7l7.3-15.5H400.9z M400.7,99.2l-2.6,5.6h5.3
					L400.7,99.2z"/>
			</g>
			<g>
				<path class="st0" d="M410.6,95.9h3.1c1.7,0,2.9,0.1,3.5,0.2c0.9,0.2,1.7,0.7,2.2,1.4c0.6,0.7,0.9,1.5,0.9,2.6
					c0,0.8-0.2,1.6-0.6,2.2c-0.4,0.6-1,1.1-1.7,1.4c-0.7,0.3-1.8,0.5-3,0.5l5.6,7.2h-1.9l-5.6-7.2h-0.9v7.2h-1.5V95.9z M412.2,97.4
					v5.3l2.7,0c1,0,1.8-0.1,2.3-0.3c0.5-0.2,0.9-0.5,1.2-0.9c0.3-0.4,0.4-0.9,0.4-1.4c0-0.5-0.1-1-0.4-1.4c-0.3-0.4-0.6-0.7-1.1-0.9
					c-0.5-0.2-1.2-0.3-2.3-0.3H412.2z"/>
			</g>
			<g>
				<path class="st0" d="M429.9,95.9l7.2,15.5h-1.7l-2.4-5.1h-6.7l-2.4,5.1h-1.7l7.3-15.5H429.9z M429.7,99.2l-2.6,5.6h5.3
					L429.7,99.2z"/>
			</g>
			<g>
				<path class="st0" d="M444.2,95.9h3l3.9,11l3.9-11h3l-5.6,15.5h-2.8L444.2,95.9z"/>
			</g>
			<g>
				<path class="st0" d="M465.2,95.9h3l5.9,15.5H471l-1.2-3.2h-6.3l-1.3,3.2h-3.1L465.2,95.9z M466.7,100l-2.1,5.3h4.1L466.7,100z"
					/>
			</g>
			<g>
				<path class="st0" d="M476.4,95.9h2.9v12.7h4.3v2.8h-7.2V95.9z"/>
			</g>
			<g>
				<path class="st0" d="M485.8,95.9h2.9v12.7h4.3v2.8h-7.2V95.9z"/>
			</g>
			<g>
				<path class="st0" d="M495.3,95.9h8.4v2.9h-5.5v2.8h5.5v2.8h-5.5v4.1h5.5v2.9h-8.4V95.9z"/>
			</g>
			<g>
				<path class="st0" d="M512.7,95.9h3.1c1.7,0,2.9,0.2,3.6,0.5c0.7,0.3,1.3,0.8,1.7,1.5c0.4,0.7,0.7,1.5,0.7,2.5
					c0,1-0.2,1.9-0.7,2.5c-0.5,0.7-1.2,1.2-2.2,1.6l3.7,6.9h-3.2l-3.5-6.5h-0.3v6.5h-2.9V95.9z M515.7,101.9h0.9
					c0.9,0,1.6-0.1,1.9-0.4c0.4-0.2,0.5-0.7,0.5-1.2c0-0.3-0.1-0.6-0.3-0.9c-0.2-0.3-0.4-0.4-0.7-0.5c-0.3-0.1-0.8-0.2-1.6-0.2h-0.8
					V101.9z"/>
			</g>
			<g>
				<path class="st0" d="M525,95.9h8.4v2.9H528v2.8h5.5v2.8H528v4.1h5.5v2.9H525V95.9z"/>
			</g>
			<g>
				<path class="st0" d="M540.9,95.9h3l5.9,15.5h-3.1l-1.2-3.2h-6.3l-1.3,3.2H535L540.9,95.9z M542.4,100l-2.1,5.3h4.1L542.4,100z"
					/>
			</g>
			<g>
				<path class="st0" d="M552.1,95.9h2.9v12.7h4.3v2.8h-7.2V95.9z"/>
			</g>
		</g>
		<g>
			<g>
				<path class="st0" d="M186.2,120.4l6.4,13.6h-1.5l-2.1-4.5h-5.9l-2.1,4.5h-1.5l6.4-13.6H186.2z M186,123.3l-2.3,4.9h4.7
					L186,123.3z"/>
			</g>
			<g>
				<path class="st0" d="M194.7,134.1v-13.6h0.3l9.1,10.4v-10.4h1.3v13.6h-0.3l-9-10.3v10.3H194.7z"/>
			</g>
			<g>
				<path class="st0" d="M219.5,120.4l6.4,13.6h-1.5l-2.1-4.5h-5.9l-2.1,4.5h-1.5l6.4-13.6H219.5z M219.4,123.3l-2.3,4.9h4.7
					L219.4,123.3z"/>
			</g>
			<g>
				<path class="st0" d="M240.7,123l-1.1,0.8c-0.6-0.8-1.3-1.4-2.1-1.8c-0.8-0.4-1.7-0.6-2.7-0.6c-1.1,0-2.1,0.3-3,0.8
					c-0.9,0.5-1.6,1.2-2.2,2.1c-0.5,0.9-0.8,1.9-0.8,3c0,1.7,0.6,3,1.7,4.2c1.1,1.1,2.6,1.7,4.3,1.7c1.9,0,3.5-0.7,4.8-2.2l1.1,0.8
					c-0.7,0.9-1.5,1.5-2.5,2c-1,0.5-2.2,0.7-3.4,0.7c-2.4,0-4.3-0.8-5.6-2.4c-1.2-1.3-1.7-3-1.7-4.9c0-2,0.7-3.7,2.1-5
					c1.4-1.4,3.2-2,5.3-2c1.3,0,2.4,0.3,3.4,0.8C239.2,121.4,240,122.1,240.7,123z"/>
			</g>
			<g>
				<path class="st0" d="M256.1,123l-1.1,0.8c-0.6-0.8-1.3-1.4-2.1-1.8c-0.8-0.4-1.7-0.6-2.7-0.6c-1.1,0-2.1,0.3-3,0.8
					c-0.9,0.5-1.6,1.2-2.2,2.1c-0.5,0.9-0.8,1.9-0.8,3c0,1.7,0.6,3,1.7,4.2c1.1,1.1,2.6,1.7,4.3,1.7c1.9,0,3.5-0.7,4.8-2.2l1.1,0.8
					c-0.7,0.9-1.5,1.5-2.5,2c-1,0.5-2.1,0.7-3.4,0.7c-2.4,0-4.3-0.8-5.6-2.4c-1.2-1.3-1.7-3-1.7-4.9c0-2,0.7-3.7,2.1-5
					c1.4-1.4,3.2-2,5.3-2c1.3,0,2.4,0.3,3.4,0.8C254.6,121.4,255.5,122.1,256.1,123z"/>
			</g>
			<g>
				<path class="st0" d="M258.9,120.4h2.7c1.5,0,2.5,0.1,3.1,0.2c0.8,0.2,1.5,0.6,2,1.2c0.5,0.6,0.8,1.4,0.8,2.2
					c0,0.7-0.2,1.4-0.5,2c-0.3,0.6-0.8,1-1.5,1.3c-0.6,0.3-1.5,0.4-2.7,0.4l4.9,6.3H266l-4.9-6.3h-0.8v6.3h-1.4V120.4z M260.3,121.8
					v4.6l2.3,0c0.9,0,1.6-0.1,2-0.3c0.4-0.2,0.8-0.4,1-0.8s0.4-0.8,0.4-1.3c0-0.5-0.1-0.9-0.4-1.2c-0.2-0.4-0.6-0.6-1-0.8
					c-0.4-0.2-1.1-0.2-2-0.2H260.3z"/>
			</g>
			<g>
				<path class="st0" d="M270.4,120.4h7.8v1.3h-6.4v4.3h6.4v1.3h-6.4v5.4h6.4v1.3h-7.8V120.4z"/>
			</g>
			<g>
				<path class="st0" d="M280.5,134.1v-13.6h2.8c2,0,3.5,0.2,4.4,0.5c1.3,0.5,2.4,1.3,3.1,2.4c0.7,1.1,1.1,2.5,1.1,4.1
					c0,1.4-0.3,2.6-0.9,3.6c-0.6,1-1.4,1.8-2.3,2.3c-0.9,0.5-2.3,0.7-4,0.7H280.5z M281.8,132.8h1.6c1.9,0,3.2-0.1,3.9-0.4
					c1-0.3,1.8-0.9,2.4-1.8c0.6-0.9,0.9-1.9,0.9-3.2c0-1.3-0.3-2.4-1-3.4c-0.6-0.9-1.5-1.6-2.7-1.9c-0.9-0.3-2.3-0.4-4.2-0.4h-1
					V132.8z"/>
			</g>
			<g>
				<path class="st0" d="M294.5,120.4h1.4v13.6h-1.4V120.4z"/>
			</g>
			<g>
				<path class="st0" d="M297.6,121.8v-1.3h7.5v1.3h-3v12.3h-1.4v-12.3H297.6z"/>
			</g>
			<g>
				<path class="st0" d="M307,120.4h7.8v1.3h-6.4v4.3h6.4v1.3h-6.4v5.4h6.4v1.3H307V120.4z"/>
			</g>
			<g>
				<path class="st0" d="M317.2,134.1v-13.6h2.8c2,0,3.5,0.2,4.4,0.5c1.3,0.5,2.4,1.3,3.1,2.4c0.7,1.1,1.1,2.5,1.1,4.1
					c0,1.4-0.3,2.6-0.9,3.6c-0.6,1-1.4,1.8-2.3,2.3c-0.9,0.5-2.3,0.7-4,0.7H317.2z M318.5,132.8h1.6c1.9,0,3.2-0.1,3.9-0.4
					c1-0.3,1.8-0.9,2.4-1.8c0.6-0.9,0.9-1.9,0.9-3.2c0-1.3-0.3-2.4-1-3.4c-0.6-0.9-1.5-1.6-2.7-1.9c-0.9-0.3-2.3-0.4-4.2-0.4h-1
					V132.8z"/>
			</g>
			<g>
				<path class="st0" d="M336.4,120.4h1.4v13.6h-1.4V120.4z"/>
			</g>
			<g>
				<path class="st0" d="M340.9,134.1v-13.6h0.3l9.1,10.4v-10.4h1.3v13.6h-0.3l-9-10.3v10.3H340.9z"/>
			</g>
			<g>
				<path class="st0" d="M353.5,121.8v-1.3h7.5v1.3h-3v12.3h-1.4v-12.3H353.5z"/>
			</g>
			<g>
				<path class="st0" d="M363,120.4h7.8v1.3h-6.4v4.3h6.4v1.3h-6.4v5.4h6.4v1.3H363V120.4z"/>
			</g>
			<g>
				<path class="st0" d="M373.2,120.4h2.7c1.5,0,2.5,0.1,3.1,0.2c0.8,0.2,1.5,0.6,2,1.2c0.5,0.6,0.8,1.4,0.8,2.2
					c0,0.7-0.2,1.4-0.5,2c-0.3,0.6-0.8,1-1.5,1.3c-0.6,0.3-1.5,0.4-2.7,0.4l4.9,6.3h-1.7l-4.9-6.3h-0.8v6.3h-1.4V120.4z
					 M374.6,121.8v4.6l2.3,0c0.9,0,1.6-0.1,2-0.3c0.4-0.2,0.8-0.4,1-0.8c0.2-0.4,0.4-0.8,0.4-1.3c0-0.5-0.1-0.9-0.4-1.2
					c-0.2-0.4-0.6-0.6-1-0.8c-0.4-0.2-1.1-0.2-2-0.2H374.6z"/>
			</g>
			<g>
				<path class="st0" d="M384.6,134.1v-13.6h0.3l9.1,10.4v-10.4h1.3v13.6H395l-9-10.3v10.3H384.6z"/>
			</g>
			<g>
				<path class="st0" d="M404.2,120.4l6.4,13.6h-1.5l-2.1-4.5h-5.9l-2.1,4.5h-1.5l6.4-13.6H404.2z M404.1,123.3l-2.3,4.9h4.7
					L404.1,123.3z"/>
			</g>
			<g>
				<path class="st0" d="M409.8,121.8v-1.3h7.5v1.3h-3v12.3h-1.4v-12.3H409.8z"/>
			</g>
			<g>
				<path class="st0" d="M419,120.4h1.4v13.6H419V120.4z"/>
			</g>
			<g>
				<path class="st0" d="M430,120.1c2.1,0,3.8,0.7,5.2,2.1c1.4,1.4,2.1,3.1,2.1,5.1c0,2-0.7,3.7-2.1,5.1c-1.4,1.4-3.1,2.1-5.1,2.1
					c-2,0-3.7-0.7-5.1-2.1c-1.4-1.4-2.1-3.1-2.1-5c0-1.3,0.3-2.5,1-3.6c0.6-1.1,1.5-2,2.6-2.6C427.6,120.4,428.7,120.1,430,120.1z
					 M430.1,121.4c-1,0-2,0.3-2.9,0.8s-1.6,1.2-2.1,2.1c-0.5,0.9-0.8,1.9-0.8,3c0,1.6,0.6,3,1.7,4.1c1.1,1.1,2.5,1.7,4.1,1.7
					c1.1,0,2-0.3,2.9-0.8s1.6-1.2,2.1-2.1c0.5-0.9,0.8-1.9,0.8-3c0-1.1-0.3-2.1-0.8-2.9c-0.5-0.9-1.2-1.6-2.1-2.1
					S431.1,121.4,430.1,121.4z"/>
			</g>
			<g>
				<path class="st0" d="M440,134.1v-13.6h0.3l9.1,10.4v-10.4h1.3v13.6h-0.3l-9-10.3v10.3H440z"/>
			</g>
			<g>
				<path class="st0" d="M459.6,120.4l6.4,13.6h-1.5l-2.1-4.5h-5.9l-2.1,4.5h-1.5l6.4-13.6H459.6z M459.5,123.3l-2.3,4.9h4.7
					L459.5,123.3z"/>
			</g>
			<g>
				<path class="st0" d="M468.1,120.4h1.4v12.3h5.2v1.3h-6.6V120.4z"/>
			</g>
			<g>
				<path class="st0" d="M480.7,131.5l1.2-0.7c0.8,1.5,1.8,2.3,2.8,2.3c0.5,0,0.9-0.1,1.3-0.3c0.4-0.2,0.7-0.5,0.9-0.9
					c0.2-0.4,0.3-0.7,0.3-1.1c0-0.5-0.2-0.9-0.5-1.3c-0.4-0.6-1.2-1.3-2.3-2.2c-1.1-0.9-1.8-1.5-2.1-1.9c-0.5-0.6-0.7-1.3-0.7-2.1
					c0-0.6,0.1-1.1,0.4-1.6c0.3-0.5,0.7-0.9,1.2-1.2c0.5-0.3,1.1-0.4,1.7-0.4c0.6,0,1.2,0.2,1.8,0.5c0.6,0.3,1.1,0.9,1.8,1.8
					l-1.1,0.8c-0.5-0.7-0.9-1.1-1.3-1.3c-0.4-0.2-0.8-0.3-1.2-0.3c-0.5,0-1,0.2-1.3,0.5c-0.3,0.3-0.5,0.7-0.5,1.2
					c0,0.3,0.1,0.6,0.2,0.9c0.1,0.3,0.3,0.6,0.7,0.9c0.2,0.2,0.8,0.6,1.8,1.4c1.2,0.9,2,1.6,2.4,2.3c0.4,0.7,0.7,1.4,0.7,2
					c0,1-0.4,1.8-1.1,2.6c-0.7,0.7-1.7,1.1-2.7,1.1c-0.8,0-1.6-0.2-2.2-0.7C481.9,133.3,481.3,132.6,480.7,131.5z"/>
			</g>
			<g>
				<path class="st0" d="M504.2,123l-1.1,0.8c-0.6-0.8-1.3-1.4-2.1-1.8c-0.8-0.4-1.7-0.6-2.7-0.6c-1.1,0-2.1,0.3-3,0.8
					c-0.9,0.5-1.6,1.2-2.2,2.1c-0.5,0.9-0.8,1.9-0.8,3c0,1.7,0.6,3,1.7,4.2c1.1,1.1,2.6,1.7,4.3,1.7c1.9,0,3.5-0.7,4.8-2.2l1.1,0.8
					c-0.7,0.9-1.5,1.5-2.5,2c-1,0.5-2.1,0.7-3.4,0.7c-2.4,0-4.3-0.8-5.6-2.4c-1.2-1.3-1.7-3-1.7-4.9c0-2,0.7-3.7,2.1-5
					c1.4-1.4,3.2-2,5.3-2c1.3,0,2.4,0.3,3.4,0.8C502.7,121.4,503.6,122.1,504.2,123z"/>
			</g>
			<g>
				<path class="st0" d="M507,120.4h1.4v5.7h6.9v-5.7h1.4v13.6h-1.4v-6.6h-6.9v6.6H507V120.4z"/>
			</g>
			<g>
				<path class="st0" d="M526.4,120.1c2.1,0,3.8,0.7,5.2,2.1c1.4,1.4,2.1,3.1,2.1,5.1c0,2-0.7,3.7-2.1,5.1c-1.4,1.4-3.1,2.1-5.1,2.1
					c-2,0-3.7-0.7-5.1-2.1c-1.4-1.4-2.1-3.1-2.1-5c0-1.3,0.3-2.5,1-3.6c0.6-1.1,1.5-2,2.6-2.6C524,120.4,525.1,120.1,526.4,120.1z
					 M526.5,121.4c-1,0-2,0.3-2.9,0.8c-0.9,0.5-1.6,1.2-2.1,2.1c-0.5,0.9-0.8,1.9-0.8,3c0,1.6,0.6,3,1.7,4.1
					c1.1,1.1,2.5,1.7,4.1,1.7c1.1,0,2-0.3,2.9-0.8c0.9-0.5,1.6-1.2,2.1-2.1c0.5-0.9,0.8-1.9,0.8-3c0-1.1-0.3-2.1-0.8-2.9
					c-0.5-0.9-1.2-1.6-2.1-2.1C528.5,121.7,527.5,121.4,526.5,121.4z"/>
			</g>
			<g>
				<path class="st0" d="M542.9,120.1c2.1,0,3.8,0.7,5.2,2.1c1.4,1.4,2.1,3.1,2.1,5.1c0,2-0.7,3.7-2.1,5.1c-1.4,1.4-3.1,2.1-5.1,2.1
					c-2,0-3.7-0.7-5.1-2.1c-1.4-1.4-2.1-3.1-2.1-5c0-1.3,0.3-2.5,0.9-3.6c0.6-1.1,1.5-2,2.6-2.6
					C540.5,120.4,541.6,120.1,542.9,120.1z M543,121.4c-1,0-2,0.3-2.9,0.8c-0.9,0.5-1.6,1.2-2.1,2.1c-0.5,0.9-0.8,1.9-0.8,3
					c0,1.6,0.6,3,1.7,4.1c1.1,1.1,2.5,1.7,4.1,1.7c1.1,0,2-0.3,2.9-0.8c0.9-0.5,1.6-1.2,2.1-2.1c0.5-0.9,0.8-1.9,0.8-3
					c0-1.1-0.3-2.1-0.8-2.9c-0.5-0.9-1.2-1.6-2.1-2.1S544,121.4,543,121.4z"/>
			</g>
			<g>
				<path class="st0" d="M552.9,120.4h1.4v12.3h5.2v1.3h-6.6V120.4z"/>
			</g>
		</g>
		<g>
			<g>
				<path class="st0" d="M535.6,81.6h3.4v-9.7c0-3.5,0.2-5.9,0.5-7.2c0.5-2,1.6-3.7,3.2-5.1c1.6-1.4,3.5-2,5.5-2
					c1.8,0,3.3,0.4,4.4,1.3c1.1,0.9,1.9,2.2,2.3,4c0.3,1,0.4,3.1,0.4,6.1v12.6h3.4V68c0-3.6-0.4-6.3-1.1-8c-0.7-1.7-1.9-3.1-3.4-4.1
					c-1.5-1-3.3-1.5-5.3-1.5c-2,0-3.8,0.5-5.4,1.4c-1.7,0.9-3.2,2.3-4.5,4.1v-4.7h-3.4V81.6z M524.8,60.9c2,2.1,3.1,4.6,3.1,7.6
					c0,1.9-0.5,3.7-1.4,5.4c-0.9,1.7-2.2,2.9-3.8,3.8c-1.6,0.9-3.3,1.4-5.2,1.4c-1.9,0-3.6-0.5-5.2-1.4c-1.6-0.9-2.8-2.2-3.8-3.8
					c-0.9-1.7-1.4-3.4-1.4-5.4c0-3,1-5.5,3.1-7.6c2-2.1,4.5-3.1,7.3-3.1C520.3,57.8,522.7,58.8,524.8,60.9 M507.3,58.9
					c-2.4,2.7-3.7,5.9-3.7,9.5c0,3.7,1.3,6.9,3.9,9.7c2.6,2.8,5.9,4.2,10,4.2c4.1,0,7.4-1.4,9.9-4.2c2.6-2.8,3.9-6,3.9-9.7
					c0-3.7-1.2-6.9-3.7-9.6c-2.7-3-6.1-4.4-10.2-4.4C513.4,54.4,510,55.9,507.3,58.9 M493.5,54.4c-2.1,0-3.8,0.7-5.2,2
					c-1.4,1.3-2.1,3-2.1,5c0,1.5,0.4,2.9,1.3,4.1c0.9,1.2,2.5,2.4,4.9,3.7c2.2,1.1,3.7,2.1,4.3,2.8c0.6,0.8,1,1.6,1,2.6
					c0,1.2-0.5,2.2-1.4,3.1c-1,0.9-2.1,1.3-3.5,1.3c-2,0-3.8-1-5.5-2.9l-2.1,2.4c0.9,1.2,2.1,2.1,3.5,2.8c1.4,0.7,2.9,1,4.4,1
					c2.3,0,4.2-0.8,5.7-2.3c1.5-1.5,2.3-3.4,2.3-5.5c0-1.5-0.4-2.9-1.3-4.2c-0.9-1.2-2.6-2.5-5.2-3.8c-2.1-1.1-3.5-2-4.1-2.8
					c-0.7-0.8-1-1.6-1-2.5c0-1,0.4-1.8,1.2-2.6c0.8-0.7,1.7-1.1,2.8-1.1c1.7,0,3.5,0.9,5.3,2.7l2.2-2.3
					C498.4,55.6,496,54.4,493.5,54.4 M471.8,81.6h3.5v-9c0-4.6,0.2-7.6,0.6-9.2c0.6-2,1.4-3.4,2.4-4.3c1.1-0.9,2.2-1.4,3.3-1.4
					c0.5,0,1.1,0.2,1.8,0.5l1.8-2.9c-1.1-0.6-2.1-0.9-3-0.9c-1.3,0-2.5,0.4-3.6,1.1c-1.2,0.8-2.2,1.9-3.3,3.4v-3.9h-3.5V81.6z
					 M444.2,65.7c0.7-2.4,1.7-4.3,3.1-5.5c1.9-1.7,4.1-2.5,6.7-2.5c1.6,0,3.1,0.3,4.5,1c1.4,0.7,2.6,1.5,3.4,2.6
					c0.9,1.1,1.5,2.5,2,4.4H444.2z M461.1,76.6c-0.9,0.8-2,1.4-3.3,1.9c-1.3,0.5-2.6,0.7-3.9,0.7c-2.8,0-5.1-1-7-3
					c-1.9-2-2.9-4.5-3-7.6h23.8c0-3.6-1-6.6-2.9-9.1c-2.7-3.4-6.3-5.1-10.8-5.1c-4.4,0-7.9,1.7-10.5,5c-2.1,2.6-3.1,5.6-3.1,9
					c0,3.6,1.2,6.8,3.7,9.6c2.4,2.8,5.8,4.3,10.1,4.3c1.9,0,3.7-0.3,5.2-0.9c1.5-0.6,2.9-1.5,4.2-2.6c1.2-1.1,2.3-2.6,3.3-4.5
					l-2.9-1.5C462.9,74.6,462,75.8,461.1,76.6 M434.9,44.2c-1.2,0-2.2,0.2-3,0.7c-0.8,0.5-1.4,1.1-1.8,2c-0.4,0.8-0.5,2.2-0.5,4.1
					v4.1h-3.5v2.9h3.5v23.6h3.4l0-23.6h5.5v-2.9H433l0-3.6c0-1.5,0.1-2.4,0.2-2.8c0.1-0.3,0.4-0.7,0.8-0.9c0.4-0.3,1-0.4,1.7-0.4
					c0.9,0,2,0.3,3.2,0.8v-3.3C437.4,44.4,436,44.2,434.9,44.2 M419.1,44.2c-1.2,0-2.2,0.2-3,0.7c-0.8,0.5-1.4,1.1-1.8,2
					c-0.4,0.8-0.5,2.2-0.5,4.1v4.1h-3.5v2.9h3.5v23.6h3.4l0-23.6h5.5v-2.9h-5.5l0-3.6c0-1.5,0.1-2.4,0.2-2.8
					c0.1-0.3,0.4-0.7,0.8-0.9c0.4-0.3,1-0.4,1.7-0.4c0.9,0,2,0.3,3.2,0.8v-3.3C421.5,44.4,420.2,44.2,419.1,44.2 M385.8,65.7
					c0.7-2.4,1.7-4.3,3.1-5.5c1.9-1.7,4.1-2.5,6.7-2.5c1.6,0,3.1,0.3,4.5,1c1.4,0.7,2.6,1.5,3.5,2.6c0.9,1.1,1.5,2.5,2,4.4H385.8z
					 M402.7,76.6c-0.9,0.8-2,1.4-3.3,1.9c-1.3,0.5-2.6,0.7-3.9,0.7c-2.8,0-5.1-1-7-3c-1.9-2-2.9-4.5-3-7.6h23.8c0-3.6-1-6.6-2.9-9.1
					c-2.7-3.4-6.3-5.1-10.8-5.1c-4.4,0-7.9,1.7-10.5,5c-2.1,2.6-3.1,5.6-3.1,9c0,3.6,1.2,6.8,3.7,9.6c2.4,2.8,5.8,4.3,10.1,4.3
					c2,0,3.7-0.3,5.2-0.9c1.5-0.6,2.9-1.5,4.2-2.6c1.2-1.1,2.3-2.6,3.3-4.5l-2.9-1.5C404.5,74.6,403.5,75.8,402.7,76.6 M373.5,69.9
					c0,2.9-0.2,4.9-0.5,5.9c-0.3,1-0.9,1.8-1.8,2.5c-0.8,0.6-1.8,0.9-2.8,0.9c-0.8,0-1.6-0.2-2.4-0.5c-1.2-0.5-2.8-1.5-4.7-2.8
					l-1.9,2.8c1.7,1.4,3.3,2.4,4.7,3c1.4,0.6,2.8,0.8,4.3,0.8c1.9,0,3.5-0.4,4.9-1.3c1.3-0.9,2.3-2,2.9-3.5c0.6-1.5,0.9-4,0.9-7.8
					V45.8h-3.6V69.9z M338,54.4c-2.1,0-3.8,0.7-5.2,2c-1.4,1.3-2.1,3-2.1,5c0,1.5,0.4,2.9,1.3,4.1c0.9,1.2,2.5,2.4,4.9,3.7
					c2.2,1.1,3.7,2.1,4.3,2.8c0.6,0.8,1,1.6,1,2.6c0,1.2-0.5,2.2-1.4,3.1c-1,0.9-2.1,1.3-3.5,1.3c-2,0-3.8-1-5.5-2.9l-2.1,2.4
					c0.9,1.2,2.1,2.1,3.5,2.8c1.4,0.7,2.9,1,4.4,1c2.3,0,4.2-0.8,5.7-2.3c1.5-1.5,2.3-3.4,2.3-5.5c0-1.5-0.4-2.9-1.3-4.2
					c-0.9-1.2-2.6-2.5-5.2-3.8c-2.1-1.1-3.5-2-4.1-2.8c-0.7-0.8-1-1.6-1-2.5c0-1,0.4-1.8,1.2-2.6c0.8-0.7,1.7-1.1,2.8-1.1
					c1.7,0,3.5,0.9,5.4,2.7l2.2-2.3C342.9,55.6,340.4,54.4,338,54.4 M320.2,60.8c2,2.1,3,4.6,3,7.7c0,2-0.5,3.8-1.4,5.4
					c-0.9,1.6-2.2,2.9-3.9,3.8c-1.7,0.9-3.4,1.4-5.3,1.4c-1.9,0-3.6-0.5-5.2-1.4c-1.6-0.9-2.9-2.3-3.9-4c-1-1.7-1.4-3.5-1.4-5.4
					c0-1.9,0.5-3.7,1.4-5.4c0.9-1.7,2.2-3,3.8-3.9c1.6-0.9,3.4-1.4,5.3-1.4C315.7,57.7,318.1,58.8,320.2,60.8 M323,55.1V60
					c-1.3-1.9-2.9-3.2-4.6-4.2c-1.8-0.9-3.7-1.4-5.9-1.4c-3.8,0-7,1.4-9.7,4.1c-2.7,2.7-4,6-4,9.8c0,3.9,1.3,7.2,4,9.9
					c2.7,2.7,5.9,4.1,9.6,4.1c2.1,0,4.1-0.4,5.8-1.3c1.8-0.9,3.4-2.2,4.8-3.9v4.6h3.4V55.1H323z M255.1,81.6h3.4V70.4
					c0-3.3,0.3-5.8,1-7.4c0.7-1.6,1.7-2.9,3-3.8c1.4-0.9,2.8-1.4,4.4-1.4c1.4,0,2.5,0.3,3.5,1c1,0.7,1.7,1.6,2.1,2.8
					c0.4,1.1,0.6,3.3,0.6,6.5v13.6h3.4V71.2c0-3.8,0.3-6.5,0.9-8.1c0.6-1.6,1.6-2.9,3-3.9c1.4-1,2.9-1.5,4.5-1.5
					c1.4,0,2.5,0.3,3.5,1c1,0.6,1.7,1.5,2.1,2.6c0.4,1.1,0.6,3,0.6,5.9v14.5h3.5V67.2c0-3.3-0.3-5.8-1-7.5c-0.7-1.7-1.7-2.9-3.1-3.9
					c-1.4-0.9-3-1.4-4.8-1.4c-2,0-3.8,0.5-5.5,1.6c-1.7,1.1-3.1,2.7-4.3,4.7c-0.5-1.6-1.2-2.8-1.9-3.6c-0.7-0.8-1.7-1.5-2.8-2
					c-1.2-0.5-2.4-0.8-3.7-0.8c-1.9,0-3.7,0.5-5.4,1.6c-1.3,0.8-2.5,2-3.7,3.7v-4.6h-3.4V81.6z M244.3,60.9c2,2.1,3.1,4.6,3.1,7.6
					c0,1.9-0.5,3.7-1.4,5.4c-0.9,1.7-2.2,2.9-3.8,3.8c-1.6,0.9-3.3,1.4-5.2,1.4c-1.9,0-3.6-0.5-5.2-1.4c-1.6-0.9-2.8-2.2-3.8-3.8
					c-0.9-1.7-1.4-3.4-1.4-5.4c0-3,1-5.5,3.1-7.6c2-2.1,4.5-3.1,7.3-3.1C239.8,57.8,242.2,58.8,244.3,60.9 M226.8,58.9
					c-2.4,2.7-3.7,5.9-3.7,9.5c0,3.7,1.3,6.9,3.9,9.7c2.6,2.8,5.9,4.2,10,4.2c4.1,0,7.4-1.4,9.9-4.2c2.6-2.8,3.9-6,3.9-9.7
					c0-3.7-1.2-6.9-3.7-9.6c-2.7-3-6.1-4.4-10.2-4.4C232.9,54.4,229.5,55.9,226.8,58.9 M196,81.6h3.4v-9.7c0-3.5,0.2-5.9,0.5-7.2
					c0.5-2,1.6-3.7,3.2-5.1c1.6-1.4,3.5-2,5.5-2c1.8,0,3.3,0.4,4.4,1.3c1.1,0.9,1.9,2.2,2.3,4c0.2,1,0.4,3.1,0.4,6.1v12.6h3.4V68
					c0-3.6-0.4-6.3-1.1-8c-0.7-1.7-1.9-3-3.4-4.1c-1.5-1-3.3-1.5-5.3-1.5c-1.9,0-3.7,0.5-5.4,1.4c-1.7,0.9-3.2,2.3-4.6,4.1v-15H196
					V81.6z M181.8,49.3v32.3h3.7V49.3h8v-3.5h-19.6v3.5H181.8z"/>
			</g>
			<g>
				<path class="st0" d="M368.4,82.7c-1.5,0-2.9-0.3-4.3-0.9c-1.4-0.6-3-1.6-4.7-3l-0.1-0.1l2.1-3.1l0.1,0.1
					c1.9,1.3,3.4,2.2,4.6,2.8c1.8,0.8,3.6,0.7,5-0.4c0.8-0.6,1.4-1.4,1.7-2.4c0.3-1,0.5-3,0.5-5.9V45.6h3.9V70
					c0,3.7-0.3,6.3-0.9,7.8c-0.6,1.5-1.6,2.7-2.9,3.6C372,82.2,370.4,82.7,368.4,82.7z M359.7,78.7c1.6,1.4,3.2,2.3,4.5,2.9
					c1.4,0.6,2.8,0.8,4.2,0.8c1.9,0,3.5-0.4,4.8-1.3c1.3-0.8,2.3-2,2.8-3.4c0.6-1.4,0.9-4,0.9-7.7v-24h-3.3v23.9c0,2.9-0.2,5-0.5,6
					c-0.3,1-0.9,1.9-1.8,2.5c-1.5,1.1-3.4,1.2-5.3,0.4c-1.2-0.5-2.8-1.4-4.6-2.7L359.7,78.7z M517.5,82.4c-4.1,0-7.5-1.4-10.1-4.2
					c-2.6-2.8-3.9-6.1-3.9-9.8c0-3.7,1.2-6.9,3.7-9.6c2.7-3,6.2-4.5,10.3-4.5c4.1,0,7.6,1.5,10.3,4.5c2.5,2.7,3.7,6,3.7,9.7
					c0,3.7-1.3,7-3.9,9.8C525,81,521.6,82.4,517.5,82.4z M517.5,54.6c-4,0-7.4,1.5-10.1,4.4c-2.4,2.7-3.6,5.8-3.6,9.5
					c0,3.6,1.3,6.9,3.8,9.6c2.5,2.7,5.9,4.1,9.9,4.1c4,0,7.3-1.4,9.8-4.1c2.5-2.7,3.8-6,3.8-9.6c0-3.6-1.2-6.8-3.6-9.5
					C524.9,56.1,521.5,54.6,517.5,54.6z M492.9,82.4c-1.5,0-3-0.3-4.4-1c-1.4-0.7-2.6-1.6-3.5-2.8l-0.1-0.1l2.3-2.6l0.1,0.1
					c1.7,1.9,3.5,2.9,5.4,2.9c1.3,0,2.5-0.4,3.4-1.3c0.9-0.8,1.4-1.9,1.4-3c0-0.9-0.3-1.8-0.9-2.5c-0.6-0.7-2-1.7-4.3-2.8
					c-2.4-1.2-4.1-2.5-4.9-3.7c-0.9-1.2-1.3-2.6-1.3-4.2c0-2,0.7-3.8,2.1-5.1c1.4-1.4,3.2-2,5.3-2c2.5,0,5,1.2,7.5,3.6l0.1,0.1
					l-2.4,2.5l-0.1-0.1c-1.8-1.7-3.6-2.6-5.2-2.6c-1.1,0-2,0.4-2.7,1.1c-0.8,0.7-1.1,1.5-1.1,2.5c0,0.8,0.3,1.6,0.9,2.4
					c0.6,0.8,2,1.7,4.1,2.8c2.5,1.3,4.3,2.6,5.2,3.8c0.9,1.3,1.4,2.7,1.4,4.3c0,2.2-0.8,4.1-2.3,5.6
					C497.2,81.7,495.2,82.4,492.9,82.4z M485.3,78.6c0.9,1.1,2,2,3.3,2.6c1.4,0.7,2.8,1,4.3,1c2.2,0,4.1-0.7,5.6-2.2
					c1.5-1.5,2.3-3.3,2.3-5.4c0-1.5-0.4-2.9-1.3-4.1c-0.9-1.2-2.6-2.5-5.1-3.8c-2.1-1.1-3.5-2-4.1-2.8c-0.7-0.8-1-1.7-1-2.6
					c0-1,0.4-1.9,1.2-2.7c0.8-0.8,1.8-1.1,2.9-1.1c1.7,0,3.5,0.9,5.3,2.6l2-2.1c-2.4-2.3-4.8-3.4-7.2-3.4c-2,0-3.8,0.7-5.1,2
					c-1.3,1.3-2,3-2,4.9c0,1.5,0.4,2.9,1.3,4c0.8,1.2,2.5,2.4,4.8,3.6c2.3,1.2,3.7,2.1,4.3,2.9c0.7,0.8,1,1.7,1,2.7
					c0,1.2-0.5,2.3-1.5,3.2c-1,0.9-2.2,1.4-3.6,1.4c-1.9,0-3.8-1-5.5-2.9L485.3,78.6z M454.2,82.4c-4.3,0-7.8-1.4-10.3-4.3
					c-2.4-2.8-3.7-6.1-3.7-9.7c0-3.4,1.1-6.4,3.1-9.1c2.6-3.4,6.2-5.1,10.6-5.1c4.5,0,8.2,1.7,10.9,5.2c1.9,2.4,2.9,5.5,3,9.1l0,0.1
					H444c0.1,3,1.1,5.4,2.9,7.3c1.9,1.9,4.2,2.9,6.9,2.9c1.3,0,2.6-0.2,3.9-0.7c1.3-0.5,2.3-1.1,3.2-1.8c0.9-0.8,1.8-2,2.9-3.7
					l0.1-0.1l3.1,1.6l-0.1,0.1c-0.9,1.9-2.1,3.4-3.3,4.5c-1.2,1.1-2.7,2-4.2,2.6C457.9,82.1,456.1,82.4,454.2,82.4z M454,54.6
					c-4.3,0-7.8,1.7-10.4,5c-2,2.6-3.1,5.6-3.1,8.9c0,3.5,1.2,6.7,3.6,9.5c2.4,2.8,5.8,4.2,10,4.2c1.9,0,3.7-0.3,5.2-0.9
					c1.5-0.6,2.9-1.4,4.1-2.6c1.2-1.1,2.3-2.5,3.2-4.3L464,73c-1,1.7-2,2.9-2.9,3.7c-0.9,0.8-2,1.4-3.3,1.9c-1.3,0.5-2.6,0.7-4,0.7
					c-2.8,0-5.2-1-7.1-3c-1.9-2-2.9-4.6-3-7.7l0-0.1h23.8c-0.1-3.5-1-6.5-2.9-8.8C462,56.3,458.4,54.6,454,54.6z M395.8,82.4
					c-4.3,0-7.8-1.4-10.3-4.3c-2.4-2.8-3.7-6.1-3.7-9.7c0-3.4,1.1-6.4,3.1-9.1c2.6-3.4,6.2-5.1,10.6-5.1c4.5,0,8.2,1.7,10.9,5.2
					c1.9,2.4,2.9,5.5,3,9.1l0,0.1h-23.8c0.1,3,1.1,5.4,2.9,7.3c1.9,1.9,4.2,2.9,6.9,2.9c1.3,0,2.6-0.2,3.9-0.7
					c1.3-0.5,2.3-1.1,3.2-1.8c0.9-0.8,1.8-2,2.9-3.7l0.1-0.1l3.1,1.6l-0.1,0.1c-0.9,1.9-2.1,3.4-3.3,4.5c-1.2,1.1-2.7,2-4.2,2.6
					C399.5,82.1,397.7,82.4,395.8,82.4z M395.6,54.6c-4.3,0-7.8,1.7-10.4,5c-2,2.6-3.1,5.6-3.1,8.9c0,3.5,1.2,6.7,3.6,9.5
					c2.4,2.8,5.8,4.2,10,4.2c1.9,0,3.7-0.3,5.2-0.9c1.5-0.6,2.9-1.4,4.1-2.6c1.2-1.1,2.3-2.5,3.2-4.3l-2.6-1.4c-1,1.7-2,2.9-2.9,3.7
					c-0.9,0.8-2,1.4-3.3,1.9c-1.3,0.5-2.6,0.7-4,0.7c-2.8,0-5.2-1-7.2-3c-1.9-2-2.9-4.6-3-7.7l0-0.1h23.9c-0.1-3.5-1-6.5-2.9-8.8
					C403.6,56.3,400,54.6,395.6,54.6z M337.3,82.4c-1.5,0-3-0.3-4.4-1c-1.4-0.7-2.6-1.6-3.5-2.8l-0.1-0.1l2.3-2.6l0.1,0.1
					c1.7,1.9,3.5,2.9,5.4,2.9c1.3,0,2.5-0.4,3.4-1.3c0.9-0.8,1.4-1.9,1.4-3c0-0.9-0.3-1.8-0.9-2.5c-0.6-0.7-2-1.7-4.3-2.8
					c-2.4-1.2-4.1-2.5-4.9-3.7c-0.9-1.2-1.3-2.6-1.3-4.2c0-2,0.7-3.8,2.1-5.1c1.4-1.4,3.2-2,5.3-2c2.5,0,5,1.2,7.5,3.6l0.1,0.1
					l-2.4,2.5l-0.1-0.1c-1.8-1.7-3.6-2.6-5.3-2.6c-1.1,0-2,0.4-2.7,1.1c-0.8,0.7-1.1,1.5-1.1,2.5c0,0.8,0.3,1.6,0.9,2.4
					c0.6,0.8,2,1.7,4.1,2.8c2.5,1.3,4.3,2.6,5.2,3.8c0.9,1.3,1.4,2.7,1.4,4.3c0,2.2-0.8,4.1-2.3,5.6
					C341.6,81.7,339.7,82.4,337.3,82.4z M329.7,78.6c0.9,1.1,2,2,3.3,2.6c1.4,0.7,2.8,1,4.3,1c2.2,0,4.1-0.7,5.6-2.2
					c1.5-1.5,2.2-3.3,2.2-5.4c0-1.5-0.4-2.9-1.3-4.1c-0.9-1.2-2.6-2.5-5.1-3.8c-2.1-1.1-3.5-2-4.1-2.8c-0.7-0.8-1-1.7-1-2.6
					c0-1,0.4-1.9,1.2-2.7c0.8-0.8,1.8-1.1,2.9-1.1c1.7,0,3.5,0.9,5.3,2.6l2-2.1c-2.4-2.3-4.8-3.4-7.2-3.4c-2,0-3.8,0.7-5.1,2
					c-1.3,1.3-2,3-2,4.9c0,1.5,0.4,2.9,1.3,4c0.8,1.2,2.5,2.4,4.8,3.6c2.3,1.2,3.7,2.1,4.3,2.9c0.7,0.8,1,1.7,1,2.7
					c0,1.2-0.5,2.3-1.5,3.2c-1,0.9-2.2,1.4-3.6,1.4c-1.9,0-3.8-1-5.5-2.9L329.7,78.6z M312.3,82.4c-3.8,0-7-1.4-9.7-4.1
					c-2.7-2.7-4-6.1-4-10c0-3.8,1.4-7.2,4.1-9.9c2.7-2.7,6-4.1,9.8-4.1c2.2,0,4.2,0.5,6,1.4c1.7,0.9,3.1,2.2,4.4,3.9V55h3.6v26.8
					h-3.6v-4.3c-1.4,1.6-2.9,2.8-4.6,3.7C316.4,82,314.4,82.4,312.3,82.4z M312.4,54.6c-3.7,0-6.9,1.4-9.6,4c-2.6,2.7-4,5.9-4,9.7
					c0,3.8,1.3,7.1,3.9,9.8c2.6,2.7,5.8,4,9.5,4c2.1,0,4-0.4,5.8-1.3c1.8-0.9,3.4-2.2,4.8-3.9l0.3-0.3v4.8h3.1V55.3h-3.1v5.2
					l-0.3-0.4c-1.3-1.8-2.9-3.2-4.6-4.1C316.5,55,314.6,54.6,312.4,54.6z M237,82.4c-4.1,0-7.5-1.4-10.1-4.2
					c-2.6-2.8-3.9-6.1-3.9-9.8c0-3.7,1.2-6.9,3.7-9.6c2.7-3,6.2-4.5,10.3-4.5c4.1,0,7.6,1.5,10.3,4.5c2.5,2.7,3.7,6,3.7,9.7
					c0,3.7-1.3,7-3.9,9.8C244.5,81,241.1,82.4,237,82.4z M237,54.6c-4,0-7.4,1.5-10.1,4.4c-2.4,2.7-3.6,5.8-3.6,9.5
					c0,3.6,1.3,6.9,3.8,9.6c2.5,2.7,5.9,4.1,9.9,4.1c4,0,7.3-1.4,9.8-4.1c2.5-2.7,3.8-6,3.8-9.6c0-3.6-1.2-6.8-3.6-9.5
					C244.4,56.1,241,54.6,237,54.6z M558.9,81.8h-3.7V69c0-3-0.1-5.1-0.4-6.1c-0.4-1.7-1.1-3-2.2-3.9c-1.1-0.9-2.5-1.3-4.3-1.3
					c-2,0-3.9,0.7-5.5,2c-1.6,1.3-2.7,3-3.2,5c-0.3,1.3-0.5,3.7-0.5,7.2v9.9h-3.7V55h3.7v4.5c1.3-1.7,2.8-2.9,4.3-3.8
					c1.7-0.9,3.5-1.4,5.5-1.4c2,0,3.8,0.5,5.4,1.5c1.6,1,2.7,2.4,3.5,4.1c0.7,1.7,1.1,4.4,1.1,8V81.8z M555.5,81.5h3.1V68
					c0-3.6-0.4-6.2-1.1-7.9c-0.7-1.7-1.8-3-3.3-4c-1.5-1-3.3-1.5-5.2-1.5c-1.9,0-3.7,0.4-5.3,1.3c-1.6,0.9-3.1,2.2-4.5,4l-0.3,0.3
					v-5h-3.1v26.2h3.1v-9.6c0-3.5,0.2-5.9,0.5-7.2c0.5-2,1.6-3.8,3.3-5.1c1.7-1.4,3.5-2.1,5.6-2.1c1.8,0,3.3,0.5,4.5,1.4
					c1.1,0.9,1.9,2.3,2.3,4c0.3,1,0.4,3.1,0.4,6.1V81.5z M475.4,81.8h-3.8V55h3.8v3.6c1-1.4,2-2.4,3.1-3.1c1.2-0.8,2.4-1.2,3.7-1.2
					c1,0,2,0.3,3.1,0.9l0.1,0.1l-1.9,3.1l-0.1,0c-0.7-0.3-1.3-0.5-1.7-0.5c-1.1,0-2.2,0.5-3.2,1.4c-1,0.9-1.8,2.4-2.4,4.3
					c-0.4,1.5-0.6,4.6-0.6,9.1V81.8z M471.9,81.5h3.2v-8.8c0-4.6,0.2-7.7,0.6-9.2c0.6-2,1.4-3.5,2.5-4.4c1.1-1,2.2-1.4,3.4-1.4
					c0.5,0,1.1,0.1,1.7,0.4l1.6-2.6c-1-0.5-1.9-0.8-2.8-0.8c-1.2,0-2.4,0.4-3.5,1.1c-1.1,0.7-2.2,1.9-3.3,3.4l-0.3,0.4v-4.2h-3.2
					V81.5z M433.1,81.8h-3.7V58.2H426V55h3.5v-4c0-1.9,0.2-3.3,0.5-4.1c0.4-0.8,1-1.5,1.8-2c0.9-0.5,1.9-0.8,3.1-0.8
					c1.1,0,2.5,0.2,4,0.7l0.1,0v3.7l-0.2-0.1c-2.1-0.9-3.8-1-4.7-0.4c-0.4,0.2-0.7,0.5-0.8,0.8c-0.1,0.3-0.2,1.3-0.2,2.7l0,3.4h5.5
					v3.2h-5.5L433.1,81.8z M429.7,81.5h3.1l0-23.6h5.5v-2.7h-5.5l0-3.7c0-1.5,0.1-2.5,0.2-2.8c0.1-0.4,0.4-0.7,0.9-1
					c1-0.6,2.7-0.6,4.8,0.3v-3c-1.5-0.4-2.8-0.6-3.8-0.6c-1.2,0-2.1,0.2-3,0.7c-0.8,0.5-1.4,1.1-1.7,1.9c-0.3,0.8-0.5,2.1-0.5,4v4.3
					h-3.5v2.7h3.5V81.5z M417.3,81.8h-3.7V58.2h-3.5V55h3.5v-4c0-1.9,0.2-3.3,0.5-4.1c0.4-0.8,1-1.5,1.8-2c0.9-0.5,1.9-0.8,3.1-0.8
					c1.1,0,2.5,0.2,4,0.7l0.1,0v3.7l-0.2-0.1c-2.1-0.9-3.8-1-4.7-0.4c-0.4,0.2-0.7,0.5-0.8,0.8c-0.1,0.3-0.2,1.3-0.2,2.7l0,3.4h5.5
					v3.2h-5.5L417.3,81.8z M413.9,81.5h3.1l0-23.6h5.5v-2.7h-5.5l0-3.7c0-1.5,0.1-2.5,0.2-2.8c0.1-0.4,0.4-0.7,0.9-1
					c1-0.6,2.7-0.6,4.8,0.3v-3c-1.5-0.4-2.8-0.6-3.8-0.6c-1.2,0-2.1,0.2-3,0.7c-0.8,0.5-1.4,1.1-1.7,1.9c-0.3,0.8-0.5,2.1-0.5,4v4.3
					h-3.5v2.7h3.5V81.5z M294.9,81.8h-3.8V67.2c0-2.8-0.2-4.8-0.6-5.8c-0.4-1-1.1-1.9-2-2.5c-1-0.6-2.1-1-3.4-1
					c-1.6,0-3.1,0.5-4.4,1.4c-1.3,1-2.3,2.2-2.9,3.8c-0.6,1.6-0.9,4.3-0.9,8.1v10.5H273V68.1c0-3.2-0.2-5.3-0.6-6.5
					c-0.4-1.1-1.1-2-2-2.7c-1-0.7-2.1-1-3.5-1c-1.5,0-3,0.5-4.3,1.4c-1.3,0.9-2.4,2.2-3,3.8c-0.6,1.6-1,4-1,7.3v11.4H255V55h3.7v4.3
					c1.1-1.5,2.3-2.7,3.4-3.4c1.7-1,3.6-1.6,5.5-1.6c1.3,0,2.5,0.3,3.7,0.8c1.2,0.5,2.1,1.2,2.9,2c0.7,0.8,1.3,1.9,1.8,3.3
					c1.1-2,2.5-3.5,4.1-4.5c1.7-1.1,3.6-1.6,5.6-1.6c1.8,0,3.5,0.5,4.9,1.4c1.4,0.9,2.5,2.3,3.2,3.9c0.7,1.7,1,4.2,1,7.5V81.8z
					 M291.4,81.5h3.2V67.2c0-3.3-0.3-5.8-1-7.4c-0.7-1.6-1.7-2.9-3.1-3.8c-1.4-0.9-3-1.4-4.8-1.4c-1.9,0-3.7,0.5-5.4,1.6
					c-1.7,1.1-3.1,2.6-4.2,4.7l-0.2,0.3l-0.1-0.3c-0.5-1.5-1.2-2.7-1.9-3.5c-0.7-0.8-1.6-1.5-2.8-2c-1.1-0.5-2.3-0.7-3.6-0.7
					c-1.9,0-3.7,0.5-5.4,1.5c-1.2,0.8-2.4,2-3.6,3.7l-0.3,0.4v-4.9h-3.1v26.2h3.1V70.4c0-3.3,0.3-5.8,1-7.4c0.7-1.6,1.7-2.9,3.1-3.9
					c1.4-1,2.9-1.5,4.5-1.5c1.4,0,2.6,0.4,3.6,1.1c1,0.7,1.7,1.7,2.1,2.8c0.4,1.2,0.6,3.4,0.6,6.6v13.4h3.1V71.2
					c0-3.8,0.3-6.6,1-8.2c0.6-1.6,1.7-3,3-4c1.4-1,2.9-1.5,4.6-1.5c1.4,0,2.6,0.3,3.6,1c1,0.7,1.7,1.6,2.1,2.6
					c0.4,1.1,0.6,3.1,0.6,5.9V81.5z M219.3,81.8h-3.7V69c0-3-0.1-5.1-0.4-6.1c-0.4-1.7-1.2-3-2.3-3.9c-1.1-0.9-2.5-1.3-4.3-1.3
					c-2,0-3.9,0.7-5.4,2c-1.6,1.3-2.7,3-3.2,5c-0.3,1.3-0.5,3.7-0.5,7.2v9.9h-3.7v-37h3.7v14.7c1.3-1.7,2.8-2.9,4.3-3.8
					c1.7-0.9,3.5-1.4,5.5-1.4c2,0,3.8,0.5,5.4,1.5c1.6,1,2.7,2.4,3.5,4.1c0.7,1.7,1.1,4.4,1.1,8V81.8z M215.9,81.5h3.1V68
					c0-3.6-0.4-6.3-1.1-7.9c-0.7-1.7-1.8-3-3.3-4c-1.5-1-3.3-1.5-5.2-1.5c-1.9,0-3.7,0.4-5.3,1.3c-1.6,0.9-3.1,2.2-4.5,4l-0.3,0.3
					V45h-3.1v36.4h3.1v-9.6c0-3.5,0.2-5.9,0.5-7.2c0.5-2,1.6-3.8,3.3-5.1c1.7-1.4,3.5-2.1,5.6-2.1c1.8,0,3.3,0.5,4.5,1.4
					c1.1,0.9,1.9,2.3,2.4,4c0.2,1,0.4,3.1,0.4,6.1V81.5z M185.6,81.8h-3.9V49.4h-8v-3.8h19.9v3.8h-8V81.8z M181.9,81.5h3.4V49.2h8
					v-3.2h-19.3v3.2h8V81.5z M312.7,79.3c-1.9,0-3.6-0.5-5.3-1.4c-1.6-1-2.9-2.3-3.9-4c-1-1.7-1.5-3.5-1.5-5.4
					c0-1.9,0.5-3.7,1.4-5.4c1-1.7,2.3-3,3.9-4c1.6-0.9,3.4-1.4,5.3-1.4c3,0,5.5,1.1,7.6,3.1c2,2.1,3.1,4.7,3.1,7.8
					c0,2-0.5,3.9-1.4,5.5c-0.9,1.6-2.2,2.9-3.9,3.9C316.4,78.8,314.6,79.3,312.7,79.3z M312.7,57.9c-1.9,0-3.6,0.5-5.2,1.4
					c-1.6,0.9-2.8,2.2-3.8,3.9c-0.9,1.7-1.4,3.4-1.4,5.3c0,1.8,0.5,3.6,1.4,5.3c0.9,1.7,2.2,3,3.8,3.9c1.6,0.9,3.3,1.4,5.1,1.4
					c1.8,0,3.6-0.5,5.2-1.4c1.6-0.9,2.9-2.2,3.8-3.8c0.9-1.6,1.3-3.4,1.3-5.4c0-3-1-5.6-3-7.6C318.1,58.9,315.6,57.9,312.7,57.9z
					 M517.5,79.2c-1.9,0-3.7-0.5-5.3-1.4c-1.6-0.9-2.9-2.2-3.8-3.9c-0.9-1.7-1.4-3.5-1.4-5.4c0-3,1-5.6,3.1-7.7
					c2.1-2.1,4.6-3.2,7.4-3.2c2.8,0,5.3,1.1,7.4,3.2c2.1,2.1,3.1,4.7,3.1,7.7c0,1.9-0.5,3.8-1.4,5.4c-0.9,1.7-2.2,3-3.8,3.9
					C521.2,78.7,519.4,79.2,517.5,79.2z M517.5,57.9c-2.8,0-5.2,1-7.2,3.1c-2,2.1-3,4.6-3,7.5c0,1.9,0.5,3.7,1.4,5.3
					c0.9,1.6,2.2,2.9,3.7,3.8c1.6,0.9,3.3,1.3,5.1,1.3c1.9,0,3.6-0.4,5.1-1.3c1.6-0.9,2.8-2.2,3.7-3.8c0.9-1.6,1.4-3.4,1.4-5.3
					c0-2.9-1-5.4-3-7.5C522.7,59,520.3,57.9,517.5,57.9z M237,79.2c-1.9,0-3.7-0.5-5.3-1.4c-1.6-0.9-2.9-2.2-3.8-3.9
					c-0.9-1.7-1.4-3.5-1.4-5.4c0-3,1-5.6,3.1-7.7c2.1-2.1,4.6-3.2,7.4-3.2c2.8,0,5.3,1.1,7.4,3.2c2.1,2.1,3.1,4.7,3.1,7.7
					c0,1.9-0.5,3.8-1.4,5.4c-0.9,1.7-2.2,3-3.8,3.9C240.7,78.7,238.9,79.2,237,79.2z M237,57.9c-2.8,0-5.2,1-7.2,3.1
					c-2,2.1-3,4.6-3,7.5c0,1.9,0.5,3.7,1.4,5.3c0.9,1.6,2.2,2.9,3.7,3.8c1.6,0.9,3.3,1.3,5.1,1.3s3.6-0.4,5.1-1.3
					c1.5-0.9,2.8-2.2,3.7-3.8c0.9-1.6,1.4-3.4,1.4-5.3c0-2.9-1-5.4-3-7.5C242.2,59,239.8,57.9,237,57.9z M464.1,65.8H444l0.1-0.2
					c0.7-2.5,1.8-4.3,3.1-5.5c1.9-1.7,4.2-2.5,6.8-2.5c1.6,0,3.1,0.3,4.6,1c1.4,0.7,2.6,1.6,3.5,2.7c0.9,1.1,1.6,2.6,2,4.4
					L464.1,65.8z M444.4,65.5h19.4c-0.4-1.7-1.1-3.1-1.9-4.1c-0.8-1.1-2-1.9-3.4-2.6c-1.4-0.7-2.9-1-4.5-1c-2.6,0-4.8,0.8-6.6,2.5
					C446.1,61.5,445.1,63.2,444.4,65.5z M405.7,65.8h-20.1l0.1-0.2c0.7-2.5,1.8-4.3,3.1-5.5c1.9-1.7,4.2-2.5,6.8-2.5
					c1.6,0,3.1,0.3,4.6,1c1.4,0.7,2.6,1.6,3.5,2.7c0.9,1.1,1.6,2.6,2,4.4L405.7,65.8z M386,65.5h19.4c-0.4-1.7-1.1-3.1-1.9-4.1
					c-0.9-1.1-2-1.9-3.4-2.6c-1.4-0.7-2.9-1-4.5-1c-2.6,0-4.8,0.8-6.6,2.5C387.7,61.5,386.7,63.2,386,65.5z"/>
			</g>
			<g>
				<path class="st0" d="M307.4,21.5c1.6,1.6,2.3,3.5,2.3,5.8c0,1.5-0.4,2.8-1.1,4.1c-0.7,1.3-1.7,2.2-2.9,2.9c-1.2,0.7-2.5,1-4,1
					c-1.4,0-2.8-0.3-4-1c-1.2-0.7-2.2-1.7-2.9-2.9c-0.7-1.3-1.1-2.6-1.1-4.1c0-2.3,0.8-4.2,2.3-5.8c1.6-1.6,3.4-2.4,5.6-2.4
					C304,19.1,305.8,19.9,307.4,21.5 M294.1,20c-1.9,2.1-2.8,4.5-2.8,7.3c0,2.8,1,5.3,3,7.4c2,2.1,4.5,3.2,7.6,3.2
					c3.1,0,5.6-1.1,7.6-3.2c2-2.1,3-4.6,3-7.4c0-2.8-0.9-5.2-2.8-7.3c-2.1-2.3-4.6-3.4-7.8-3.4C298.7,16.5,296.1,17.7,294.1,20
					 M282.4,17.1h-3.6v2.3h3.6v18h2.6v-18h4.1v-2.3H285V9.6h-2.6V17.1z M257.4,26.8c0,2.9,0.3,5,1,6.5c0.7,1.4,1.6,2.5,3,3.3
					c1.3,0.8,3,1.2,4.9,1.2c2,0,3.6-0.4,4.9-1.2c1.3-0.8,2.3-1.9,2.9-3.3c0.7-1.4,1-3.5,1-6.3v-9.9h-2.7v9.4c0,2.5-0.1,4.2-0.4,5
					c-0.4,1.1-1.1,2.1-2.1,2.8c-1,0.7-2.2,1-3.7,1c-1.5,0-2.7-0.4-3.8-1.1c-1-0.7-1.8-1.7-2.1-2.9c-0.2-0.9-0.4-2.5-0.4-4.8v-9.4
					h-2.6V26.8z M247.9,17.1h-3.6v2.3h3.6v18h2.6v-18h4.1v-2.3h-4.1V9.6h-2.6V17.1z M238.3,37.3h2.6V17.1h-2.6V37.3z M238.1,9.4
					c-0.4,0.4-0.6,0.9-0.6,1.5c0,0.6,0.2,1.1,0.6,1.5c0.4,0.4,0.9,0.6,1.5,0.6c0.6,0,1.1-0.2,1.5-0.6c0.4-0.4,0.6-0.9,0.6-1.5
					c0-0.6-0.2-1.1-0.6-1.5c-0.4-0.4-0.9-0.6-1.5-0.6C239,8.7,238.5,8.9,238.1,9.4 M228.8,17.1h-3.6v2.3h3.6v18h2.6v-18h4.1v-2.3
					h-4.1V9.6h-2.6V17.1z M217.1,16.5c-1.6,0-2.9,0.5-4,1.5c-1,1-1.6,2.3-1.6,3.8c0,1.2,0.3,2.2,1,3.1c0.7,0.9,1.9,1.8,3.7,2.8
					c1.7,0.9,2.8,1.6,3.3,2.2c0.5,0.6,0.7,1.2,0.7,2c0,0.9-0.4,1.7-1.1,2.4c-0.7,0.7-1.6,1-2.7,1c-1.5,0-2.9-0.8-4.2-2.3l-1.6,1.9
					c0.7,0.9,1.6,1.6,2.6,2.1c1.1,0.5,2.2,0.8,3.3,0.8c1.8,0,3.2-0.6,4.4-1.7c1.2-1.2,1.8-2.6,1.8-4.2c0-1.2-0.3-2.2-1-3.2
					c-0.7-0.9-2-1.9-4-2.9c-1.6-0.8-2.6-1.5-3.1-2.1c-0.5-0.6-0.7-1.2-0.7-1.9c0-0.7,0.3-1.4,0.9-2c0.6-0.6,1.3-0.8,2.2-0.8
					c1.3,0,2.7,0.7,4.1,2l1.7-1.7C220.8,17.5,219,16.5,217.1,16.5 M190.1,37.3h2.6v-7.4c0-2.7,0.1-4.5,0.4-5.5
					c0.4-1.5,1.2-2.8,2.5-3.9c1.2-1,2.7-1.6,4.2-1.6c1.4,0,2.5,0.3,3.3,1c0.9,0.7,1.4,1.7,1.7,3c0.2,0.8,0.3,2.3,0.3,4.7v9.7h2.6
					V26.9c0-2.8-0.3-4.8-0.8-6.1c-0.6-1.3-1.4-2.3-2.6-3.1c-1.2-0.8-2.5-1.2-4-1.2c-1.5,0-2.9,0.3-4.1,1c-1.3,0.7-2.4,1.7-3.5,3.1
					v-3.6h-2.6V37.3z M182.3,37.3h2.7V9.9h-2.7V37.3z"/>
			</g>
			<g>
				<path class="st0" d="M301.8,38c-3.1,0-5.7-1.1-7.7-3.2c-2-2.1-3-4.7-3-7.5c0-2.8,1-5.3,2.8-7.4c2.1-2.3,4.7-3.5,7.9-3.5
					c3.1,0,5.8,1.2,7.9,3.4c1.9,2.1,2.8,4.6,2.8,7.4c0,2.9-1,5.4-3,7.5C307.5,36.9,305,38,301.8,38z M301.8,16.7
					c-3.1,0-5.7,1.1-7.7,3.4c-1.8,2-2.8,4.4-2.8,7.2c0,2.8,1,5.2,2.9,7.3c1.9,2.1,4.5,3.1,7.5,3.1c3,0,5.6-1.1,7.5-3.1
					c1.9-2.1,2.9-4.5,2.9-7.3c0-2.8-0.9-5.2-2.8-7.2C307.5,17.8,304.9,16.7,301.8,16.7z M266.3,38c-2,0-3.7-0.4-5-1.2
					c-1.3-0.8-2.4-2-3-3.4c-0.7-1.4-1-3.6-1-6.5v-9.9h2.9v9.6c0,2.3,0.1,3.9,0.4,4.7c0.4,1.2,1.1,2.2,2.1,2.9c1,0.7,2.3,1.1,3.7,1.1
					c1.4,0,2.6-0.3,3.6-1c1-0.7,1.7-1.6,2-2.7c0.3-0.8,0.4-2.4,0.4-4.9v-9.6h2.9V27c0,2.8-0.3,4.9-1,6.4c-0.7,1.4-1.7,2.6-3,3.4
					C269.9,37.6,268.3,38,266.3,38z M257.5,17.2v9.6c0,2.8,0.3,5,1,6.4c0.6,1.4,1.6,2.5,2.9,3.3c1.3,0.8,2.9,1.2,4.9,1.2
					c1.9,0,3.6-0.4,4.8-1.2c1.3-0.8,2.2-1.9,2.9-3.3c0.6-1.4,1-3.5,1-6.2v-9.8h-2.4v9.3c0,2.6-0.1,4.2-0.4,5
					c-0.4,1.2-1.1,2.1-2.1,2.8c-1,0.7-2.3,1.1-3.8,1.1c-1.5,0-2.8-0.4-3.8-1.1c-1.1-0.7-1.8-1.7-2.2-3c-0.3-0.9-0.4-2.5-0.4-4.8
					v-9.3H257.5z M216.6,38c-1.2,0-2.3-0.3-3.4-0.8c-1.1-0.5-2-1.2-2.7-2.1l-0.1-0.1l1.8-2.1l0.1,0.1c1.3,1.5,2.7,2.2,4.1,2.2
					c1,0,1.9-0.3,2.6-1c0.7-0.6,1.1-1.4,1.1-2.3c0-0.7-0.2-1.3-0.7-1.9c-0.5-0.6-1.6-1.3-3.2-2.1c-1.8-0.9-3.1-1.9-3.8-2.8
					c-0.7-0.9-1-2-1-3.2c0-1.6,0.5-2.9,1.6-3.9c1.1-1,2.4-1.6,4.1-1.6c1.9,0,3.8,0.9,5.7,2.8l0.1,0.1l-1.9,1.9l-0.1-0.1
					c-1.4-1.3-2.7-2-4-2c-0.8,0-1.5,0.3-2.1,0.8c-0.6,0.5-0.9,1.1-0.9,1.8c0,0.6,0.2,1.2,0.7,1.8c0.5,0.6,1.5,1.3,3.1,2.1
					c1.9,1,3.3,2,4,2.9c0.7,1,1.1,2.1,1.1,3.3c0,1.7-0.6,3.1-1.8,4.3C219.9,37.4,218.4,38,216.6,38z M210.8,35
					c0.7,0.8,1.5,1.5,2.5,2c1,0.5,2.1,0.7,3.3,0.7c1.7,0,3.1-0.6,4.3-1.7c1.1-1.1,1.7-2.5,1.7-4.1c0-1.1-0.3-2.2-1-3.1
					c-0.7-0.9-2-1.9-3.9-2.9c-1.6-0.8-2.7-1.6-3.2-2.2c-0.5-0.6-0.8-1.3-0.8-2c0-0.8,0.3-1.5,0.9-2.1c0.6-0.6,1.4-0.9,2.3-0.9
					c1.3,0,2.7,0.7,4.1,2l1.5-1.5c-1.8-1.7-3.6-2.6-5.4-2.6c-1.6,0-2.9,0.5-3.9,1.5c-1,1-1.5,2.2-1.5,3.7c0,1.1,0.3,2.2,1,3.1
					c0.6,0.9,1.9,1.8,3.7,2.7c1.7,0.9,2.8,1.6,3.3,2.2c0.5,0.6,0.8,1.3,0.8,2.1c0,0.9-0.4,1.8-1.1,2.5c-0.8,0.7-1.7,1-2.8,1
					c-1.5,0-2.9-0.7-4.2-2.2L210.8,35z M285.1,37.4h-2.9v-18h-3.6v-2.5h3.6V9.4h2.9v7.5h4.1v2.5h-4.1V37.4z M282.5,37.2h2.3v-18h4.1
					v-2h-4.1V9.7h-2.3v7.5H279v2h3.6V37.2z M250.6,37.4h-2.9v-18h-3.6v-2.5h3.6V9.4h2.9v7.5h4.1v2.5h-4.1V37.4z M248,37.2h2.3v-18
					h4.1v-2h-4.1V9.7H248v7.5h-3.6v2h3.6V37.2z M241.1,37.4h-2.9V16.9h2.9V37.4z M238.5,37.2h2.3V17.2h-2.3V37.2z M231.6,37.4h-2.9
					v-18h-3.6v-2.5h3.6V9.4h2.9v7.5h4.1v2.5h-4.1V37.4z M229,37.2h2.3v-18h4.1v-2h-4.1V9.7H229v7.5h-3.6v2h3.6V37.2z M207.9,37.4
					H205v-9.8c0-2.3-0.1-3.9-0.3-4.6c-0.3-1.3-0.9-2.3-1.7-2.9c-0.8-0.7-1.9-1-3.3-1c-1.5,0-2.9,0.5-4.1,1.5c-1.2,1-2,2.3-2.4,3.8
					c-0.2,1-0.4,2.8-0.4,5.5v7.6h-2.9V16.9h2.9v3.4c1-1.2,2.1-2.2,3.2-2.8c1.3-0.7,2.7-1.1,4.2-1.1c1.5,0,2.9,0.4,4.1,1.2
					c1.2,0.8,2.1,1.8,2.6,3.2c0.6,1.3,0.8,3.4,0.8,6.1V37.4z M205.3,37.2h2.3V26.9c0-2.7-0.3-4.7-0.8-6c-0.5-1.3-1.4-2.3-2.5-3
					c-1.1-0.8-2.5-1.1-3.9-1.1c-1.5,0-2.8,0.3-4.1,1c-1.2,0.7-2.4,1.7-3.4,3.1l-0.3-0.1v-3.5h-2.3v19.9h2.3v-7.3
					c0-2.7,0.1-4.5,0.4-5.5c0.4-1.6,1.2-2.9,2.5-3.9c1.3-1.1,2.7-1.6,4.3-1.6c1.4,0,2.6,0.4,3.4,1c0.9,0.7,1.5,1.7,1.8,3.1
					c0.2,0.8,0.3,2.4,0.3,4.7V37.2z M185.2,37.4h-3V9.8h3V37.4z M182.4,37.2h2.4V10.1h-2.4V37.2z M301.8,35.5c-1.5,0-2.8-0.4-4-1.1
					c-1.2-0.7-2.2-1.7-2.9-3c-0.7-1.3-1.1-2.7-1.1-4.2c0-2.3,0.8-4.3,2.4-5.9c1.6-1.6,3.5-2.4,5.7-2.4c2.2,0,4.1,0.8,5.7,2.4
					c1.6,1.6,2.4,3.6,2.4,5.9c0,1.5-0.4,2.9-1.1,4.2c-0.7,1.3-1.7,2.3-2.9,3C304.6,35.1,303.3,35.5,301.8,35.5z M301.8,19.2
					c-2.1,0-4,0.8-5.5,2.4c-1.5,1.6-2.3,3.5-2.3,5.7c0,1.4,0.4,2.8,1,4c0.7,1.2,1.6,2.2,2.8,2.9c1.2,0.7,2.5,1,3.9,1
					c1.4,0,2.7-0.3,3.9-1c1.2-0.7,2.1-1.6,2.8-2.9c0.7-1.2,1-2.6,1-4c0-2.2-0.8-4.1-2.3-5.7C305.8,20,303.9,19.2,301.8,19.2z
					 M239.6,13.2c-0.6,0-1.2-0.2-1.6-0.7c-0.4-0.4-0.7-1-0.7-1.6c0-0.6,0.2-1.2,0.7-1.6c0.4-0.4,1-0.7,1.6-0.7
					c0.6,0,1.2,0.2,1.6,0.7c0.4,0.4,0.7,1,0.7,1.6c0,0.6-0.2,1.2-0.7,1.6C240.8,12.9,240.3,13.2,239.6,13.2z M239.6,8.9
					c-0.5,0-1,0.2-1.4,0.6c-0.4,0.4-0.6,0.9-0.6,1.4c0,0.5,0.2,1,0.6,1.4c0.4,0.4,0.9,0.6,1.4,0.6c0.6,0,1-0.2,1.4-0.6
					c0.4-0.4,0.6-0.9,0.6-1.4c0-0.6-0.2-1-0.6-1.4C240.6,9.1,240.2,8.9,239.6,8.9z"/>
			</g>
		</g>
	</g>
</g>
</svg>
