<?xml version="1.0" encoding="utf-8"?>
<!-- Generator: Adobe Illustrator 20.1.0, SVG Export Plug-In . SVG Version: 6.00 Build 0)  -->
<svg version="1.1" id="Layer_1" xmlns="http://www.w3.org/2000/svg" xmlns:xlink="http://www.w3.org/1999/xlink" x="0px" y="0px"
	 viewBox="0 0 600 250" style="enable-background:new 0 0 600 250;" xml:space="preserve">
<style type="text/css">
	.st0{fill:#FFFFFF;}
</style>
<g>
	<g>
		<g>
			<path class="st0" d="M131.5,152.4v-32.7l0-1.7v-3.5c0-5.2-7.4-4-7.4-4l0-3.5l23.7,0l0,3.4c0,0-7.4-0.9-7.4,4v3.5l0,1.7v36.3
				c0,0,0.5,7.5-9.6,7.4c-7.7-0.1-9.6-6.1-9.6-6.1s-0.7-2.3,1.2-3.6c0,0,1.7-1.3,3.6,0.7c0,0,1,1.1,2.2,1.1
				C129.5,155.3,131.5,154.7,131.5,152.4"/>
		</g>
		<g>
			<path class="st0" d="M108.1,86.7c-5.9-1.3-7,2.1-7,2.1l-0.1,63.6c0,10.9,8.8,11,10.8,11v3.7H78.7v-3.7c2.4,0,11.2-0.1,11.2-11
				c0-8.2-0.3-63.5-0.3-63.5s-1.1-3.5-7.3-2.1c-6.1,1.4-13.6,8.3-16.2,14h-7.5L66,82.5l58.8,0l7.4,18.2l-7.4,0
				C124.7,100.7,119,89.1,108.1,86.7"/>
		</g>
		<g>
			<path class="st0" d="M59,119.4v36.5c0,5.1,7.4,4,7.4,4l0,3.4l-23.8,0l0-3.4c0,0,7.4,1.1,7.4-3.9v-36.5l0-1.7v-3.5
				c0-4.9-7.4-3.7-7.4-3.7l0-3.4l23.8,0l0,3.4c0,0-7.4-1.3-7.4,3.6v3.5L59,119.4z"/>
		</g>
		<g>
			<path class="st0" d="M161.4,124.6c0,37.5-30.4,67.8-67.8,67.8c-37.5,0-67.8-30.4-67.8-67.8s30.4-67.8,67.8-67.8
				C131.1,56.8,161.4,87.1,161.4,124.6 M169,124.6c0-41.6-33.8-75.4-75.4-75.4C52,49.2,18.2,83,18.2,124.6S52,200,93.6,200
				C135.2,200,169,166.2,169,124.6"/>
		</g>
	</g>
	<g>
		<g>
			<polygon class="st0" points="11.2,193.6 11.2,186.7 13.3,186.7 14.6,191.4 15.8,186.7 17.9,186.7 17.9,193.6 16.6,193.6 
				16.6,188.2 15.2,193.6 13.9,193.6 12.5,188.2 12.5,193.6 			"/>
		</g>
		<g>
			<g>
				<path class="st0" d="M19.9,189.6h1c0.7,0,1.1,0,1.3-0.1c0.2-0.1,0.3-0.2,0.4-0.3c0.1-0.1,0.1-0.3,0.1-0.5c0-0.2-0.1-0.4-0.2-0.6
					c-0.1-0.1-0.3-0.2-0.5-0.3c-0.1,0-0.5,0-1,0h-1.1V189.6z M18.5,193.6v-6.9h2.9c0.7,0,1.3,0.1,1.6,0.2c0.3,0.1,0.6,0.3,0.8,0.7
					c0.2,0.3,0.3,0.7,0.3,1.1c0,0.5-0.1,0.9-0.5,1.3c-0.3,0.3-0.8,0.6-1.4,0.6c0.3,0.2,0.6,0.4,0.8,0.6c0.2,0.2,0.5,0.6,0.8,1.1
					l0.8,1.3H23l-1-1.5c-0.4-0.5-0.6-0.9-0.7-1c-0.1-0.1-0.3-0.2-0.4-0.3c-0.1-0.1-0.4-0.1-0.7-0.1h-0.3v2.9H18.5z"/>
			</g>
			<g>
				<path class="st0" d="M9.1,190.1c0,4.9,4,8.9,8.9,8.9c4.9,0,8.9-4,8.9-8.9c0-4.9-4-8.9-8.9-8.9C13,181.2,9.1,185.2,9.1,190.1
					 M7.8,190.1c0-5.6,4.5-10.1,10.1-10.1c5.6,0,10.1,4.5,10.1,10.1c0,5.6-4.5,10.1-10.1,10.1C12.4,200.3,7.8,195.7,7.8,190.1"/>
			</g>
		</g>
	</g>
	<g>
		<g>
			<g>
				<path class="st0" d="M202.7,151.5l-1.3,1c-0.7-0.9-1.6-1.7-2.6-2.1c-1-0.5-2.1-0.7-3.3-0.7c-1.3,0-2.5,0.3-3.7,1
					c-1.1,0.6-2,1.5-2.6,2.6c-0.6,1.1-0.9,2.3-0.9,3.6c0,2,0.7,3.7,2.1,5.1c1.4,1.4,3.1,2,5.2,2c2.3,0,4.3-0.9,5.8-2.7l1.3,1
					c-0.8,1.1-1.9,1.9-3.1,2.4c-1.2,0.6-2.6,0.9-4.1,0.9c-2.9,0-5.2-1-6.9-2.9c-1.4-1.6-2.1-3.6-2.1-5.9c0-2.4,0.9-4.5,2.6-6.1
					c1.7-1.7,3.8-2.5,6.4-2.5c1.5,0,2.9,0.3,4.2,0.9C200.9,149.6,201.9,150.4,202.7,151.5z"/>
			</g>
			<g>
				<path class="st0" d="M212.8,148.5l7.7,16.6h-1.8l-2.6-5.5H209l-2.6,5.5h-1.8l7.8-16.6H212.8z M212.6,152l-2.8,6h5.7L212.6,152z"
					/>
			</g>
			<g>
				<path class="st0" d="M222.4,165l2.4-16.6h0.3l6.7,13.6l6.7-13.6h0.3l2.4,16.6h-1.6l-1.6-11.9L232,165h-0.4l-5.9-11.9L224,165
					H222.4z"/>
			</g>
			<g>
				<path class="st0" d="M244.3,148.5h3.3c1.9,0,3.2,0.1,3.8,0.2c0.9,0.2,1.7,0.7,2.3,1.4c0.6,0.7,0.9,1.6,0.9,2.7
					c0,1.1-0.3,2-0.9,2.7c-0.6,0.7-1.4,1.2-2.4,1.4c-0.8,0.2-2.2,0.3-4.2,0.3H246v7.7h-1.7V148.5z M246,150.1v5.6l2.8,0
					c1.1,0,2-0.1,2.5-0.3c0.5-0.2,0.9-0.5,1.2-1c0.3-0.5,0.5-1,0.5-1.5c0-0.6-0.2-1.1-0.5-1.5c-0.3-0.5-0.7-0.8-1.2-1
					c-0.5-0.2-1.3-0.3-2.4-0.3H246z"/>
			</g>
			<g>
				<path class="st0" d="M258,148.5h1.7v10c0,1.2,0,1.9,0.1,2.2c0.1,0.7,0.3,1.2,0.6,1.6c0.3,0.4,0.8,0.8,1.4,1.1
					c0.6,0.3,1.3,0.4,1.9,0.4c0.5,0,1.1-0.1,1.6-0.3c0.5-0.2,0.9-0.6,1.3-1c0.3-0.4,0.6-0.9,0.7-1.5c0.1-0.4,0.2-1.3,0.2-2.6v-10
					h1.7v10c0,1.5-0.1,2.7-0.4,3.6c-0.3,0.9-0.9,1.7-1.7,2.4c-0.9,0.7-1.9,1-3.1,1c-1.3,0-2.5-0.3-3.4-1c-1-0.6-1.6-1.5-1.9-2.5
					c-0.2-0.6-0.3-1.8-0.3-3.5V148.5z"/>
			</g>
			<g>
				<path class="st0" d="M271.4,162l1.4-0.8c1,1.8,2.1,2.7,3.4,2.7c0.6,0,1.1-0.1,1.6-0.4c0.5-0.3,0.9-0.6,1.1-1
					c0.3-0.4,0.4-0.9,0.4-1.4c0-0.6-0.2-1.1-0.6-1.6c-0.5-0.7-1.5-1.6-2.8-2.7c-1.4-1-2.2-1.8-2.6-2.3c-0.6-0.8-0.9-1.6-0.9-2.5
					c0-0.7,0.2-1.4,0.5-2c0.3-0.6,0.8-1.1,1.5-1.4c0.6-0.3,1.3-0.5,2-0.5c0.8,0,1.5,0.2,2.2,0.6c0.7,0.4,1.4,1.1,2.2,2.1l-1.4,1
					c-0.6-0.8-1.2-1.4-1.6-1.6c-0.4-0.3-0.9-0.4-1.4-0.4c-0.7,0-1.2,0.2-1.6,0.6s-0.6,0.9-0.6,1.5c0,0.4,0.1,0.7,0.2,1
					c0.2,0.3,0.4,0.7,0.8,1.1c0.2,0.2,0.9,0.8,2.1,1.7c1.4,1.1,2.4,2,3,2.8c0.5,0.8,0.8,1.7,0.8,2.5c0,1.2-0.5,2.2-1.4,3.1
					c-0.9,0.9-2,1.3-3.3,1.3c-1,0-1.9-0.3-2.7-0.8C272.8,164.1,272.1,163.2,271.4,162z"/>
			</g>
			<g>
				<path class="st0" d="M307,151.3l-1.3,1.2c-0.9-0.9-1.9-1.6-3-2.1c-1.1-0.5-2.2-0.7-3.2-0.7c-1.3,0-2.5,0.3-3.7,1
					c-1.2,0.6-2.1,1.5-2.7,2.6c-0.6,1.1-1,2.2-1,3.5c0,1.2,0.3,2.4,1,3.6c0.7,1.1,1.6,2,2.8,2.6c1.2,0.6,2.5,1,3.9,1
					c1.7,0,3.1-0.5,4.3-1.4c1.2-1,1.9-2.2,2.1-3.7h-5.3v-1.6h7.1c0,2.6-0.8,4.6-2.3,6.1c-1.5,1.5-3.5,2.3-6,2.3
					c-3.1,0-5.5-1-7.3-3.1c-1.4-1.6-2.1-3.5-2.1-5.6c0-1.6,0.4-3,1.2-4.4c0.8-1.4,1.9-2.4,3.2-3.2c1.4-0.8,2.9-1.1,4.7-1.1
					c1.4,0,2.7,0.3,4,0.8C304.6,149.3,305.8,150.1,307,151.3z"/>
			</g>
			<g>
				<path class="st0" d="M311.2,148.5h1.7v10c0,1.2,0,1.9,0.1,2.2c0.1,0.7,0.3,1.2,0.6,1.6c0.3,0.4,0.8,0.8,1.4,1.1
					c0.6,0.3,1.3,0.4,1.9,0.4c0.5,0,1.1-0.1,1.6-0.3c0.5-0.2,0.9-0.6,1.3-1c0.3-0.4,0.6-0.9,0.7-1.5c0.1-0.4,0.2-1.3,0.2-2.6v-10
					h1.7v10c0,1.5-0.1,2.7-0.4,3.6c-0.3,0.9-0.9,1.7-1.7,2.4c-0.9,0.7-1.9,1-3.1,1c-1.3,0-2.5-0.3-3.4-1c-1-0.6-1.6-1.5-1.9-2.5
					c-0.2-0.6-0.3-1.8-0.3-3.5V148.5z"/>
			</g>
			<g>
				<path class="st0" d="M333,148.5l7.7,16.6h-1.8l-2.6-5.5h-7.1l-2.6,5.5h-1.8l7.8-16.6H333z M332.8,152l-2.8,6h5.7L332.8,152z"/>
			</g>
			<g>
				<path class="st0" d="M343.3,165v-16.6h3.4c2.5,0,4.3,0.2,5.4,0.6c1.6,0.6,2.9,1.5,3.8,2.9c0.9,1.4,1.4,3,1.4,5
					c0,1.7-0.4,3.1-1.1,4.4c-0.7,1.3-1.6,2.2-2.8,2.8c-1.1,0.6-2.8,0.9-4.8,0.9H343.3z M344.9,163.5h1.9c2.3,0,3.9-0.1,4.8-0.4
					c1.2-0.4,2.2-1.1,2.9-2.2c0.7-1.1,1.1-2.3,1.1-3.9c0-1.6-0.4-3-1.2-4.1c-0.8-1.1-1.9-1.9-3.2-2.3c-1-0.3-2.7-0.5-5.1-0.5h-1.2
					V163.5z"/>
			</g>
			<g>
				<path class="st0" d="M367.2,148.5l7.7,16.6h-1.8l-2.6-5.5h-7.1l-2.6,5.5H359l7.8-16.6H367.2z M367,152l-2.8,6h5.7L367,152z"/>
			</g>
			<g>
				<path class="st0" d="M377.5,148.5h1.7v15h6.4v1.6h-8V148.5z"/>
			</g>
			<g>
				<path class="st0" d="M394.9,148.5l7.7,16.6h-1.8l-2.6-5.5h-7.1l-2.6,5.5h-1.8l7.8-16.6H394.9z M394.7,152l-2.8,6h5.7L394.7,152z
					"/>
			</g>
			<g>
				<path class="st0" d="M410.7,148.5h1.7v11.2c0,1.7-0.1,2.9-0.4,3.6c-0.3,0.7-0.7,1.2-1.3,1.6c-0.6,0.4-1.4,0.6-2.3,0.6
					c-0.7,0-1.3-0.1-2-0.4c-0.6-0.3-1.4-0.7-2.2-1.4l0.9-1.3c0.9,0.6,1.6,1,2.2,1.3c0.4,0.2,0.7,0.2,1.1,0.2c0.5,0,0.9-0.1,1.3-0.4
					c0.4-0.3,0.7-0.7,0.8-1.1c0.2-0.5,0.2-1.4,0.2-2.7V148.5z"/>
			</g>
			<g>
				<path class="st0" d="M423.1,148.5l7.7,16.6h-1.8l-2.6-5.5h-7.1l-2.6,5.5h-1.8l7.8-16.6H423.1z M422.9,152l-2.8,6h5.7L422.9,152z
					"/>
			</g>
			<g>
				<path class="st0" d="M433.5,148.5h3.3c1.8,0,3.1,0.1,3.7,0.2c1,0.2,1.8,0.7,2.4,1.4c0.6,0.7,0.9,1.7,0.9,2.7
					c0,0.9-0.2,1.7-0.6,2.4c-0.4,0.7-1,1.2-1.8,1.6c-0.8,0.4-1.9,0.5-3.3,0.5l6,7.7h-2.1l-6-7.7h-0.9v7.7h-1.7V148.5z M435.2,150.1
					v5.6l2.9,0c1.1,0,1.9-0.1,2.5-0.3c0.5-0.2,0.9-0.5,1.2-1c0.3-0.5,0.4-1,0.4-1.5c0-0.6-0.2-1.1-0.5-1.5c-0.3-0.5-0.7-0.8-1.2-1
					c-0.5-0.2-1.3-0.3-2.4-0.3H435.2z"/>
			</g>
			<g>
				<path class="st0" d="M454.2,148.5l7.7,16.6h-1.8l-2.6-5.5h-7.1l-2.6,5.5H446l7.8-16.6H454.2z M454,152l-2.8,6h5.7L454,152z"/>
			</g>
			<g>
				<path class="st0" d="M469.5,148.5h3.2l4.2,11.8l4.2-11.8h3.2l-6,16.6h-3L469.5,148.5z"/>
			</g>
			<g>
				<path class="st0" d="M492,148.5h3.2l6.4,16.6h-3.3l-1.3-3.4h-6.8l-1.3,3.4h-3.3L492,148.5z M493.6,152.9l-2.2,5.7h4.4
					L493.6,152.9z"/>
			</g>
			<g>
				<path class="st0" d="M504,148.5h3.2V162h4.6v3H504V148.5z"/>
			</g>
			<g>
				<path class="st0" d="M514.1,148.5h3.2V162h4.6v3h-7.8V148.5z"/>
			</g>
			<g>
				<path class="st0" d="M524.3,148.5h9v3.1h-5.9v3h5.9v3h-5.9v4.4h5.9v3.1h-9V148.5z"/>
			</g>
			<g>
				<path class="st0" d="M543,148.5h3.3c1.8,0,3.1,0.2,3.9,0.5c0.8,0.3,1.4,0.9,1.9,1.6c0.5,0.8,0.7,1.7,0.7,2.7
					c0,1.1-0.3,2-0.8,2.7c-0.5,0.7-1.3,1.3-2.4,1.7l3.9,7.4h-3.4l-3.7-7h-0.3v7H543V148.5z M546.1,154.9h1c1,0,1.7-0.1,2.1-0.4
					c0.4-0.3,0.6-0.7,0.6-1.3c0-0.4-0.1-0.7-0.3-0.9c-0.2-0.3-0.4-0.5-0.8-0.6c-0.3-0.1-0.9-0.2-1.7-0.2h-0.9V154.9z"/>
			</g>
			<g>
				<path class="st0" d="M556.1,148.5h9v3.1h-5.9v3h5.9v3h-5.9v4.4h5.9v3.1h-9V148.5z"/>
			</g>
			<g>
				<path class="st0" d="M573.2,148.5h3.2l6.4,16.6h-3.3l-1.3-3.4h-6.8l-1.3,3.4h-3.3L573.2,148.5z M574.8,152.9l-2.2,5.7h4.4
					L574.8,152.9z"/>
			</g>
			<g>
				<path class="st0" d="M585.2,148.5h3.2V162h4.6v3h-7.8V148.5z"/>
			</g>
		</g>
		<g>
			<g>
				<path class="st0" d="M193,174.8l6.8,14.6h-1.6l-2.3-4.8h-6.3l-2.3,4.8h-1.6l6.9-14.6H193z M192.8,177.9l-2.5,5.3h5L192.8,177.9z
					"/>
			</g>
			<g>
				<path class="st0" d="M202.1,189.4v-14.6h0.3l9.7,11.2v-11.2h1.4v14.6h-0.3l-9.6-11.1v11.1H202.1z"/>
			</g>
			<g>
				<path class="st0" d="M228.7,174.8l6.8,14.6H234l-2.3-4.8h-6.3l-2.3,4.8h-1.6l6.9-14.6H228.7z M228.6,177.9l-2.5,5.3h5
					L228.6,177.9z"/>
			</g>
			<g>
				<path class="st0" d="M251.4,177.5l-1.2,0.9c-0.6-0.8-1.4-1.5-2.3-1.9c-0.9-0.4-1.9-0.6-2.9-0.6c-1.2,0-2.2,0.3-3.2,0.8
					c-1,0.6-1.8,1.3-2.3,2.3c-0.5,0.9-0.8,2-0.8,3.2c0,1.8,0.6,3.3,1.8,4.5c1.2,1.2,2.8,1.8,4.6,1.8c2,0,3.8-0.8,5.1-2.4l1.2,0.9
					c-0.7,0.9-1.6,1.6-2.7,2.1c-1.1,0.5-2.3,0.8-3.6,0.8c-2.6,0-4.6-0.8-6-2.6c-1.2-1.4-1.9-3.2-1.9-5.2c0-2.1,0.7-3.9,2.2-5.4
					c1.5-1.5,3.4-2.2,5.6-2.2c1.4,0,2.6,0.3,3.7,0.8C249.8,175.8,250.7,176.5,251.4,177.5z"/>
			</g>
			<g>
				<path class="st0" d="M267.9,177.5l-1.2,0.9c-0.6-0.8-1.4-1.5-2.3-1.9c-0.9-0.4-1.9-0.6-2.9-0.6c-1.2,0-2.2,0.3-3.2,0.8
					c-1,0.6-1.8,1.3-2.3,2.3c-0.5,0.9-0.8,2-0.8,3.2c0,1.8,0.6,3.3,1.8,4.5c1.2,1.2,2.8,1.8,4.6,1.8c2,0,3.8-0.8,5.1-2.4l1.2,0.9
					c-0.7,0.9-1.6,1.6-2.7,2.1c-1.1,0.5-2.3,0.8-3.6,0.8c-2.6,0-4.6-0.8-6-2.6c-1.2-1.4-1.9-3.2-1.9-5.2c0-2.1,0.7-3.9,2.2-5.4
					c1.5-1.5,3.4-2.2,5.6-2.2c1.4,0,2.6,0.3,3.7,0.8C266.3,175.8,267.2,176.5,267.9,177.5z"/>
			</g>
			<g>
				<path class="st0" d="M270.9,174.8h2.9c1.6,0,2.7,0.1,3.3,0.2c0.9,0.2,1.6,0.6,2.1,1.3c0.5,0.7,0.8,1.5,0.8,2.4
					c0,0.8-0.2,1.5-0.6,2.1c-0.4,0.6-0.9,1.1-1.6,1.4c-0.7,0.3-1.7,0.5-2.9,0.5l5.3,6.8h-1.8l-5.3-6.8h-0.8v6.8h-1.5V174.8z
					 M272.4,176.2v5l2.5,0c1,0,1.7-0.1,2.2-0.3c0.5-0.2,0.8-0.5,1.1-0.9s0.4-0.9,0.4-1.4c0-0.5-0.1-0.9-0.4-1.3
					c-0.3-0.4-0.6-0.7-1-0.9c-0.4-0.2-1.1-0.3-2.1-0.3H272.4z"/>
			</g>
			<g>
				<path class="st0" d="M283.2,174.8h8.4v1.4h-6.9v4.6h6.8v1.4h-6.8v5.7h6.8v1.4h-8.3V174.8z"/>
			</g>
			<g>
				<path class="st0" d="M294.1,189.4v-14.6h3c2.2,0,3.8,0.2,4.8,0.5c1.4,0.5,2.5,1.4,3.3,2.6c0.8,1.2,1.2,2.7,1.2,4.4
					c0,1.5-0.3,2.7-0.9,3.9c-0.6,1.1-1.5,1.9-2.5,2.5c-1,0.5-2.4,0.8-4.2,0.8H294.1z M295.5,188h1.7c2,0,3.4-0.1,4.2-0.4
					c1.1-0.4,2-1,2.6-1.9c0.6-0.9,0.9-2.1,0.9-3.4c0-1.4-0.3-2.6-1-3.6c-0.7-1-1.6-1.7-2.8-2.1c-0.9-0.3-2.4-0.4-4.5-0.4h-1V188z"/>
			</g>
			<g>
				<path class="st0" d="M309,174.8h1.5v14.6H309V174.8z"/>
			</g>
			<g>
				<path class="st0" d="M312.4,176.2v-1.4h8v1.4h-3.3v13.2h-1.5v-13.2H312.4z"/>
			</g>
			<g>
				<path class="st0" d="M322.5,174.8h8.4v1.4H324v4.6h6.9v1.4H324v5.7h6.9v1.4h-8.3V174.8z"/>
			</g>
			<g>
				<path class="st0" d="M333.4,189.4v-14.6h3c2.2,0,3.8,0.2,4.8,0.5c1.4,0.5,2.5,1.4,3.3,2.6c0.8,1.2,1.2,2.7,1.2,4.4
					c0,1.5-0.3,2.7-1,3.9c-0.6,1.1-1.4,1.9-2.5,2.5c-1,0.5-2.4,0.8-4.2,0.8H333.4z M334.8,188h1.7c2,0,3.4-0.1,4.2-0.4
					c1.1-0.4,2-1,2.6-1.9c0.6-0.9,0.9-2.1,0.9-3.4c0-1.4-0.3-2.6-1-3.6c-0.7-1-1.6-1.7-2.9-2.1c-0.9-0.3-2.4-0.4-4.5-0.4h-1V188z"/>
			</g>
			<g>
				<path class="st0" d="M353.9,174.8h1.5v14.6h-1.5V174.8z"/>
			</g>
			<g>
				<path class="st0" d="M358.8,189.4v-14.6h0.3l9.7,11.2v-11.2h1.4v14.6h-0.3l-9.6-11.1v11.1H358.8z"/>
			</g>
			<g>
				<path class="st0" d="M372.3,176.2v-1.4h8v1.4h-3.3v13.2h-1.5v-13.2H372.3z"/>
			</g>
			<g>
				<path class="st0" d="M382.4,174.8h8.4v1.4h-6.9v4.6h6.8v1.4h-6.8v5.7h6.8v1.4h-8.3V174.8z"/>
			</g>
			<g>
				<path class="st0" d="M393.4,174.8h2.9c1.6,0,2.7,0.1,3.3,0.2c0.9,0.2,1.6,0.6,2.1,1.3c0.5,0.7,0.8,1.5,0.8,2.4
					c0,0.8-0.2,1.5-0.6,2.1c-0.4,0.6-0.9,1.1-1.6,1.4c-0.7,0.3-1.7,0.5-2.9,0.5l5.3,6.8H401l-5.3-6.8h-0.8v6.8h-1.5V174.8z
					 M394.9,176.2v5l2.5,0c1,0,1.7-0.1,2.2-0.3c0.5-0.2,0.8-0.5,1.1-0.9c0.3-0.4,0.4-0.9,0.4-1.4c0-0.5-0.1-0.9-0.4-1.3
					c-0.3-0.4-0.6-0.7-1-0.9c-0.4-0.2-1.1-0.3-2.1-0.3H394.9z"/>
			</g>
			<g>
				<path class="st0" d="M405.7,189.4v-14.6h0.3l9.7,11.2v-11.2h1.4v14.6h-0.3l-9.6-11.1v11.1H405.7z"/>
			</g>
			<g>
				<path class="st0" d="M426.7,174.8l6.8,14.6h-1.6l-2.3-4.8h-6.3l-2.3,4.8h-1.6l6.9-14.6H426.7z M426.5,177.9l-2.5,5.3h5
					L426.5,177.9z"/>
			</g>
			<g>
				<path class="st0" d="M432.7,176.2v-1.4h8v1.4h-3.3v13.2h-1.5v-13.2H432.7z"/>
			</g>
			<g>
				<path class="st0" d="M442.6,174.8h1.5v14.6h-1.5V174.8z"/>
			</g>
			<g>
				<path class="st0" d="M454.3,174.4c2.2,0,4.1,0.7,5.6,2.2c1.5,1.5,2.2,3.3,2.2,5.4c0,2.1-0.7,4-2.2,5.4c-1.5,1.5-3.3,2.2-5.4,2.2
					c-2.2,0-4-0.7-5.5-2.2c-1.5-1.5-2.2-3.3-2.2-5.4c0-1.4,0.3-2.7,1-3.9c0.7-1.2,1.6-2.1,2.8-2.8
					C451.7,174.8,452.9,174.4,454.3,174.4z M454.4,175.8c-1.1,0-2.1,0.3-3.1,0.8c-1,0.6-1.7,1.3-2.3,2.3c-0.5,1-0.8,2-0.8,3.2
					c0,1.7,0.6,3.2,1.8,4.4c1.2,1.2,2.7,1.8,4.3,1.8c1.1,0,2.2-0.3,3.1-0.8c1-0.5,1.7-1.3,2.3-2.3c0.5-1,0.8-2,0.8-3.2
					c0-1.2-0.3-2.2-0.8-3.1c-0.5-0.9-1.3-1.7-2.3-2.3C456.5,176.1,455.5,175.8,454.4,175.8z"/>
			</g>
			<g>
				<path class="st0" d="M465,189.4v-14.6h0.3l9.7,11.2v-11.2h1.4v14.6h-0.3l-9.6-11.1v11.1H465z"/>
			</g>
			<g>
				<path class="st0" d="M486,174.8l6.8,14.6h-1.6l-2.3-4.8h-6.3l-2.3,4.8h-1.6l6.9-14.6H486z M485.9,177.9l-2.5,5.3h5L485.9,177.9z
					"/>
			</g>
			<g>
				<path class="st0" d="M495.1,174.8h1.5V188h5.6v1.4h-7.1V174.8z"/>
			</g>
			<g>
				<path class="st0" d="M508.6,186.7l1.2-0.7c0.9,1.6,1.9,2.4,3,2.4c0.5,0,1-0.1,1.4-0.3c0.4-0.2,0.8-0.5,1-0.9
					c0.2-0.4,0.3-0.8,0.3-1.2c0-0.5-0.2-1-0.5-1.4c-0.5-0.6-1.3-1.4-2.5-2.3c-1.2-0.9-2-1.6-2.3-2c-0.5-0.7-0.8-1.4-0.8-2.2
					c0-0.6,0.2-1.2,0.5-1.7c0.3-0.5,0.7-0.9,1.3-1.2c0.6-0.3,1.2-0.5,1.8-0.5c0.7,0,1.3,0.2,1.9,0.5c0.6,0.3,1.2,1,1.9,1.9l-1.2,0.9
					c-0.5-0.7-1-1.2-1.4-1.4c-0.4-0.2-0.8-0.3-1.3-0.3c-0.6,0-1.1,0.2-1.4,0.5c-0.4,0.4-0.6,0.8-0.6,1.3c0,0.3,0.1,0.6,0.2,0.9
					c0.1,0.3,0.4,0.6,0.7,1c0.2,0.2,0.8,0.7,1.9,1.5c1.3,0.9,2.1,1.8,2.6,2.5c0.5,0.7,0.7,1.5,0.7,2.2c0,1.1-0.4,2-1.2,2.8
					c-0.8,0.8-1.8,1.2-2.9,1.2c-0.9,0-1.7-0.2-2.4-0.7C509.9,188.6,509.2,187.8,508.6,186.7z"/>
			</g>
			<g>
				<path class="st0" d="M533.9,177.5l-1.1,0.9c-0.6-0.8-1.4-1.5-2.3-1.9c-0.9-0.4-1.9-0.6-2.9-0.6c-1.2,0-2.2,0.3-3.2,0.8
					c-1,0.6-1.8,1.3-2.3,2.3c-0.5,0.9-0.8,2-0.8,3.2c0,1.8,0.6,3.3,1.8,4.5c1.2,1.2,2.8,1.8,4.6,1.8c2,0,3.8-0.8,5.1-2.4l1.1,0.9
					c-0.7,0.9-1.6,1.6-2.7,2.1c-1.1,0.5-2.3,0.8-3.6,0.8c-2.6,0-4.6-0.8-6-2.6c-1.2-1.4-1.9-3.2-1.9-5.2c0-2.1,0.7-3.9,2.2-5.4
					c1.5-1.5,3.4-2.2,5.6-2.2c1.4,0,2.6,0.3,3.7,0.8C532.3,175.8,533.2,176.5,533.9,177.5z"/>
			</g>
			<g>
				<path class="st0" d="M536.8,174.8h1.5v6.1h7.4v-6.1h1.5v14.6h-1.5v-7h-7.4v7h-1.5V174.8z"/>
			</g>
			<g>
				<path class="st0" d="M557.6,174.4c2.2,0,4.1,0.7,5.6,2.2c1.5,1.5,2.2,3.3,2.2,5.4c0,2.1-0.7,4-2.2,5.4c-1.5,1.5-3.3,2.2-5.4,2.2
					c-2.2,0-4-0.7-5.5-2.2c-1.5-1.5-2.2-3.3-2.2-5.4c0-1.4,0.3-2.7,1-3.9c0.7-1.2,1.6-2.1,2.8-2.8
					C555,174.8,556.3,174.4,557.6,174.4z M557.7,175.8c-1.1,0-2.1,0.3-3.1,0.8c-1,0.6-1.7,1.3-2.3,2.3c-0.5,1-0.8,2-0.8,3.2
					c0,1.7,0.6,3.2,1.8,4.4c1.2,1.2,2.7,1.8,4.3,1.8c1.1,0,2.2-0.3,3.1-0.8c1-0.5,1.7-1.3,2.3-2.3c0.5-1,0.8-2,0.8-3.2
					c0-1.2-0.3-2.2-0.8-3.1c-0.5-0.9-1.3-1.7-2.3-2.3C559.8,176.1,558.8,175.8,557.7,175.8z"/>
			</g>
			<g>
				<path class="st0" d="M575.3,174.4c2.2,0,4.1,0.7,5.6,2.2c1.5,1.5,2.2,3.3,2.2,5.4c0,2.1-0.7,4-2.2,5.4c-1.5,1.5-3.3,2.2-5.4,2.2
					c-2.2,0-4-0.7-5.5-2.2c-1.5-1.5-2.2-3.3-2.2-5.4c0-1.4,0.3-2.7,1-3.9c0.7-1.2,1.6-2.1,2.8-2.8
					C572.7,174.8,573.9,174.4,575.3,174.4z M575.4,175.8c-1.1,0-2.1,0.3-3.1,0.8c-1,0.6-1.7,1.3-2.3,2.3c-0.5,1-0.8,2-0.8,3.2
					c0,1.7,0.6,3.2,1.8,4.4c1.2,1.2,2.7,1.8,4.3,1.8c1.1,0,2.2-0.3,3.1-0.8c1-0.5,1.7-1.3,2.3-2.3c0.5-1,0.8-2,0.8-3.2
					c0-1.2-0.3-2.2-0.8-3.1c-0.5-0.9-1.3-1.7-2.3-2.3C577.5,176.1,576.5,175.8,575.4,175.8z"/>
			</g>
			<g>
				<path class="st0" d="M586,174.8h1.5V188h5.6v1.4H586V174.8z"/>
			</g>
		</g>
		<g>
			<g>
				<path class="st0" d="M567.5,133.2h3.7v-10.4c0-3.7,0.2-6.3,0.5-7.7c0.6-2.2,1.7-4,3.5-5.4c1.7-1.5,3.7-2.2,5.9-2.2
					c1.9,0,3.5,0.5,4.7,1.4c1.2,0.9,2,2.4,2.4,4.2c0.3,1.1,0.4,3.3,0.4,6.6v13.5h3.7v-14.6c0-3.9-0.4-6.7-1.2-8.5
					c-0.8-1.8-2-3.3-3.6-4.4c-1.6-1.1-3.5-1.6-5.7-1.6c-2.1,0-4,0.5-5.8,1.4c-1.8,1-3.4,2.4-4.9,4.4v-5.1h-3.7V133.2z M555.9,111
					c2.2,2.2,3.3,5,3.3,8.1c0,2.1-0.5,4-1.5,5.7c-1,1.8-2.3,3.1-4,4.1s-3.6,1.4-5.6,1.4c-2,0-3.9-0.5-5.6-1.4c-1.7-1-3-2.3-4-4.1
					c-1-1.8-1.5-3.7-1.5-5.7c0-3.2,1.1-5.9,3.3-8.1c2.2-2.2,4.8-3.4,7.8-3.4C551.1,107.6,553.7,108.7,555.9,111 M537.2,108.8
					c-2.6,2.9-3.9,6.3-3.9,10.2c0,4,1.4,7.4,4.1,10.4c2.8,3,6.3,4.5,10.7,4.5c4.3,0,7.9-1.5,10.7-4.5c2.8-3,4.1-6.4,4.1-10.4
					c0-4-1.3-7.4-3.9-10.3c-2.9-3.2-6.5-4.8-10.9-4.8C543.7,104.1,540,105.6,537.2,108.8 M522.4,104.1c-2.2,0-4.1,0.7-5.6,2.1
					c-1.5,1.4-2.2,3.2-2.2,5.4c0,1.7,0.5,3.1,1.4,4.4c0.9,1.3,2.7,2.6,5.2,3.9c2.4,1.2,3.9,2.2,4.6,3c0.7,0.8,1,1.7,1,2.8
					c0,1.3-0.5,2.4-1.5,3.3c-1,0.9-2.3,1.4-3.7,1.4c-2.1,0-4.1-1.1-5.9-3.2l-2.3,2.6c1,1.3,2.2,2.2,3.7,3c1.5,0.7,3.1,1.1,4.7,1.1
					c2.5,0,4.5-0.8,6.1-2.4c1.6-1.6,2.5-3.6,2.5-5.9c0-1.7-0.5-3.1-1.4-4.5c-1-1.3-2.8-2.7-5.5-4.1c-2.2-1.1-3.7-2.1-4.4-3
					c-0.7-0.8-1-1.7-1-2.6c0-1,0.4-2,1.3-2.7c0.8-0.8,1.9-1.2,3-1.2c1.9,0,3.8,0.9,5.7,2.8l2.3-2.4
					C527.6,105.3,525,104.1,522.4,104.1 M499.1,133.2h3.7v-9.6c0-4.9,0.2-8.2,0.7-9.8c0.6-2.1,1.5-3.7,2.6-4.7s2.3-1.5,3.5-1.5
					c0.5,0,1.2,0.2,1.9,0.5l1.9-3.1c-1.1-0.6-2.2-1-3.2-1c-1.3,0-2.6,0.4-3.9,1.2c-1.2,0.8-2.4,2-3.5,3.7v-4.2h-3.7V133.2z
					 M469.5,116.1c0.7-2.6,1.9-4.6,3.3-5.9c2-1.8,4.4-2.7,7.2-2.7c1.7,0,3.3,0.4,4.8,1.1c1.5,0.7,2.8,1.7,3.7,2.8
					c0.9,1.2,1.6,2.7,2.1,4.7H469.5z M487.6,127.8c-1,0.8-2.1,1.5-3.5,2c-1.4,0.5-2.8,0.8-4.2,0.8c-3,0-5.5-1.1-7.6-3.2
					c-2-2.1-3.1-4.8-3.2-8.1h25.6c0-3.9-1.1-7.1-3.1-9.7c-2.9-3.7-6.8-5.5-11.6-5.5c-4.7,0-8.5,1.8-11.3,5.4c-2.2,2.8-3.3,6-3.3,9.6
					c0,3.8,1.3,7.3,3.9,10.3c2.6,3,6.2,4.6,10.9,4.6c2.1,0,4-0.3,5.6-1c1.7-0.6,3.1-1.6,4.5-2.8c1.3-1.2,2.5-2.8,3.5-4.8l-3.1-1.6
					C489.6,125.6,488.5,127,487.6,127.8 M459.6,93.1c-1.3,0-2.4,0.3-3.3,0.8c-0.9,0.5-1.5,1.2-1.9,2.1c-0.4,0.9-0.6,2.3-0.6,4.4v4.4
					h-3.7v3.2h3.7v25.2h3.7l0-25.2h5.9v-3.2h-5.9l0-3.8c0-1.6,0.1-2.6,0.2-3c0.1-0.4,0.4-0.7,0.9-1c0.5-0.3,1.1-0.4,1.8-0.4
					c1,0,2.1,0.3,3.4,0.9v-3.6C462.2,93.3,460.8,93.1,459.6,93.1 M442.6,93.1c-1.3,0-2.4,0.3-3.3,0.8c-0.9,0.5-1.5,1.2-1.9,2.1
					c-0.4,0.9-0.6,2.3-0.6,4.4v4.4h-3.7v3.2h3.7v25.2h3.7l0-25.2h5.9v-3.2h-5.9l0-3.8c0-1.6,0.1-2.6,0.2-3c0.1-0.4,0.4-0.7,0.9-1
					c0.5-0.3,1.1-0.4,1.8-0.4c1,0,2.1,0.3,3.4,0.9v-3.6C445.2,93.3,443.8,93.1,442.6,93.1 M406.9,116.1c0.7-2.6,1.9-4.6,3.3-5.9
					c2-1.8,4.4-2.7,7.2-2.7c1.7,0,3.3,0.4,4.8,1.1c1.5,0.7,2.8,1.7,3.7,2.8c0.9,1.2,1.6,2.7,2.1,4.7H406.9z M425,127.8
					c-1,0.8-2.1,1.5-3.5,2c-1.4,0.5-2.8,0.8-4.2,0.8c-3,0-5.5-1.1-7.6-3.2c-2-2.1-3.1-4.8-3.2-8.1h25.6c0-3.9-1.1-7.1-3.1-9.7
					c-2.9-3.7-6.8-5.5-11.6-5.5c-4.7,0-8.5,1.8-11.3,5.4c-2.2,2.8-3.3,6-3.3,9.6c0,3.8,1.3,7.3,3.9,10.3c2.6,3,6.2,4.6,10.9,4.6
					c2.1,0,4-0.3,5.6-1c1.7-0.6,3.1-1.6,4.5-2.8c1.3-1.2,2.5-2.8,3.5-4.8l-3.1-1.6C427,125.6,425.9,127,425,127.8 M393.7,120.6
					c0,3.1-0.2,5.3-0.5,6.4c-0.4,1.1-1,2-1.9,2.6c-0.9,0.7-1.9,1-3,1c-0.8,0-1.7-0.2-2.6-0.6c-1.3-0.6-3-1.6-5-3l-2,3.1
					c1.8,1.5,3.5,2.6,5,3.2c1.5,0.6,3,0.9,4.6,0.9c2.1,0,3.8-0.5,5.2-1.4c1.4-0.9,2.5-2.2,3.1-3.7c0.6-1.6,0.9-4.3,0.9-8.3V94.8
					h-3.8V120.6z M355.7,104.1c-2.2,0-4.1,0.7-5.6,2.1c-1.5,1.4-2.2,3.2-2.2,5.4c0,1.7,0.5,3.1,1.4,4.4c0.9,1.3,2.7,2.6,5.2,3.9
					c2.4,1.2,3.9,2.2,4.6,3c0.7,0.8,1,1.7,1,2.8c0,1.3-0.5,2.4-1.5,3.3c-1,0.9-2.3,1.4-3.7,1.4c-2.1,0-4.1-1.1-5.9-3.2l-2.3,2.6
					c1,1.3,2.2,2.2,3.7,3c1.5,0.7,3.1,1.1,4.7,1.1c2.5,0,4.5-0.8,6.1-2.4c1.6-1.6,2.5-3.6,2.5-5.9c0-1.7-0.5-3.1-1.4-4.5
					c-1-1.3-2.8-2.7-5.5-4.1c-2.2-1.1-3.7-2.1-4.4-3c-0.7-0.8-1-1.7-1-2.6c0-1,0.4-2,1.3-2.7c0.8-0.8,1.9-1.2,3-1.2
					c1.9,0,3.8,0.9,5.7,2.8l2.3-2.4C360.9,105.3,358.3,104.1,355.7,104.1 M336.6,110.9c2.2,2.2,3.2,5,3.2,8.2c0,2.2-0.5,4.1-1.4,5.8
					c-1,1.7-2.3,3.1-4.1,4.1c-1.8,1-3.7,1.5-5.7,1.5c-2,0-3.8-0.5-5.6-1.5c-1.7-1-3.1-2.4-4.1-4.3c-1-1.8-1.5-3.7-1.5-5.7
					c0-2,0.5-3.9,1.5-5.7c1-1.8,2.4-3.2,4.1-4.2c1.7-1,3.6-1.5,5.6-1.5C331.7,107.6,334.4,108.7,336.6,110.9 M339.6,104.8v5.2
					c-1.4-2-3.1-3.5-5-4.5c-1.9-1-4-1.5-6.3-1.5c-4,0-7.5,1.5-10.4,4.4c-2.9,2.9-4.3,6.4-4.3,10.5c0,4.2,1.4,7.7,4.3,10.6
					c2.8,2.9,6.3,4.4,10.3,4.4c2.3,0,4.3-0.5,6.3-1.4c1.9-0.9,3.6-2.3,5.2-4.2v4.9h3.6v-28.4H339.6z M266.9,133.2h3.7v-12
					c0-3.6,0.4-6.2,1.1-7.9c0.7-1.7,1.8-3.1,3.3-4.1c1.5-1,3.1-1.5,4.7-1.5c1.5,0,2.7,0.4,3.8,1.1c1.1,0.7,1.8,1.7,2.2,2.9
					c0.4,1.2,0.6,3.6,0.6,7v14.5h3.7v-11.1c0-4.1,0.3-7,1-8.7c0.7-1.7,1.7-3.1,3.2-4.2c1.5-1,3.1-1.6,4.9-1.6c1.5,0,2.7,0.3,3.8,1
					c1,0.7,1.8,1.6,2.2,2.8c0.4,1.1,0.6,3.2,0.6,6.3v15.5h3.7v-15.5c0-3.6-0.4-6.2-1.1-8c-0.7-1.8-1.8-3.2-3.3-4.2
					c-1.5-1-3.2-1.5-5.2-1.5c-2.1,0-4.1,0.6-5.9,1.7c-1.8,1.2-3.3,2.8-4.6,5.1c-0.6-1.7-1.3-3-2-3.9c-0.8-0.9-1.8-1.6-3-2.2
					c-1.2-0.5-2.5-0.8-3.9-0.8c-2,0-4,0.6-5.8,1.7c-1.3,0.8-2.6,2.2-3.9,4v-4.9h-3.7V133.2z M255.3,111c2.2,2.2,3.3,5,3.3,8.1
					c0,2.1-0.5,4-1.5,5.7c-1,1.8-2.3,3.1-4,4.1c-1.7,1-3.6,1.4-5.6,1.4c-2,0-3.9-0.5-5.6-1.4c-1.7-1-3-2.3-4-4.1
					c-1-1.8-1.5-3.7-1.5-5.7c0-3.2,1.1-5.9,3.3-8.1c2.2-2.2,4.8-3.4,7.8-3.4C250.5,107.6,253.1,108.7,255.3,111 M236.5,108.8
					c-2.6,2.9-3.9,6.3-3.9,10.2c0,4,1.4,7.4,4.1,10.4c2.8,3,6.3,4.5,10.7,4.5c4.3,0,7.9-1.5,10.7-4.5c2.8-3,4.1-6.4,4.1-10.4
					c0-4-1.3-7.4-3.9-10.3c-2.9-3.2-6.5-4.8-10.9-4.8C243.1,104.1,239.4,105.6,236.5,108.8 M203.5,133.2h3.7v-10.4
					c0-3.8,0.2-6.3,0.5-7.7c0.6-2.2,1.7-4,3.5-5.4c1.7-1.5,3.7-2.2,5.9-2.2c1.9,0,3.5,0.5,4.7,1.4c1.2,0.9,2,2.4,2.5,4.2
					c0.3,1.1,0.4,3.3,0.4,6.6v13.5h3.7v-14.6c0-3.9-0.4-6.7-1.2-8.6c-0.8-1.8-2-3.3-3.6-4.3c-1.6-1.1-3.5-1.6-5.7-1.6
					c-2.1,0-4,0.5-5.8,1.4c-1.8,1-3.4,2.4-4.9,4.4V93.8h-3.7V133.2z M188.3,98.5v34.6h3.9V98.5h8.6v-3.8h-21v3.8H188.3z"/>
			</g>
			<g>
				<path class="st0" d="M388.3,134.3c-1.6,0-3.1-0.3-4.6-0.9c-1.5-0.6-3.2-1.7-5-3.2l-0.1-0.1l2.2-3.3l0.1,0.1c2,1.4,3.7,2.4,5,3
					c2,0.9,3.9,0.7,5.4-0.4c0.9-0.6,1.5-1.5,1.8-2.6c0.4-1.1,0.5-3.2,0.5-6.3V94.6h4.1v26.1c0,4-0.3,6.8-0.9,8.4
					c-0.6,1.6-1.7,2.9-3.2,3.8C392.2,133.8,390.4,134.3,388.3,134.3z M378.9,130c1.8,1.5,3.4,2.5,4.9,3.1c1.5,0.6,3,0.9,4.5,0.9
					c2,0,3.8-0.5,5.2-1.4c1.4-0.9,2.4-2.1,3-3.7c0.6-1.5,0.9-4.3,0.9-8.3V94.9h-3.5v25.6c0,3.2-0.2,5.3-0.5,6.4
					c-0.4,1.1-1,2-1.9,2.7c-1.6,1.2-3.7,1.3-5.7,0.4c-1.3-0.6-2.9-1.5-4.9-2.9L378.9,130z M548.1,134.1c-4.4,0-8-1.5-10.8-4.5
					c-2.8-3-4.2-6.5-4.2-10.5c0-4,1.3-7.4,4-10.3c2.9-3.2,6.6-4.8,11-4.8c4.4,0,8.1,1.6,11,4.8c2.6,2.9,4,6.4,4,10.4
					c0,4-1.4,7.5-4.2,10.5C556.1,132.6,552.4,134.1,548.1,134.1z M548.1,104.2c-4.3,0-8,1.6-10.8,4.7c-2.6,2.8-3.9,6.3-3.9,10.1
					c0,3.9,1.4,7.4,4.1,10.3c2.7,2.9,6.3,4.4,10.6,4.4c4.3,0,7.8-1.5,10.5-4.4c2.7-2.9,4.1-6.4,4.1-10.3c0-3.9-1.3-7.3-3.9-10.2
					C556,105.8,552.4,104.2,548.1,104.2z M521.7,134.1c-1.7,0-3.3-0.4-4.8-1.1c-1.5-0.7-2.8-1.7-3.8-3l-0.1-0.1l2.5-2.8l0.1,0.1
					c1.8,2.1,3.8,3.1,5.8,3.1c1.4,0,2.6-0.5,3.6-1.4c1-0.9,1.5-2,1.5-3.2c0-1-0.3-1.9-1-2.7c-0.7-0.8-2.2-1.8-4.6-3
					c-2.6-1.3-4.4-2.7-5.3-4c-0.9-1.3-1.4-2.8-1.4-4.5c0-2.2,0.8-4,2.3-5.5c1.5-1.5,3.4-2.2,5.7-2.2c2.6,0,5.3,1.3,8,3.9l0.1,0.1
					l-2.6,2.6l-0.1-0.1c-1.9-1.9-3.8-2.8-5.6-2.8c-1.1,0-2.1,0.4-2.9,1.1c-0.8,0.7-1.2,1.6-1.2,2.6c0,0.9,0.3,1.7,1,2.5
					c0.7,0.8,2.1,1.8,4.3,3c2.7,1.4,4.6,2.8,5.6,4.1c1,1.3,1.5,2.9,1.5,4.6c0,2.4-0.8,4.4-2.5,6
					C526.3,133.2,524.2,134.1,521.7,134.1z M513.5,129.9c0.9,1.2,2.1,2.1,3.6,2.8c1.5,0.7,3,1.1,4.6,1.1c2.4,0,4.4-0.8,6-2.4
					c1.6-1.6,2.4-3.5,2.4-5.8c0-1.6-0.5-3.1-1.4-4.4c-1-1.3-2.8-2.6-5.5-4c-2.2-1.2-3.7-2.2-4.4-3c-0.7-0.9-1.1-1.8-1.1-2.7
					c0-1.1,0.4-2,1.3-2.9c0.9-0.8,1.9-1.2,3.2-1.2c1.9,0,3.8,0.9,5.7,2.8l2.1-2.2c-2.6-2.4-5.2-3.7-7.7-3.7c-2.2,0-4,0.7-5.5,2.1
					c-1.4,1.4-2.2,3.2-2.2,5.3c0,1.6,0.5,3.1,1.4,4.3c0.9,1.3,2.6,2.6,5.2,3.9c2.4,1.2,4,2.2,4.7,3.1c0.7,0.8,1.1,1.8,1.1,2.9
					c0,1.3-0.5,2.5-1.6,3.4c-1.1,1-2.3,1.5-3.8,1.5c-2.1,0-4.1-1-5.9-3.1L513.5,129.9z M480.2,134.1c-4.7,0-8.4-1.6-11-4.6
					c-2.6-3.1-4-6.5-4-10.4c0-3.6,1.1-6.9,3.4-9.7c2.8-3.6,6.7-5.4,11.4-5.4c4.9,0,8.8,1.9,11.7,5.6c2.1,2.6,3.1,5.9,3.2,9.8l0,0.2
					h-25.6c0.1,3.2,1.1,5.8,3.1,7.9c2,2.1,4.5,3.1,7.4,3.1c1.4,0,2.8-0.3,4.2-0.7c1.3-0.5,2.5-1.2,3.4-2c0.9-0.8,2-2.2,3.1-4
					l0.1-0.1l3.3,1.8l-0.1,0.1c-1,2-2.2,3.6-3.5,4.8c-1.3,1.2-2.9,2.2-4.5,2.8C484.2,133.7,482.3,134.1,480.2,134.1z M480,104.2
					c-4.6,0-8.4,1.8-11.1,5.3c-2.2,2.8-3.3,6-3.3,9.5c0,3.8,1.3,7.2,3.9,10.2c2.6,3,6.2,4.5,10.8,4.5c2.1,0,3.9-0.3,5.6-0.9
					c1.6-0.6,3.1-1.6,4.4-2.8c1.3-1.2,2.4-2.7,3.4-4.6l-2.8-1.5c-1.1,1.8-2.1,3.1-3.1,3.9c-1,0.8-2.2,1.5-3.5,2
					c-1.4,0.5-2.8,0.8-4.3,0.8c-3,0-5.6-1.1-7.7-3.2c-2.1-2.1-3.1-4.9-3.2-8.2l0-0.2h25.6c-0.1-3.8-1.1-6.9-3.1-9.5
					C488.6,106,484.7,104.2,480,104.2z M417.6,134.1c-4.7,0-8.4-1.6-11-4.6c-2.6-3.1-4-6.5-4-10.4c0-3.6,1.1-6.9,3.4-9.7
					c2.8-3.6,6.7-5.4,11.4-5.4c4.9,0,8.8,1.9,11.7,5.6c2.1,2.6,3.1,5.9,3.2,9.8l0,0.2h-25.6c0.1,3.2,1.1,5.8,3.1,7.9
					c2,2.1,4.5,3.1,7.4,3.1c1.4,0,2.8-0.3,4.2-0.7c1.3-0.5,2.5-1.2,3.4-2c0.9-0.8,2-2.2,3.1-4l0.1-0.1l3.3,1.8l-0.1,0.1
					c-1,2-2.2,3.6-3.5,4.8c-1.3,1.2-2.9,2.2-4.5,2.8C421.6,133.7,419.7,134.1,417.6,134.1z M417.4,104.2c-4.6,0-8.4,1.8-11.1,5.3
					c-2.2,2.8-3.3,6-3.3,9.5c0,3.8,1.3,7.2,3.9,10.2c2.6,3,6.2,4.5,10.8,4.5c2.1,0,3.9-0.3,5.6-0.9c1.6-0.6,3.1-1.6,4.4-2.8
					c1.3-1.2,2.4-2.7,3.4-4.6l-2.8-1.5c-1.1,1.8-2.1,3.1-3.1,3.9c-1,0.8-2.2,1.5-3.5,2c-1.4,0.5-2.8,0.8-4.3,0.8
					c-3,0-5.6-1.1-7.7-3.2c-2.1-2.1-3.1-4.9-3.2-8.2l0-0.2H432c-0.1-3.8-1.1-6.9-3.1-9.5C426,106,422.1,104.2,417.4,104.2z
					 M355,134.1c-1.7,0-3.3-0.4-4.8-1.1c-1.5-0.7-2.8-1.7-3.8-3l-0.1-0.1l2.5-2.8l0.1,0.1c1.8,2.1,3.8,3.1,5.8,3.1
					c1.4,0,2.6-0.5,3.6-1.4c1-0.9,1.5-2,1.5-3.2c0-1-0.3-1.9-1-2.7c-0.7-0.8-2.2-1.8-4.6-3c-2.6-1.3-4.4-2.7-5.3-4
					c-0.9-1.3-1.4-2.8-1.4-4.5c0-2.2,0.8-4,2.3-5.5c1.5-1.5,3.4-2.2,5.7-2.2c2.6,0,5.3,1.3,8,3.9l0.1,0.1l-2.6,2.6l-0.1-0.1
					c-1.9-1.9-3.8-2.8-5.6-2.8c-1.1,0-2.1,0.4-2.9,1.1c-0.8,0.7-1.2,1.6-1.2,2.6c0,0.9,0.3,1.7,1,2.5c0.7,0.8,2.1,1.8,4.3,3
					c2.7,1.4,4.6,2.8,5.6,4.1c1,1.3,1.5,2.9,1.5,4.6c0,2.4-0.8,4.4-2.5,6C359.6,133.2,357.5,134.1,355,134.1z M346.8,129.9
					c0.9,1.2,2.1,2.1,3.6,2.8c1.5,0.7,3,1.1,4.6,1.1c2.4,0,4.4-0.8,6-2.4c1.6-1.6,2.4-3.5,2.4-5.8c0-1.6-0.5-3.1-1.4-4.4
					c-1-1.3-2.8-2.6-5.5-4c-2.2-1.2-3.7-2.2-4.4-3c-0.7-0.9-1.1-1.8-1.1-2.7c0-1.1,0.4-2,1.3-2.9c0.9-0.8,1.9-1.2,3.2-1.2
					c1.9,0,3.8,0.9,5.7,2.8l2.1-2.2c-2.6-2.4-5.2-3.7-7.7-3.7c-2.2,0-4,0.7-5.5,2.1c-1.4,1.4-2.2,3.2-2.2,5.3c0,1.6,0.5,3.1,1.4,4.3
					c0.9,1.3,2.6,2.6,5.2,3.9c2.4,1.2,4,2.2,4.7,3.1c0.7,0.8,1.1,1.8,1.1,2.9c0,1.3-0.5,2.5-1.6,3.4c-1.1,1-2.3,1.5-3.8,1.5
					c-2.1,0-4.1-1-5.9-3.1L346.8,129.9z M328.2,134.1c-4,0-7.5-1.5-10.4-4.4c-2.9-2.9-4.3-6.5-4.3-10.7c0-4.1,1.5-7.7,4.4-10.6
					c2.9-2.9,6.4-4.4,10.5-4.4c2.3,0,4.5,0.5,6.4,1.5c1.8,0.9,3.4,2.3,4.7,4.1v-4.9h3.9v28.7h-3.9v-4.6c-1.5,1.7-3.1,3-4.9,3.9
					C332.6,133.6,330.5,134.1,328.2,134.1z M328.3,104.2c-4,0-7.4,1.5-10.3,4.3c-2.8,2.9-4.3,6.4-4.3,10.4c0,4.1,1.4,7.7,4.2,10.5
					c2.8,2.9,6.2,4.3,10.2,4.3c2.2,0,4.3-0.5,6.2-1.4c1.9-0.9,3.6-2.3,5.1-4.2l0.3-0.3v5.2h3.3v-28.1h-3.3v5.5l-0.3-0.4
					c-1.4-2-3.1-3.4-4.9-4.4C332.7,104.7,330.6,104.2,328.3,104.2z M247.5,134.1c-4.4,0-8-1.5-10.8-4.5c-2.8-3-4.2-6.5-4.2-10.5
					c0-4,1.3-7.4,4-10.3c2.9-3.2,6.6-4.8,11-4.8c4.4,0,8.1,1.6,11,4.8c2.6,2.9,4,6.4,4,10.4c0,4-1.4,7.5-4.2,10.5
					C255.4,132.6,251.8,134.1,247.5,134.1z M247.5,104.2c-4.3,0-8,1.6-10.8,4.7c-2.6,2.8-3.9,6.3-3.9,10.1c0,3.9,1.4,7.4,4.1,10.3
					c2.7,2.9,6.3,4.4,10.6,4.4c4.3,0,7.8-1.5,10.5-4.4c2.7-2.9,4.1-6.4,4.1-10.3c0-3.9-1.3-7.3-3.9-10.2
					C255.4,105.8,251.8,104.2,247.5,104.2z M592.4,133.3h-4v-13.7c0-3.2-0.1-5.4-0.4-6.5c-0.4-1.8-1.2-3.2-2.4-4.2
					c-1.2-0.9-2.7-1.4-4.6-1.4c-2.2,0-4.1,0.7-5.8,2.2c-1.7,1.4-2.9,3.2-3.4,5.4c-0.3,1.4-0.5,4-0.5,7.7v10.6h-4v-28.7h4v4.8
					c1.4-1.8,3-3.1,4.6-4.1c1.8-1,3.8-1.5,5.9-1.5c2.1,0,4.1,0.6,5.7,1.6c1.7,1.1,2.9,2.6,3.7,4.4c0.8,1.8,1.2,4.7,1.2,8.6V133.3z
					 M588.8,133h3.3v-14.5c0-3.8-0.4-6.7-1.2-8.5c-0.8-1.8-2-3.2-3.6-4.3c-1.6-1.1-3.5-1.6-5.6-1.6c-2.1,0-4,0.5-5.7,1.4
					c-1.7,1-3.4,2.4-4.8,4.3l-0.3,0.4v-5.4h-3.3V133h3.3v-10.3c0-3.7,0.2-6.4,0.5-7.8c0.6-2.2,1.7-4,3.5-5.5c1.8-1.5,3.8-2.2,6-2.2
					c2,0,3.6,0.5,4.8,1.5c1.2,1,2.1,2.4,2.5,4.3c0.3,1.1,0.4,3.3,0.4,6.6V133z M503,133.3h-4v-28.7h4v3.8c1-1.4,2.1-2.6,3.3-3.3
					c1.3-0.8,2.6-1.2,3.9-1.2c1,0,2.1,0.3,3.3,1l0.1,0.1l-2.1,3.3l-0.1-0.1c-0.7-0.3-1.4-0.5-1.9-0.5c-1.2,0-2.3,0.5-3.4,1.5
					c-1.1,1-2,2.5-2.5,4.6c-0.4,1.6-0.7,4.9-0.7,9.8V133.3z M499.2,133h3.4v-9.5c0-4.9,0.2-8.2,0.7-9.9c0.6-2.1,1.5-3.7,2.6-4.7
					c1.2-1,2.4-1.5,3.6-1.5c0.5,0,1.1,0.2,1.9,0.5l1.8-2.8c-1.1-0.6-2.1-0.9-3-0.9c-1.3,0-2.6,0.4-3.8,1.2c-1.2,0.8-2.4,2-3.5,3.6
					l-0.3,0.4v-4.5h-3.4V133z M457.7,133.3h-4v-25.2H450v-3.5h3.7v-4.3c0-2.1,0.2-3.5,0.6-4.4c0.4-0.9,1-1.6,2-2.2
					c0.9-0.5,2-0.8,3.3-0.8c1.2,0,2.6,0.2,4.3,0.7l0.1,0v3.9l-0.2-0.1c-2.3-1-4-1.1-5.1-0.4c-0.4,0.3-0.7,0.6-0.8,0.9
					c-0.1,0.4-0.2,1.3-0.2,2.9l0,3.7h5.9v3.5h-5.9L457.7,133.3z M454,133h3.3l0-25.2h5.9v-2.9h-5.9l0-4c0-1.6,0.1-2.6,0.2-3
					c0.1-0.4,0.5-0.8,1-1.1c1.1-0.7,2.9-0.6,5.1,0.3v-3.2c-1.6-0.5-3-0.7-4.1-0.7c-1.2,0-2.3,0.3-3.2,0.8c-0.9,0.5-1.5,1.2-1.8,2
					c-0.4,0.8-0.6,2.3-0.6,4.3v4.6h-3.7v2.9h3.7V133z M440.7,133.3h-4v-25.2H433v-3.5h3.7v-4.3c0-2.1,0.2-3.5,0.6-4.4
					c0.4-0.9,1-1.6,2-2.2c0.9-0.5,2-0.8,3.3-0.8c1.2,0,2.6,0.2,4.3,0.7l0.1,0v3.9l-0.2-0.1c-2.3-1-4-1.1-5.1-0.4
					c-0.4,0.3-0.7,0.6-0.8,0.9c-0.1,0.4-0.2,1.3-0.2,2.9l0,3.7h5.9v3.5h-5.9L440.7,133.3z M437.1,133h3.3l0-25.2h5.9v-2.9h-5.9l0-4
					c0-1.6,0.1-2.6,0.2-3c0.1-0.4,0.5-0.8,1-1.1c1.1-0.7,2.9-0.6,5.1,0.3v-3.2c-1.6-0.5-3-0.7-4.1-0.7c-1.2,0-2.3,0.3-3.2,0.8
					c-0.9,0.5-1.5,1.2-1.8,2c-0.4,0.8-0.5,2.3-0.5,4.3v4.6h-3.7v2.9h3.7V133z M309.5,133.3h-4v-15.7c0-3-0.2-5.1-0.6-6.2
					c-0.4-1.1-1.1-2-2.2-2.7c-1-0.7-2.3-1-3.7-1c-1.7,0-3.3,0.5-4.8,1.5c-1.4,1-2.5,2.4-3.2,4.1c-0.7,1.7-1,4.6-1,8.7v11.3h-4v-14.7
					c0-3.4-0.2-5.7-0.6-6.9c-0.4-1.2-1.1-2.2-2.2-2.9c-1-0.7-2.3-1.1-3.7-1.1c-1.6,0-3.2,0.5-4.7,1.5c-1.4,1-2.5,2.4-3.2,4
					c-0.7,1.7-1,4.3-1,7.9v12.2h-4v-28.7h4v4.6c1.2-1.6,2.4-2.8,3.7-3.6c1.9-1.1,3.9-1.7,5.9-1.7c1.4,0,2.7,0.3,4,0.8
					c1.3,0.5,2.3,1.3,3.1,2.2c0.7,0.8,1.4,2.1,2,3.6c1.2-2.1,2.7-3.7,4.4-4.8c1.8-1.2,3.8-1.8,6-1.8c2,0,3.8,0.5,5.3,1.5
					c1.5,1,2.7,2.4,3.4,4.2c0.7,1.8,1.1,4.5,1.1,8V133.3z M305.7,133h3.4v-15.4c0-3.5-0.4-6.2-1.1-7.9c-0.7-1.7-1.8-3.1-3.3-4.1
					c-1.5-1-3.2-1.5-5.1-1.5c-2.1,0-4,0.6-5.8,1.7c-1.8,1.1-3.3,2.8-4.5,5l-0.2,0.3l-0.1-0.3c-0.6-1.6-1.2-2.9-2-3.8
					c-0.8-0.9-1.8-1.6-3-2.1c-1.2-0.5-2.5-0.8-3.9-0.8c-2,0-3.9,0.6-5.8,1.6c-1.3,0.8-2.6,2.1-3.9,3.9l-0.3,0.4v-5.2H267V133h3.3
					v-11.9c0-3.6,0.4-6.2,1.1-8c0.7-1.7,1.8-3.2,3.3-4.2c1.5-1,3.1-1.6,4.8-1.6c1.5,0,2.8,0.4,3.9,1.1c1.1,0.8,1.9,1.8,2.3,3
					c0.4,1.2,0.6,3.6,0.6,7V133h3.3v-11c0-4.1,0.3-7,1-8.8c0.7-1.8,1.8-3.2,3.3-4.2c1.5-1.1,3.1-1.6,4.9-1.6c1.5,0,2.8,0.4,3.8,1.1
					c1.1,0.7,1.8,1.7,2.3,2.8c0.4,1.2,0.7,3.3,0.7,6.3V133z M228.5,133.3h-4v-13.7c0-3.2-0.1-5.4-0.4-6.5c-0.4-1.8-1.3-3.2-2.4-4.2
					c-1.2-0.9-2.7-1.4-4.6-1.4c-2.2,0-4.1,0.7-5.8,2.2c-1.7,1.4-2.9,3.2-3.4,5.4c-0.3,1.4-0.5,4-0.5,7.7v10.6h-4V93.7h4v15.8
					c1.4-1.8,3-3.1,4.7-4.1c1.8-1,3.8-1.5,5.8-1.5c2.1,0,4.1,0.6,5.7,1.6c1.7,1.1,2.9,2.6,3.7,4.4c0.8,1.8,1.2,4.7,1.2,8.6V133.3z
					 M224.8,133h3.3v-14.5c0-3.8-0.4-6.7-1.2-8.5c-0.8-1.8-2-3.2-3.6-4.3c-1.6-1.1-3.5-1.6-5.6-1.6c-2,0-3.9,0.5-5.7,1.4
					c-1.7,1-3.4,2.4-4.8,4.3l-0.3,0.4V94h-3.3V133h3.3v-10.3c0-3.8,0.2-6.4,0.5-7.8c0.6-2.2,1.7-4,3.5-5.5c1.8-1.5,3.8-2.2,6-2.2
					c2,0,3.6,0.5,4.8,1.5c1.2,1,2.1,2.4,2.5,4.3c0.3,1.1,0.4,3.3,0.4,6.6V133z M192.3,133.3h-4.2V98.7h-8.6v-4.1h21.3v4.1h-8.6
					V133.3z M188.4,133h3.6V98.4h8.6v-3.5h-20.7v3.5h8.6V133z M328.6,130.7c-2,0-3.9-0.5-5.6-1.5c-1.7-1-3.2-2.5-4.2-4.3
					c-1-1.8-1.6-3.8-1.6-5.8c0-2,0.5-4,1.5-5.8c1-1.8,2.4-3.3,4.2-4.3c1.7-1,3.7-1.5,5.7-1.5c3.2,0,5.9,1.1,8.1,3.4
					c2.2,2.2,3.3,5,3.3,8.3c0,2.2-0.5,4.2-1.5,5.9c-1,1.7-2.4,3.1-4.2,4.2C332.5,130.2,330.6,130.7,328.6,130.7z M328.6,107.7
					c-2,0-3.9,0.5-5.6,1.5c-1.7,1-3.1,2.4-4.1,4.2c-1,1.8-1.5,3.7-1.5,5.7c0,2,0.5,3.9,1.5,5.7c1,1.8,2.4,3.2,4.1,4.2
					c1.7,1,3.5,1.5,5.5,1.5c2,0,3.8-0.5,5.6-1.5c1.8-1,3.1-2.3,4.1-4c0.9-1.7,1.4-3.6,1.4-5.7c0-3.2-1.1-6-3.2-8.1
					C334.3,108.8,331.7,107.7,328.6,107.7z M548.1,130.6c-2,0-3.9-0.5-5.7-1.5c-1.7-1-3.1-2.4-4.1-4.2c-1-1.8-1.5-3.7-1.5-5.8
					c0-3.2,1.1-6,3.3-8.3c2.2-2.3,4.9-3.4,7.9-3.4c3.1,0,5.7,1.1,7.9,3.4c2.2,2.3,3.3,5,3.3,8.3c0,2.1-0.5,4-1.5,5.8
					c-1,1.8-2.4,3.2-4.1,4.2C552,130.1,550.1,130.6,548.1,130.6z M548.1,107.8c-3,0-5.6,1.1-7.7,3.3c-2.1,2.2-3.2,4.9-3.2,8
					c0,2,0.5,3.9,1.5,5.7c1,1.7,2.3,3.1,4,4.1c1.7,0.9,3.5,1.4,5.5,1.4c2,0,3.8-0.5,5.5-1.4c1.7-0.9,3-2.3,4-4.1
					c1-1.7,1.5-3.7,1.5-5.7c0-3.1-1.1-5.8-3.2-8C553.6,108.9,551,107.8,548.1,107.8z M247.4,130.6c-2,0-3.9-0.5-5.7-1.5
					c-1.7-1-3.1-2.4-4.1-4.2c-1-1.8-1.5-3.7-1.5-5.8c0-3.2,1.1-6,3.3-8.3c2.2-2.3,4.9-3.4,7.9-3.4c3.1,0,5.7,1.1,7.9,3.4
					c2.2,2.3,3.3,5,3.3,8.3c0,2.1-0.5,4-1.5,5.8c-1,1.8-2.4,3.2-4.1,4.2C251.4,130.1,249.5,130.6,247.4,130.6z M247.4,107.8
					c-3,0-5.6,1.1-7.7,3.3c-2.1,2.2-3.2,4.9-3.2,8c0,2,0.5,3.9,1.5,5.7c1,1.7,2.3,3.1,4,4.1c1.7,0.9,3.5,1.4,5.5,1.4
					s3.8-0.5,5.5-1.4c1.7-0.9,3-2.3,4-4.1c1-1.7,1.5-3.7,1.5-5.7c0-3.1-1.1-5.8-3.2-8C253,108.9,250.4,107.8,247.4,107.8z
					 M490.9,116.3h-21.6l0.1-0.2c0.8-2.6,1.9-4.6,3.4-5.9c2-1.8,4.5-2.7,7.3-2.7c1.7,0,3.4,0.4,4.9,1.1c1.5,0.7,2.8,1.7,3.8,2.9
					c0.9,1.2,1.7,2.8,2.2,4.7L490.9,116.3z M469.7,116h20.8c-0.5-1.8-1.2-3.3-2.1-4.4c-0.9-1.1-2.1-2.1-3.6-2.8
					c-1.5-0.7-3.1-1.1-4.8-1.1c-2.7,0-5.1,0.9-7.1,2.7C471.5,111.6,470.5,113.5,469.7,116z M428.3,116.3h-21.6l0.1-0.2
					c0.8-2.6,1.9-4.6,3.4-5.9c2-1.8,4.5-2.7,7.3-2.7c1.7,0,3.4,0.4,4.9,1.1c1.5,0.7,2.8,1.7,3.8,2.9c0.9,1.2,1.7,2.8,2.2,4.7
					L428.3,116.3z M407.1,116h20.8c-0.5-1.8-1.2-3.3-2.1-4.4c-0.9-1.1-2.1-2.1-3.6-2.8c-1.5-0.7-3.1-1.1-4.8-1.1
					c-2.7,0-5.1,0.9-7.1,2.7C408.9,111.6,407.9,113.5,407.1,116z"/>
			</g>
			<g>
				<path class="st0" d="M322.9,68.7c1.7,1.7,2.5,3.8,2.5,6.2c0,1.6-0.4,3-1.1,4.4c-0.8,1.4-1.8,2.4-3.1,3.1
					c-1.3,0.7-2.7,1.1-4.3,1.1c-1.5,0-3-0.4-4.3-1.1c-1.3-0.7-2.3-1.8-3.1-3.1c-0.8-1.4-1.1-2.8-1.1-4.4c0-2.4,0.8-4.5,2.5-6.2
					c1.7-1.7,3.7-2.6,6-2.6C319.2,66.2,321.2,67,322.9,68.7 M308.6,67.1c-2,2.2-3,4.8-3,7.8c0,3,1.1,5.7,3.2,7.9
					c2.1,2.3,4.8,3.4,8.2,3.4c3.3,0,6-1.1,8.1-3.4c2.1-2.3,3.2-4.9,3.2-7.9c0-3-1-5.6-3-7.8c-2.2-2.4-5-3.6-8.3-3.6
					C313.6,63.4,310.8,64.7,308.6,67.1 M296.1,64h-3.8v2.4h3.8v19.3h2.8V66.4h4.4V64h-4.4V56h-2.8V64z M269.3,74.4
					c0,3.1,0.3,5.4,1,6.9c0.7,1.5,1.8,2.7,3.2,3.6c1.4,0.9,3.2,1.3,5.3,1.3c2.1,0,3.9-0.4,5.3-1.3c1.4-0.9,2.5-2,3.1-3.6
					c0.7-1.5,1-3.8,1-6.8V64h-2.8v10.1c0,2.7-0.1,4.5-0.4,5.3c-0.4,1.2-1.2,2.2-2.2,3c-1.1,0.7-2.4,1.1-4,1.1c-1.6,0-2.9-0.4-4-1.2
					c-1.1-0.8-1.9-1.8-2.3-3.1c-0.3-0.9-0.4-2.6-0.4-5.1V64h-2.8V74.4z M259.1,64h-3.8v2.4h3.8v19.3h2.8V66.4h4.4V64h-4.4V56h-2.8
					V64z M248.9,85.7h2.8V64h-2.8V85.7z M248.7,55.8c-0.4,0.5-0.7,1-0.7,1.6c0,0.6,0.2,1.2,0.7,1.6c0.5,0.5,1,0.7,1.6,0.7
					c0.6,0,1.2-0.2,1.6-0.7c0.4-0.5,0.7-1,0.7-1.6c0-0.6-0.2-1.2-0.7-1.6c-0.5-0.5-1-0.7-1.6-0.7C249.6,55.1,249.1,55.3,248.7,55.8
					 M238.7,64h-3.8v2.4h3.8v19.3h2.8V66.4h4.4V64h-4.4V56h-2.8V64z M226.1,63.4c-1.7,0-3.1,0.5-4.3,1.6c-1.1,1.1-1.7,2.5-1.7,4.1
					c0,1.3,0.4,2.4,1.1,3.4c0.7,1,2,2,4,3c1.8,0.9,3,1.7,3.5,2.3c0.5,0.6,0.8,1.3,0.8,2.1c0,1-0.4,1.8-1.2,2.5
					c-0.8,0.7-1.7,1.1-2.9,1.1c-1.6,0-3.1-0.8-4.5-2.4l-1.8,2c0.7,1,1.7,1.7,2.8,2.3c1.1,0.5,2.3,0.8,3.6,0.8c1.9,0,3.4-0.6,4.7-1.9
					c1.3-1.2,1.9-2.7,1.9-4.5c0-1.3-0.4-2.4-1.1-3.4c-0.7-1-2.2-2-4.2-3.1c-1.7-0.9-2.8-1.6-3.4-2.3c-0.5-0.6-0.8-1.3-0.8-2
					c0-0.8,0.3-1.5,1-2.1c0.6-0.6,1.4-0.9,2.3-0.9c1.4,0,2.9,0.7,4.4,2.2l1.8-1.9C230.1,64.4,228.1,63.4,226.1,63.4 M197.2,85.7h2.8
					v-8c0-2.9,0.1-4.8,0.4-5.9c0.4-1.6,1.3-3,2.6-4.1c1.3-1.1,2.8-1.7,4.5-1.7c1.5,0,2.7,0.4,3.6,1.1c0.9,0.7,1.5,1.8,1.9,3.2
					c0.2,0.8,0.3,2.5,0.3,5v10.3h2.8V74.5c0-2.9-0.3-5.1-0.9-6.5c-0.6-1.4-1.5-2.5-2.8-3.3c-1.3-0.8-2.7-1.2-4.3-1.2
					c-1.6,0-3.1,0.4-4.4,1.1c-1.4,0.7-2.6,1.9-3.7,3.3V64h-2.8V85.7z M188.8,85.7h2.9V56.4h-2.9V85.7z"/>
			</g>
			<g>
				<path class="st0" d="M316.9,86.4c-3.4,0-6.1-1.2-8.3-3.4c-2.1-2.3-3.2-5-3.2-8c0-3,1-5.7,3-7.9c2.2-2.5,5.1-3.7,8.4-3.7
					c3.4,0,6.2,1.2,8.4,3.7c2,2.2,3,4.9,3,7.9c0,3.1-1.1,5.8-3.2,8C323.1,85.2,320.3,86.4,316.9,86.4z M316.9,63.6
					c-3.3,0-6.1,1.2-8.2,3.6c-2,2.2-3,4.8-3,7.7c0,3,1,5.6,3.1,7.8c2.1,2.2,4.8,3.3,8,3.3c3.3,0,6-1.1,8-3.3
					c2.1-2.2,3.1-4.9,3.1-7.8c0-3-1-5.6-3-7.7C323,64.8,320.2,63.6,316.9,63.6z M278.8,86.4c-2.1,0-3.9-0.4-5.4-1.3
					c-1.4-0.9-2.5-2.1-3.2-3.7c-0.7-1.5-1.1-3.9-1.1-7V63.9h3.1v10.3c0,2.4,0.1,4.1,0.4,5.1c0.4,1.3,1.1,2.3,2.2,3.1
					c1.1,0.7,2.4,1.1,3.9,1.1c1.5,0,2.8-0.4,3.9-1.1c1.1-0.7,1.8-1.7,2.2-2.9c0.3-0.8,0.4-2.6,0.4-5.3V63.9h3.2v10.8
					c0,3-0.4,5.3-1.1,6.8c-0.7,1.5-1.8,2.8-3.2,3.6C282.7,86,280.9,86.4,278.8,86.4z M269.5,64.2v10.3c0,3,0.3,5.4,1,6.9
					c0.7,1.5,1.7,2.7,3.1,3.5c1.4,0.8,3.1,1.3,5.2,1.3c2.1,0,3.8-0.4,5.2-1.3c1.4-0.8,2.4-2,3.1-3.5c0.7-1.5,1-3.7,1-6.7V64.2h-2.5
					v10c0,2.8-0.1,4.5-0.4,5.4c-0.4,1.2-1.2,2.3-2.3,3c-1.1,0.8-2.5,1.2-4,1.2c-1.6,0-3-0.4-4.1-1.2c-1.1-0.8-1.9-1.9-2.3-3.2
					c-0.3-0.9-0.4-2.7-0.4-5.1v-10H269.5z M225.6,86.4c-1.3,0-2.5-0.3-3.6-0.8c-1.2-0.6-2.1-1.3-2.9-2.3l-0.1-0.1l2-2.2l0.1,0.1
					c1.4,1.6,2.9,2.4,4.4,2.4c1.1,0,2-0.3,2.8-1c0.7-0.7,1.1-1.5,1.1-2.4c0-0.8-0.2-1.4-0.7-2c-0.5-0.6-1.7-1.4-3.5-2.3
					c-2-1-3.3-2-4-3c-0.7-1-1.1-2.2-1.1-3.5c0-1.7,0.6-3.1,1.7-4.2c1.2-1.1,2.6-1.7,4.4-1.7c2,0,4.1,1,6.1,3l0.1,0.1l-2,2.1
					l-0.1-0.1c-1.5-1.4-2.9-2.1-4.3-2.1c-0.9,0-1.6,0.3-2.2,0.9c-0.6,0.6-0.9,1.2-0.9,2c0,0.7,0.3,1.3,0.8,1.9
					c0.5,0.6,1.6,1.4,3.3,2.3c2.1,1.1,3.5,2.1,4.3,3.2c0.7,1,1.1,2.2,1.1,3.5c0,1.8-0.6,3.4-1.9,4.6
					C229.1,85.8,227.5,86.4,225.6,86.4z M219.4,83.2c0.7,0.9,1.6,1.6,2.7,2.1c1.1,0.5,2.3,0.8,3.5,0.8c1.8,0,3.4-0.6,4.6-1.8
					c1.2-1.2,1.8-2.7,1.8-4.4c0-1.2-0.4-2.3-1.1-3.3c-0.7-1-2.1-2-4.2-3.1c-1.7-0.9-2.9-1.7-3.4-2.3c-0.6-0.7-0.8-1.4-0.8-2.1
					c0-0.8,0.3-1.6,1-2.2c0.7-0.6,1.5-0.9,2.4-0.9c1.4,0,2.9,0.7,4.4,2.1l1.6-1.6c-1.9-1.8-3.9-2.8-5.8-2.8c-1.7,0-3.1,0.5-4.2,1.6
					c-1.1,1.1-1.6,2.4-1.6,4c0,1.2,0.3,2.3,1,3.3c0.7,1,2,1.9,3.9,2.9c1.9,0.9,3,1.7,3.6,2.3c0.5,0.7,0.8,1.4,0.8,2.2
					c0,1-0.4,1.9-1.2,2.6c-0.8,0.7-1.8,1.1-3,1.1c-1.6,0-3.1-0.8-4.5-2.3L219.4,83.2z M299,85.8h-3.1V66.6h-3.8v-2.7h3.8v-8.1h3.1
					v8.1h4.4v2.7H299V85.8z M296.2,85.5h2.5V66.3h4.4v-2.1h-4.4v-8.1h-2.5v8.1h-3.8v2.1h3.8V85.5z M262,85.8h-3.1V66.6h-3.8v-2.7
					h3.8v-8.1h3.1v8.1h4.4v2.7H262V85.8z M259.2,85.5h2.5V66.3h4.4v-2.1h-4.4v-8.1h-2.5v8.1h-3.8v2.1h3.8V85.5z M251.8,85.8h-3.1
					v-22h3.1V85.8z M249,85.5h2.5V64.2H249V85.5z M241.7,85.8h-3.1V66.6h-3.8v-2.7h3.8v-8.1h3.1v8.1h4.4v2.7h-4.4V85.8z M238.9,85.5
					h2.5V66.3h4.4v-2.1h-4.4v-8.1h-2.5v8.1h-3.8v2.1h3.8V85.5z M216.2,85.8h-3.1V75.3c0-2.5-0.1-4.1-0.3-5c-0.3-1.4-0.9-2.5-1.8-3.2
					c-0.9-0.7-2.1-1.1-3.5-1.1c-1.6,0-3.1,0.6-4.4,1.6c-1.3,1.1-2.2,2.5-2.6,4.1c-0.3,1.1-0.4,3-0.4,5.9v8.1H197v-22h3.1v3.6
					c1.1-1.3,2.2-2.3,3.5-3c1.4-0.7,2.9-1.1,4.5-1.1c1.6,0,3.1,0.4,4.4,1.3c1.3,0.8,2.2,2,2.8,3.4c0.6,1.4,0.9,3.6,0.9,6.6V85.8z
					 M213.5,85.5h2.5v-11c0-2.9-0.3-5.1-0.9-6.5c-0.6-1.4-1.5-2.5-2.7-3.3c-1.2-0.8-2.6-1.2-4.2-1.2c-1.6,0-3,0.4-4.4,1.1
					c-1.3,0.7-2.6,1.8-3.7,3.3l-0.3-0.1v-3.7h-2.5v21.4h2.5v-7.8c0-2.9,0.1-4.9,0.4-5.9c0.4-1.7,1.3-3.1,2.7-4.2
					c1.4-1.1,2.9-1.7,4.6-1.7c1.5,0,2.7,0.4,3.7,1.1c0.9,0.7,1.6,1.9,1.9,3.3c0.2,0.8,0.3,2.5,0.3,5V85.5z M191.9,85.8h-3.2V56.2
					h3.2V85.8z M189,85.5h2.6v-29H189V85.5z M316.9,83.7c-1.6,0-3-0.4-4.3-1.1c-1.3-0.7-2.4-1.8-3.1-3.2c-0.8-1.4-1.2-2.9-1.2-4.5
					c0-2.5,0.9-4.6,2.5-6.3c1.7-1.7,3.7-2.6,6.1-2.6c2.3,0,4.4,0.9,6.1,2.6c1.7,1.7,2.6,3.9,2.6,6.3c0,1.6-0.4,3.1-1.2,4.5
					c-0.8,1.4-1.8,2.4-3.1,3.2C320,83.4,318.5,83.7,316.9,83.7z M316.9,66.3c-2.3,0-4.2,0.8-5.9,2.5c-1.6,1.7-2.5,3.7-2.5,6.1
					c0,1.5,0.4,3,1.1,4.3c0.7,1.3,1.8,2.4,3,3.1c1.3,0.7,2.7,1.1,4.2,1.1c1.5,0,2.9-0.4,4.2-1.1c1.3-0.7,2.3-1.8,3-3.1
					c0.7-1.3,1.1-2.8,1.1-4.3c0-2.4-0.8-4.4-2.5-6.1C321.2,67.2,319.2,66.3,316.9,66.3z M250.3,59.8c-0.7,0-1.2-0.2-1.7-0.7
					c-0.5-0.5-0.7-1.1-0.7-1.7c0-0.7,0.2-1.3,0.7-1.7c0.5-0.5,1.1-0.7,1.7-0.7c0.7,0,1.3,0.2,1.7,0.7c0.5,0.5,0.7,1.1,0.7,1.7
					c0,0.7-0.2,1.2-0.7,1.7C251.5,59.6,250.9,59.8,250.3,59.8z M250.3,55.2c-0.6,0-1.1,0.2-1.5,0.6c-0.4,0.4-0.6,0.9-0.6,1.5
					c0,0.6,0.2,1.1,0.6,1.5c0.4,0.4,0.9,0.6,1.5,0.6c0.6,0,1.1-0.2,1.5-0.6c0.4-0.4,0.6-0.9,0.6-1.5c0-0.6-0.2-1.1-0.6-1.5
					C251.4,55.4,250.9,55.2,250.3,55.2z"/>
			</g>
		</g>
	</g>
</g>
</svg>
