<svg id="Layer_1" data-name="Layer 1" xmlns="http://www.w3.org/2000/svg" viewBox="0 0 571.84 147.59"><defs><style>.cls-1{fill:#1b3d6e;}</style></defs><title>logoitj_login</title><path class="cls-1" d="M135.41,151.74v-37c0-5.07-7.22-3.89-7.22-3.89v-3.4h23.19v3.32s-7.22-.93-7.22,3.89V155.1s.48,7.35-9.38,7.2c-7.55-.12-9.36-6-9.36-6a3.15,3.15,0,0,1,1.13-3.49s1.69-1.3,3.55.68a3.53,3.53,0,0,0,2.14,1.07,2.89,2.89,0,0,0,3.16-2.83" transform="translate(-14.55 -50.94)"/><path class="cls-1" d="M112.48,87.56c-5.78-1.29-6.86,2.06-6.86,2.06l-.12,62.12c0,10.63,8.58,10.73,10.59,10.73v3.63H83.75v-3.63c2.32,0,10.93-.1,10.93-10.79,0-8-.31-62.06-.31-62.06s-1.1-3.44-7.12-2.08S74,95.62,71.39,101.21H64.1l7.24-17.77h57.42L136,101.21h-7.25s-5.6-11.28-16.26-13.65" transform="translate(-14.55 -50.94)"/><path class="cls-1" d="M64.57,119.54v35.69c0,5,7.23,3.9,7.23,3.9l0,3.32H48.56v-3.32s7.23,1.08,7.23-3.82V114.57c0-4.74-7.21-3.6-7.21-3.6v-3.32H71.79V111s-7.23-1.23-7.23,3.51v5.05Z" transform="translate(-14.55 -50.94)"/><path class="cls-1" d="M164.63,124.6A66.27,66.27,0,1,1,98.35,58.33a66.27,66.27,0,0,1,66.27,66.27m7.39,0a73.66,73.66,0,1,0-73.66,73.66A73.66,73.66,0,0,0,172,124.6" transform="translate(-14.55 -50.94)"/><polygon class="cls-1" points="3.32 141.07 3.32 134.33 5.36 134.33 6.58 138.93 7.79 134.33 9.84 134.33 9.84 141.07 8.57 141.07 8.57 135.77 7.23 141.07 5.93 141.07 4.59 135.77 4.59 141.07 3.32 141.07"/><path class="cls-1" d="M26.32,188.12h1a5.15,5.15,0,0,0,1.23-.08.73.73,0,0,0,.38-.28.87.87,0,0,0,.14-.51.81.81,0,0,0-.18-.55.84.84,0,0,0-.51-.27c-.11,0-.44,0-1,0H26.32ZM25,192v-6.74h2.87a4.88,4.88,0,0,1,1.57.18,1.56,1.56,0,0,1,.79.65,2,2,0,0,1,.29,1.06,1.79,1.79,0,0,1-.44,1.25,2.14,2.14,0,0,1-1.34.62,3.21,3.21,0,0,1,.73.57,8.33,8.33,0,0,1,.78,1.09L31,192H29.38l-1-1.47a10.92,10.92,0,0,0-.71-1,1,1,0,0,0-.41-.28,2.24,2.24,0,0,0-.69-.08h-.27V192Z" transform="translate(-14.55 -50.94)"/><path class="cls-1" d="M15.73,188.64a8.71,8.71,0,1,0,8.71-8.72,8.72,8.72,0,0,0-8.71,8.72m-1.18,0a9.89,9.89,0,1,1,9.9,9.89,9.89,9.89,0,0,1-9.9-9.89" transform="translate(-14.55 -50.94)"/><path class="cls-1" d="M205,150.93l-1.28,1a7,7,0,0,0-2.54-2.09,7.42,7.42,0,0,0-3.25-.71,7.19,7.19,0,0,0-3.59.93,6.68,6.68,0,0,0-2.56,2.5,6.92,6.92,0,0,0-.91,3.53,6.62,6.62,0,0,0,2,4.94,7,7,0,0,0,5.12,2,7.2,7.2,0,0,0,5.69-2.66l1.28,1a8.16,8.16,0,0,1-3,2.38,9.47,9.47,0,0,1-4,.84,8.41,8.41,0,0,1-6.7-2.83,8.53,8.53,0,0,1-2.06-5.77,8,8,0,0,1,2.49-6,8.6,8.6,0,0,1,6.25-2.43,9.17,9.17,0,0,1,4.1.9A8,8,0,0,1,205,150.93Z" transform="translate(-14.55 -50.94)"/><path class="cls-1" d="M214.84,147.93l7.55,16.19h-1.75l-2.55-5.33h-7l-2.52,5.33h-1.8l7.65-16.19Zm-.2,3.44-2.78,5.86h5.54Z" transform="translate(-14.55 -50.94)"/><path class="cls-1" d="M224.16,164.12l2.32-16.19h.26l6.58,13.29,6.52-13.29h.26l2.33,16.19h-1.59l-1.6-11.58-5.73,11.58h-.41l-5.79-11.67-1.59,11.67Z" transform="translate(-14.55 -50.94)"/><path class="cls-1" d="M245.61,147.93h3.23a18.53,18.53,0,0,1,3.74.24,4.15,4.15,0,0,1,2.27,1.4,4.53,4.53,0,0,1,0,5.34,4.22,4.22,0,0,1-2.37,1.41,20.92,20.92,0,0,1-4.12.26h-1.15v7.53h-1.62Zm1.62,1.59V155l2.74,0a7.16,7.16,0,0,0,2.43-.3,2.5,2.5,0,0,0,1.21-1,2.71,2.71,0,0,0,.44-1.51,2.67,2.67,0,0,0-.44-1.49,2.43,2.43,0,0,0-1.16-1,7,7,0,0,0-2.36-.29Z" transform="translate(-14.55 -50.94)"/><path class="cls-1" d="M259,147.93h1.62v9.78a20.39,20.39,0,0,0,.07,2.17,3.6,3.6,0,0,0,.56,1.6,3.3,3.3,0,0,0,1.35,1.08,4.25,4.25,0,0,0,1.84.44,3.63,3.63,0,0,0,1.54-.34,3.43,3.43,0,0,0,1.23-.95,3.86,3.86,0,0,0,.73-1.46,12.07,12.07,0,0,0,.16-2.53v-9.78h1.62v9.78a11.89,11.89,0,0,1-.42,3.51,4.77,4.77,0,0,1-1.7,2.33,4.85,4.85,0,0,1-3.08,1,5.89,5.89,0,0,1-3.36-.94,4.5,4.5,0,0,1-1.87-2.48,13.15,13.15,0,0,1-.3-3.41Z" transform="translate(-14.55 -50.94)"/><path class="cls-1" d="M272.05,161.1l1.38-.83q1.45,2.68,3.36,2.68a3.22,3.22,0,0,0,1.53-.38,2.69,2.69,0,0,0,1.09-1,2.64,2.64,0,0,0,.37-1.35,2.75,2.75,0,0,0-.55-1.6,13.17,13.17,0,0,0-2.77-2.6,14.11,14.11,0,0,1-2.52-2.21,4,4,0,0,1-.86-2.48,3.76,3.76,0,0,1,.51-1.93A3.62,3.62,0,0,1,275,148a4.11,4.11,0,0,1,2-.5,4.27,4.27,0,0,1,2.14.57,7.36,7.36,0,0,1,2.11,2.09l-1.32,1a6.36,6.36,0,0,0-1.56-1.6,2.68,2.68,0,0,0-1.4-.38,2.22,2.22,0,0,0-1.6.59,1.94,1.94,0,0,0-.62,1.46,2.47,2.47,0,0,0,.22,1,3.77,3.77,0,0,0,.8,1.08q.32.31,2.09,1.62a11.77,11.77,0,0,1,2.88,2.76,4.45,4.45,0,0,1,.78,2.43,4.12,4.12,0,0,1-1.34,3.06,4.49,4.49,0,0,1-3.25,1.3,4.78,4.78,0,0,1-2.67-.79A7.2,7.2,0,0,1,272.05,161.1Z" transform="translate(-14.55 -50.94)"/><path class="cls-1" d="M306.81,150.65l-1.26,1.19a9.59,9.59,0,0,0-3-2,8,8,0,0,0-3.14-.69,7.49,7.49,0,0,0-3.63.94,6.78,6.78,0,0,0-2.67,2.54,6.54,6.54,0,0,0-.95,3.38,6.69,6.69,0,0,0,1,3.47,7,7,0,0,0,2.71,2.59,7.79,7.79,0,0,0,3.79.94,6.47,6.47,0,0,0,4.23-1.41,5.56,5.56,0,0,0,2-3.65h-5.16v-1.56h7a8.13,8.13,0,0,1-2.23,6,8,8,0,0,1-5.91,2.21,8.87,8.87,0,0,1-7.11-3.06,8.13,8.13,0,0,1-2-5.45,8.35,8.35,0,0,1,1.16-4.28,8.21,8.21,0,0,1,3.17-3.1,9.24,9.24,0,0,1,4.56-1.12,10.13,10.13,0,0,1,3.88.74A11.58,11.58,0,0,1,306.81,150.65Z" transform="translate(-14.55 -50.94)"/><path class="cls-1" d="M310.91,147.93h1.62v9.78a20.05,20.05,0,0,0,.07,2.17,3.6,3.6,0,0,0,.56,1.6,3.3,3.3,0,0,0,1.35,1.08,4.24,4.24,0,0,0,1.84.44,3.62,3.62,0,0,0,1.54-.34,3.43,3.43,0,0,0,1.23-.95,3.88,3.88,0,0,0,.73-1.46,12.18,12.18,0,0,0,.16-2.53v-9.78h1.62v9.78a11.93,11.93,0,0,1-.43,3.51,4.77,4.77,0,0,1-1.7,2.33,4.85,4.85,0,0,1-3.08,1,5.9,5.9,0,0,1-3.36-.94,4.5,4.5,0,0,1-1.87-2.48,13.06,13.06,0,0,1-.3-3.41Z" transform="translate(-14.55 -50.94)"/><path class="cls-1" d="M332.23,147.93l7.55,16.19H338l-2.55-5.33h-7L326,164.12h-1.81l7.65-16.19Zm-.2,3.44-2.77,5.86h5.54Z" transform="translate(-14.55 -50.94)"/><path class="cls-1" d="M342.29,164.12V147.93h3.36a17.15,17.15,0,0,1,5.27.58,7,7,0,0,1,3.68,2.86,8.7,8.7,0,0,1,1.33,4.85,8.51,8.51,0,0,1-1.05,4.28,6.75,6.75,0,0,1-2.73,2.73,10.29,10.29,0,0,1-4.71.88Zm1.55-1.53h1.87a17.4,17.4,0,0,0,4.65-.42,5.35,5.35,0,0,0,2.87-2.14,6.58,6.58,0,0,0,1-3.78,6.93,6.93,0,0,0-1.14-4A5.71,5.71,0,0,0,350,150a19.11,19.11,0,0,0-5-.46h-1.14Z" transform="translate(-14.55 -50.94)"/><path class="cls-1" d="M365.68,147.93l7.55,16.19h-1.75l-2.55-5.33h-7l-2.52,5.33h-1.81l7.65-16.19Zm-.2,3.44-2.77,5.86h5.54Z" transform="translate(-14.55 -50.94)"/><path class="cls-1" d="M375.75,147.93h1.62v14.63h6.23v1.56h-7.85Z" transform="translate(-14.55 -50.94)"/><path class="cls-1" d="M392.78,147.93l7.55,16.19h-1.75L396,158.79h-7l-2.52,5.33h-1.81l7.65-16.19Zm-.2,3.44-2.78,5.86h5.54Z" transform="translate(-14.55 -50.94)"/><path class="cls-1" d="M408.14,147.93h1.62v10.93a10.71,10.71,0,0,1-.39,3.51,3.27,3.27,0,0,1-1.3,1.57,4,4,0,0,1-2.21.59,5.18,5.18,0,0,1-1.93-.38,8.24,8.24,0,0,1-2.11-1.34l.86-1.29a12.78,12.78,0,0,0,2.11,1.26,2.69,2.69,0,0,0,1.08.24,2.08,2.08,0,0,0,1.26-.42,2.18,2.18,0,0,0,.79-1.11,10.34,10.34,0,0,0,.23-2.69Z" transform="translate(-14.55 -50.94)"/><path class="cls-1" d="M420.32,147.93l7.55,16.19h-1.75l-2.55-5.33h-7l-2.52,5.33h-1.81l7.65-16.19Zm-.2,3.44-2.77,5.86h5.54Z" transform="translate(-14.55 -50.94)"/><path class="cls-1" d="M430.47,147.93h3.22a19.52,19.52,0,0,1,3.65.22,4.17,4.17,0,0,1,2.35,1.42,4,4,0,0,1,.9,2.67,4.33,4.33,0,0,1-.62,2.33,3.86,3.86,0,0,1-1.78,1.52,8.13,8.13,0,0,1-3.19.52l5.82,7.52h-2L433,156.6h-.91v7.52h-1.62Zm1.62,1.59V155l2.79,0a7,7,0,0,0,2.4-.31,2.5,2.5,0,0,0,1.21-1,2.74,2.74,0,0,0,.43-1.51,2.63,2.63,0,0,0-.44-1.48,2.45,2.45,0,0,0-1.16-1,7,7,0,0,0-2.38-.29Z" transform="translate(-14.55 -50.94)"/><path class="cls-1" d="M450.68,147.93l7.55,16.19h-1.75l-2.55-5.33h-7l-2.52,5.33h-1.81l7.65-16.19Zm-.2,3.44-2.77,5.86h5.54Z" transform="translate(-14.55 -50.94)"/><path class="cls-1" d="M465.63,147.93h3.17l4.07,11.5,4.13-11.5h3.17l-5.83,16.19h-3Z" transform="translate(-14.55 -50.94)"/><path class="cls-1" d="M487.58,147.93h3.13l6.23,16.19h-3.21l-1.27-3.34h-6.61l-1.32,3.34h-3.2Zm1.58,4.29L487,157.78h4.33Z" transform="translate(-14.55 -50.94)"/><path class="cls-1" d="M499.32,147.93h3.08v13.25h4.49v2.94h-7.57Z" transform="translate(-14.55 -50.94)"/><path class="cls-1" d="M509.24,147.93h3.08v13.25h4.49v2.94h-7.57Z" transform="translate(-14.55 -50.94)"/><path class="cls-1" d="M519.17,147.93H528v3h-5.78v2.93H528v3h-5.78v4.26H528v3h-8.84Z" transform="translate(-14.55 -50.94)"/><path class="cls-1" d="M537.4,147.93h3.26a10.79,10.79,0,0,1,3.82.48,3.91,3.91,0,0,1,1.83,1.59,4.88,4.88,0,0,1,.69,2.63,4.49,4.49,0,0,1-.76,2.67,4.64,4.64,0,0,1-2.31,1.62l3.84,7.2h-3.37l-3.64-6.86h-.28v6.86H537.4Zm3.08,6.33h1a3.77,3.77,0,0,0,2-.39,1.45,1.45,0,0,0,.55-1.28,1.57,1.57,0,0,0-.27-.92,1.52,1.52,0,0,0-.74-.56,5.57,5.57,0,0,0-1.69-.17h-.84Z" transform="translate(-14.55 -50.94)"/><path class="cls-1" d="M550.28,147.93h8.84v3h-5.78v2.93h5.78v3h-5.78v4.26h5.78v3h-8.84Z" transform="translate(-14.55 -50.94)"/><path class="cls-1" d="M566.93,147.93h3.13l6.23,16.19h-3.2l-1.27-3.34h-6.61l-1.31,3.34h-3.21Zm1.58,4.29-2.17,5.56h4.33Z" transform="translate(-14.55 -50.94)"/><path class="cls-1" d="M578.67,147.93h3.08v13.25h4.49v2.94h-7.58Z" transform="translate(-14.55 -50.94)"/><path class="cls-1" d="M195.49,173.64l6.65,14.27h-1.54l-2.24-4.69h-6.15L190,187.91H188.4l6.74-14.27Zm-.18,3-2.44,5.16h4.88Z" transform="translate(-14.55 -50.94)"/><path class="cls-1" d="M204.37,187.91V173.64h.31l9.49,10.94V173.64h1.41v14.27h-.32l-9.42-10.8v10.8Z" transform="translate(-14.55 -50.94)"/><path class="cls-1" d="M230.38,173.64,237,187.91H235.5l-2.24-4.69H227.1l-2.22,4.69h-1.59L230,173.64Zm-.18,3-2.45,5.16h4.88Z" transform="translate(-14.55 -50.94)"/><path class="cls-1" d="M252.54,176.29l-1.13.86a6.15,6.15,0,0,0-2.24-1.84,6.53,6.53,0,0,0-2.86-.63,6.34,6.34,0,0,0-3.16.82,5.89,5.89,0,0,0-2.26,2.2,6.09,6.09,0,0,0-.8,3.11,5.83,5.83,0,0,0,1.79,4.36,6.2,6.2,0,0,0,4.52,1.75,6.35,6.35,0,0,0,5-2.35l1.13.85a7.2,7.2,0,0,1-2.66,2.1,8.35,8.35,0,0,1-3.56.74,7.41,7.41,0,0,1-5.91-2.49,7.52,7.52,0,0,1-1.81-5.08,7.07,7.07,0,0,1,2.2-5.27,7.58,7.58,0,0,1,5.51-2.14,8.09,8.09,0,0,1,3.61.79A7,7,0,0,1,252.54,176.29Z" transform="translate(-14.55 -50.94)"/><path class="cls-1" d="M268.69,176.29l-1.12.86a6.16,6.16,0,0,0-2.24-1.84,6.54,6.54,0,0,0-2.87-.63,6.33,6.33,0,0,0-3.16.82,5.88,5.88,0,0,0-2.26,2.2,6.09,6.09,0,0,0-.8,3.11,5.84,5.84,0,0,0,1.79,4.36,6.2,6.2,0,0,0,4.52,1.75,6.35,6.35,0,0,0,5-2.35l1.12.85a7.19,7.19,0,0,1-2.66,2.1,8.34,8.34,0,0,1-3.56.74,7.41,7.41,0,0,1-5.91-2.49,7.52,7.52,0,0,1-1.81-5.08,7.07,7.07,0,0,1,2.2-5.27,7.57,7.57,0,0,1,5.5-2.14,8.08,8.08,0,0,1,3.61.79A7,7,0,0,1,268.69,176.29Z" transform="translate(-14.55 -50.94)"/><path class="cls-1" d="M271.62,173.64h2.84a17.2,17.2,0,0,1,3.22.19,3.68,3.68,0,0,1,2.07,1.25,3.56,3.56,0,0,1,.8,2.36,3.81,3.81,0,0,1-.55,2,3.43,3.43,0,0,1-1.57,1.34,7.2,7.2,0,0,1-2.81.46l5.13,6.62H279l-5.13-6.62H273v6.62h-1.43ZM273,175v4.85l2.46,0a6.11,6.11,0,0,0,2.11-.27,2.2,2.2,0,0,0,1.07-.87,2.41,2.41,0,0,0,.38-1.33,2.31,2.31,0,0,0-.39-1.31,2.17,2.17,0,0,0-1-.84,6.19,6.19,0,0,0-2.1-.25Z" transform="translate(-14.55 -50.94)"/><path class="cls-1" d="M283.61,173.64h8.18V175H285v4.47h6.69v1.4H285v5.61h6.69v1.4h-8.12Z" transform="translate(-14.55 -50.94)"/><path class="cls-1" d="M294.25,187.91V173.64h3a15.13,15.13,0,0,1,4.65.51,6.21,6.21,0,0,1,3.24,2.52,7.67,7.67,0,0,1,1.17,4.28,7.51,7.51,0,0,1-.93,3.77,5.94,5.94,0,0,1-2.41,2.41,9.06,9.06,0,0,1-4.15.78Zm1.37-1.35h1.65a15.38,15.38,0,0,0,4.1-.37,4.73,4.73,0,0,0,2.53-1.88,5.81,5.81,0,0,0,.92-3.33,6.1,6.1,0,0,0-1-3.53,5,5,0,0,0-2.78-2,16.8,16.8,0,0,0-4.41-.41h-1Z" transform="translate(-14.55 -50.94)"/><path class="cls-1" d="M308.83,173.64h1.43v14.27h-1.43Z" transform="translate(-14.55 -50.94)"/><path class="cls-1" d="M312.11,175v-1.4h7.82V175h-3.18v12.87h-1.45V175Z" transform="translate(-14.55 -50.94)"/><path class="cls-1" d="M322,173.64h8.18V175h-6.75v4.47h6.69v1.4h-6.69v5.61h6.69v1.4H322Z" transform="translate(-14.55 -50.94)"/><path class="cls-1" d="M332.63,187.91V173.64h3a15.1,15.1,0,0,1,4.65.51,6.21,6.21,0,0,1,3.24,2.52,7.64,7.64,0,0,1,1.17,4.28,7.47,7.47,0,0,1-.93,3.77,5.92,5.92,0,0,1-2.41,2.41,9,9,0,0,1-4.15.78Zm1.37-1.35h1.65a15.34,15.34,0,0,0,4.1-.37,4.74,4.74,0,0,0,2.53-1.88,5.81,5.81,0,0,0,.92-3.33,6.11,6.11,0,0,0-1-3.53,5,5,0,0,0-2.79-2A16.8,16.8,0,0,0,335,175h-1Z" transform="translate(-14.55 -50.94)"/><path class="cls-1" d="M352.71,173.64h1.43v14.27h-1.43Z" transform="translate(-14.55 -50.94)"/><path class="cls-1" d="M357.42,187.91V173.64h.31l9.49,10.94V173.64h1.41v14.27h-.32l-9.42-10.8v10.8Z" transform="translate(-14.55 -50.94)"/><path class="cls-1" d="M370.69,175v-1.4h7.82V175h-3.18v12.87h-1.46V175Z" transform="translate(-14.55 -50.94)"/><path class="cls-1" d="M380.57,173.64h8.18V175H382v4.47h6.69v1.4H382v5.61h6.69v1.4h-8.12Z" transform="translate(-14.55 -50.94)"/><path class="cls-1" d="M391.29,173.64h2.84a17.21,17.21,0,0,1,3.22.19,3.68,3.68,0,0,1,2.07,1.25,3.56,3.56,0,0,1,.8,2.36,3.81,3.81,0,0,1-.55,2,3.43,3.43,0,0,1-1.57,1.34,7.22,7.22,0,0,1-2.82.46l5.13,6.62h-1.76l-5.13-6.62h-.81v6.62h-1.43Zm1.43,1.4v4.85l2.46,0a6.09,6.09,0,0,0,2.11-.27,2.19,2.19,0,0,0,1.07-.87,2.4,2.4,0,0,0,.38-1.33,2.32,2.32,0,0,0-.39-1.31,2.17,2.17,0,0,0-1-.84,6.2,6.2,0,0,0-2.1-.25Z" transform="translate(-14.55 -50.94)"/><path class="cls-1" d="M403.28,187.91V173.64h.31l9.5,10.94V173.64h1.4v14.27h-.32l-9.42-10.8v10.8Z" transform="translate(-14.55 -50.94)"/><path class="cls-1" d="M423.79,173.64l6.65,14.27H428.9l-2.24-4.69h-6.15l-2.22,4.69H416.7l6.74-14.27Zm-.18,3-2.45,5.16H426Z" transform="translate(-14.55 -50.94)"/><path class="cls-1" d="M429.63,175v-1.4h7.82V175h-3.18v12.87h-1.46V175Z" transform="translate(-14.55 -50.94)"/><path class="cls-1" d="M439.3,173.64h1.43v14.27H439.3Z" transform="translate(-14.55 -50.94)"/><path class="cls-1" d="M450.79,173.28a7.41,7.41,0,0,1,5.43,2.16,7.5,7.5,0,0,1-5.31,12.82,7.31,7.31,0,0,1-5.36-2.17,7.14,7.14,0,0,1-2.18-5.26,7.59,7.59,0,0,1,1-3.81,7.34,7.34,0,0,1,6.43-3.74Zm.06,1.39a6.09,6.09,0,0,0-5.21,3,6.16,6.16,0,0,0-.8,3.12,6,6,0,0,0,6,6,6.11,6.11,0,0,0,3.08-.81,5.75,5.75,0,0,0,2.2-2.2,6.2,6.2,0,0,0,.79-3.11,6,6,0,0,0-.79-3.07,5.91,5.91,0,0,0-2.23-2.2A6,6,0,0,0,450.85,174.67Z" transform="translate(-14.55 -50.94)"/><path class="cls-1" d="M461.27,187.91V173.64h.31l9.5,10.94V173.64h1.4v14.27h-.32l-9.42-10.8v10.8Z" transform="translate(-14.55 -50.94)"/><path class="cls-1" d="M481.79,173.64l6.65,14.27H486.9l-2.24-4.69h-6.15l-2.22,4.69h-1.59l6.74-14.27Zm-.18,3-2.45,5.16H484Z" transform="translate(-14.55 -50.94)"/><path class="cls-1" d="M490.65,173.64h1.43v12.89h5.49v1.38h-6.92Z" transform="translate(-14.55 -50.94)"/><path class="cls-1" d="M503.85,185.25l1.21-.73q1.28,2.36,3,2.36a2.83,2.83,0,0,0,1.35-.33,2.37,2.37,0,0,0,1-.9,2.33,2.33,0,0,0,.33-1.19,2.42,2.42,0,0,0-.49-1.41,11.64,11.64,0,0,0-2.44-2.29,12.65,12.65,0,0,1-2.22-1.95,3.57,3.57,0,0,1-.75-2.18,3.29,3.29,0,0,1,.45-1.7,3.18,3.18,0,0,1,1.26-1.21,3.62,3.62,0,0,1,1.76-.44,3.76,3.76,0,0,1,1.89.5,6.48,6.48,0,0,1,1.86,1.84l-1.17.88a5.59,5.59,0,0,0-1.37-1.41,2.37,2.37,0,0,0-1.24-.34,2,2,0,0,0-1.41.52,1.71,1.71,0,0,0-.55,1.29,2.2,2.2,0,0,0,.19.9,3.34,3.34,0,0,0,.71,1q.28.27,1.85,1.43a10.36,10.36,0,0,1,2.54,2.43,3.93,3.93,0,0,1,.69,2.14,3.63,3.63,0,0,1-1.18,2.7,4,4,0,0,1-2.87,1.14,4.2,4.2,0,0,1-2.35-.69A6.3,6.3,0,0,1,503.85,185.25Z" transform="translate(-14.55 -50.94)"/><path class="cls-1" d="M528.51,176.29l-1.12.86a6.16,6.16,0,0,0-2.24-1.84,6.53,6.53,0,0,0-2.87-.63,6.33,6.33,0,0,0-3.16.82,5.88,5.88,0,0,0-2.26,2.2,6.09,6.09,0,0,0-.8,3.11,5.84,5.84,0,0,0,1.79,4.36,6.2,6.2,0,0,0,4.52,1.75,6.35,6.35,0,0,0,5-2.35l1.12.85a7.16,7.16,0,0,1-2.66,2.1,8.34,8.34,0,0,1-3.56.74,7.42,7.42,0,0,1-5.91-2.49,7.53,7.53,0,0,1-1.81-5.08,7.07,7.07,0,0,1,2.2-5.27,7.58,7.58,0,0,1,5.51-2.14,8.09,8.09,0,0,1,3.61.79A7,7,0,0,1,528.51,176.29Z" transform="translate(-14.55 -50.94)"/><path class="cls-1" d="M531.35,173.64h1.43v6H540v-6h1.43v14.27H540V181h-7.27v6.89h-1.43Z" transform="translate(-14.55 -50.94)"/><path class="cls-1" d="M551.73,173.28a7.41,7.41,0,0,1,5.43,2.16,7.5,7.5,0,0,1-5.31,12.82,7.31,7.31,0,0,1-5.36-2.17,7.14,7.14,0,0,1-2.18-5.26,7.59,7.59,0,0,1,1-3.81,7.34,7.34,0,0,1,6.43-3.74Zm.06,1.39a6.09,6.09,0,0,0-5.21,3,6.16,6.16,0,0,0-.8,3.12,6,6,0,0,0,6,6,6.11,6.11,0,0,0,3.08-.81,5.75,5.75,0,0,0,2.2-2.2,6.2,6.2,0,0,0,.79-3.11,6.05,6.05,0,0,0-.79-3.07,5.91,5.91,0,0,0-2.23-2.2A6,6,0,0,0,551.79,174.67Z" transform="translate(-14.55 -50.94)"/><path class="cls-1" d="M569,173.28a7.4,7.4,0,0,1,5.42,2.16,7.5,7.5,0,0,1-5.31,12.82,7.3,7.3,0,0,1-5.36-2.17,7.14,7.14,0,0,1-2.18-5.26,7.62,7.62,0,0,1,1-3.81,7.35,7.35,0,0,1,6.43-3.74Zm.06,1.39a5.86,5.86,0,0,0-3,.83,5.93,5.93,0,0,0-2.22,2.22,6.19,6.19,0,0,0-.8,3.12,6,6,0,0,0,6,6,6.09,6.09,0,0,0,3.07-.81,5.78,5.78,0,0,0,2.21-2.2,6.2,6.2,0,0,0,.79-3.11,6,6,0,0,0-.79-3.07,5.94,5.94,0,0,0-2.23-2.2A6,6,0,0,0,569.06,174.67Z" transform="translate(-14.55 -50.94)"/><path class="cls-1" d="M579.47,173.64h1.43v12.89h5.49v1.38h-6.92Z" transform="translate(-14.55 -50.94)"/><path class="cls-1" d="M561.37,133h3.57V122.81a36.79,36.79,0,0,1,.51-7.55,10,10,0,0,1,3.38-5.31,8.81,8.81,0,0,1,5.8-2.14,7.19,7.19,0,0,1,4.59,1.39,7,7,0,0,1,2.38,4.14,32.77,32.77,0,0,1,.4,6.4V133h3.57V118.71q0-5.66-1.15-8.34a9.43,9.43,0,0,0-3.56-4.26,9.85,9.85,0,0,0-5.52-1.58,11.66,11.66,0,0,0-5.66,1.42,14.94,14.94,0,0,0-4.74,4.27v-5h-3.57ZM550,111.31a11,11,0,0,1,3.21,8,11.28,11.28,0,0,1-1.46,5.61,10.34,10.34,0,0,1-3.94,4,11.21,11.21,0,0,1-10.91,0,10.33,10.33,0,0,1-3.94-4,11.28,11.28,0,0,1-1.46-5.61,11,11,0,0,1,3.2-8,10.53,10.53,0,0,1,15.3,0m-18.28-2.12a14.87,14.87,0,0,0,.22,20.16,14.67,14.67,0,0,0,20.85,0,14.9,14.9,0,0,0,.22-20.19,14.49,14.49,0,0,0-21.29,0m-14.43-4.67a7.53,7.53,0,0,0-5.46,2.09,7,7,0,0,0-2.16,5.25,7.2,7.2,0,0,0,1.36,4.31,14.39,14.39,0,0,0,5.11,3.83,16,16,0,0,1,4.5,3,4.15,4.15,0,0,1,1,2.73,4.26,4.26,0,0,1-1.51,3.24,5.23,5.23,0,0,1-3.66,1.38q-3.07,0-5.8-3.09l-2.25,2.55a10,10,0,0,0,3.62,2.88,10.49,10.49,0,0,0,4.59,1,8.2,8.2,0,0,0,6-2.37,7.83,7.83,0,0,0,2.4-5.79,7.25,7.25,0,0,0-1.41-4.36,16.06,16.06,0,0,0-5.42-4,14.37,14.37,0,0,1-4.3-2.93,4,4,0,0,1-1-2.58,3.54,3.54,0,0,1,1.24-2.68,4.23,4.23,0,0,1,3-1.15q2.74,0,5.6,2.78l2.3-2.37q-3.88-3.75-7.72-3.75M494.52,133h3.65V123.6q0-7.22.66-9.59a9.27,9.27,0,0,1,2.53-4.55A5.16,5.16,0,0,1,504.8,108a5,5,0,0,1,1.89.49l1.86-3a6.52,6.52,0,0,0-3.16-.94,6.79,6.79,0,0,0-3.78,1.19,12.8,12.8,0,0,0-3.44,3.58v-4.06h-3.65Zm-28.88-16.68a11.85,11.85,0,0,1,3.24-5.74,10.17,10.17,0,0,1,7-2.63,11.08,11.08,0,0,1,4.73,1,9.84,9.84,0,0,1,3.61,2.75,11.82,11.82,0,0,1,2.08,4.57Zm17.65,11.41a10.83,10.83,0,0,1-3.41,2,11.86,11.86,0,0,1-4.12.74,9.85,9.85,0,0,1-7.38-3.09,11.29,11.29,0,0,1-3.09-7.93h25a15,15,0,0,0-3.06-9.49,13.69,13.69,0,0,0-11.34-5.38,13.26,13.26,0,0,0-11,5.26,14.84,14.84,0,0,0-3.24,9.41,15,15,0,0,0,3.83,10.06q3.83,4.45,10.62,4.45a15.25,15.25,0,0,0,5.49-.93,13.63,13.63,0,0,0,4.37-2.72,16.4,16.4,0,0,0,3.42-4.69l-3-1.58a16.61,16.61,0,0,1-3,3.94M455.93,93.81a6.13,6.13,0,0,0-3.18.78,4.37,4.37,0,0,0-1.86,2.05,11.74,11.74,0,0,0-.55,4.26v4.34h-3.65v3.09h3.65V133h3.57l0-24.67h5.79v-3.09h-5.79v-3.75a13.47,13.47,0,0,1,.18-2.92,1.87,1.87,0,0,1,.87-1,3.28,3.28,0,0,1,1.73-.42,8.83,8.83,0,0,1,3.37.84V94.53a15.09,15.09,0,0,0-4.16-.71m-16.55,0a6.13,6.13,0,0,0-3.18.78,4.37,4.37,0,0,0-1.86,2.05,11.75,11.75,0,0,0-.55,4.26v4.34h-3.65v3.09h3.65V133h3.57l0-24.67h5.8v-3.09h-5.79v-3.75a13.47,13.47,0,0,1,.18-2.92,1.87,1.87,0,0,1,.87-1,3.28,3.28,0,0,1,1.73-.42,8.82,8.82,0,0,1,3.37.84V94.53a15.08,15.08,0,0,0-4.16-.71m-34.89,22.5a11.87,11.87,0,0,1,3.24-5.74,10.18,10.18,0,0,1,7-2.63,11.07,11.07,0,0,1,4.72,1,9.87,9.87,0,0,1,3.62,2.75,11.84,11.84,0,0,1,2.08,4.57Zm17.65,11.41a10.84,10.84,0,0,1-3.41,2,11.87,11.87,0,0,1-4.12.74,9.86,9.86,0,0,1-7.38-3.09,11.3,11.3,0,0,1-3.09-7.93h25a15,15,0,0,0-3.06-9.49,13.69,13.69,0,0,0-11.34-5.38,13.26,13.26,0,0,0-11,5.26,14.84,14.84,0,0,0-3.24,9.41,15,15,0,0,0,3.83,10.06q3.83,4.45,10.62,4.45a15.25,15.25,0,0,0,5.49-.93,13.59,13.59,0,0,0,4.37-2.72,16.43,16.43,0,0,0,3.42-4.69l-3-1.58a16.65,16.65,0,0,1-3,3.94m-30.53-7.05a23.8,23.8,0,0,1-.53,6.22,5.06,5.06,0,0,1-1.84,2.58,4.82,4.82,0,0,1-2.93,1,6.19,6.19,0,0,1-2.5-.56,29.37,29.37,0,0,1-4.88-2.91l-2,3a19,19,0,0,0,4.89,3.1,12,12,0,0,0,4.48.88,9.26,9.26,0,0,0,5.13-1.37,7.58,7.58,0,0,0,3-3.65q.9-2.28.91-8.12V95.47H391.6Zm-37.21-16.15a7.53,7.53,0,0,0-5.46,2.09,7,7,0,0,0-2.16,5.25,7.21,7.21,0,0,0,1.36,4.31,14.39,14.39,0,0,0,5.11,3.83,16,16,0,0,1,4.5,3,4.16,4.16,0,0,1,1,2.73,4.26,4.26,0,0,1-1.51,3.24,5.23,5.23,0,0,1-3.66,1.38q-3.07,0-5.8-3.09l-2.24,2.55a9.94,9.94,0,0,0,3.62,2.88,10.49,10.49,0,0,0,4.59,1,8.2,8.2,0,0,0,6-2.37,7.83,7.83,0,0,0,2.4-5.79,7.26,7.26,0,0,0-1.4-4.36,16.06,16.06,0,0,0-5.42-4,14.36,14.36,0,0,1-4.29-2.93,4,4,0,0,1-1-2.58,3.55,3.55,0,0,1,1.24-2.68,4.23,4.23,0,0,1,3-1.15q2.74,0,5.6,2.78l2.3-2.37q-3.89-3.75-7.72-3.75m-18.64,6.68a11.05,11.05,0,0,1,3.17,8.05,11.42,11.42,0,0,1-1.42,5.68,10.34,10.34,0,0,1-4,4,11.16,11.16,0,0,1-5.55,1.48,10.56,10.56,0,0,1-5.44-1.49,10.94,10.94,0,0,1-4-4.17,11.24,11.24,0,0,1,0-11.21,10.77,10.77,0,0,1,9.52-5.58,10.51,10.51,0,0,1,7.81,3.24m2.94-6v5.1a14.07,14.07,0,0,0-4.86-4.36,13.11,13.11,0,0,0-6.19-1.45,13.73,13.73,0,0,0-10.13,4.26A14.06,14.06,0,0,0,313.31,119a14.32,14.32,0,0,0,4.17,10.39,14.08,14.08,0,0,0,16.17,2.9,15.3,15.3,0,0,0,5-4.11V133h3.52V105.24ZM267.62,133h3.57V121.23a21.69,21.69,0,0,1,1-7.73,8.83,8.83,0,0,1,3.19-4A8,8,0,0,1,280,108a6.31,6.31,0,0,1,3.7,1.08,5.71,5.71,0,0,1,2.18,2.88,24.4,24.4,0,0,1,.62,6.82V133h3.57V122.12q0-6,1-8.52a8.81,8.81,0,0,1,3.14-4.08A8,8,0,0,1,299,108a6.5,6.5,0,0,1,3.68,1,5.53,5.53,0,0,1,2.17,2.69,19.81,19.81,0,0,1,.63,6.14V133h3.65V117.84a21.64,21.64,0,0,0-1.07-7.81,8.67,8.67,0,0,0-3.27-4.06,9,9,0,0,0-5.08-1.45,10.53,10.53,0,0,0-5.75,1.7,13.17,13.17,0,0,0-4.45,5,11.27,11.27,0,0,0-2-3.76,8.23,8.23,0,0,0-3-2.1,9.49,9.49,0,0,0-3.83-.79,10.88,10.88,0,0,0-5.7,1.63,13.86,13.86,0,0,0-3.83,3.88v-4.8h-3.57ZM256.3,111.31a11,11,0,0,1,3.21,8,11.29,11.29,0,0,1-1.46,5.61,10.35,10.35,0,0,1-3.94,4,11.21,11.21,0,0,1-10.91,0,10.35,10.35,0,0,1-3.94-4,11.28,11.28,0,0,1-1.46-5.61,11,11,0,0,1,3.2-8,10.53,10.53,0,0,1,15.3,0M238,109.19a14.87,14.87,0,0,0,.22,20.16,14.67,14.67,0,0,0,20.85,0,14.9,14.9,0,0,0,.22-20.19,14.49,14.49,0,0,0-21.29,0M205.76,133h3.57V122.81a36.67,36.67,0,0,1,.51-7.55,10,10,0,0,1,3.38-5.31,8.8,8.8,0,0,1,5.8-2.14,7.14,7.14,0,0,1,4.58,1.39,7.26,7.26,0,0,1,2.41,4.14,33.93,33.93,0,0,1,.38,6.4V133H230V118.71q0-5.69-1.15-8.35a9.44,9.44,0,0,0-3.56-4.25,9.85,9.85,0,0,0-5.52-1.58,11.61,11.61,0,0,0-5.64,1.42,15.19,15.19,0,0,0-4.77,4.27V94.53h-3.57ZM190.84,99.14V133h3.83V99.14H203V95.47H182.47v3.67Z" transform="translate(-14.55 -50.94)"/><path class="cls-1" d="M386.3,134.09a12.18,12.18,0,0,1-4.53-.89,19.2,19.2,0,0,1-4.93-3.12l-.1-.09,2.15-3.22.12.09a29.4,29.4,0,0,0,4.86,2.89,5.12,5.12,0,0,0,5.28-.39,4.93,4.93,0,0,0,1.79-2.5,23.81,23.81,0,0,0,.52-6.18V95.32h4V120.8c0,3.89-.31,6.64-.92,8.18a7.76,7.76,0,0,1-3.08,3.72A9.44,9.44,0,0,1,386.3,134.09Zm-9.16-4.16a18.7,18.7,0,0,0,4.74,3,11.9,11.9,0,0,0,4.42.87,9.15,9.15,0,0,0,5-1.34,7.47,7.47,0,0,0,3-3.58c.59-1.5.9-4.22.9-8.07V95.62h-3.45v25.05a24,24,0,0,1-.53,6.27,5.23,5.23,0,0,1-1.89,2.65,5.42,5.42,0,0,1-5.58.42,29.22,29.22,0,0,1-4.78-2.83Zm165.26,3.93a13.82,13.82,0,0,1-10.55-4.4,15,15,0,0,1-.22-20.37,14.64,14.64,0,0,1,21.51,0,15,15,0,0,1-.22,20.39A13.79,13.79,0,0,1,542.39,133.86Zm0-29.18a13.65,13.65,0,0,0-10.54,4.62,14.72,14.72,0,0,0,.22,20,14.52,14.52,0,0,0,20.63,0,14.75,14.75,0,0,0,.22-20A13.66,13.66,0,0,0,542.39,104.67Zm-25.75,29.18a10.69,10.69,0,0,1-4.65-1.06,10.15,10.15,0,0,1-3.67-2.93l-.08-.1,2.44-2.77.11.13c1.79,2,3.7,3,5.69,3a5.11,5.11,0,0,0,3.56-1.34,4.13,4.13,0,0,0,1.46-3.13,4,4,0,0,0-1-2.63,16,16,0,0,0-4.45-2.92,14.59,14.59,0,0,1-5.17-3.87,7.37,7.37,0,0,1-1.38-4.4,7.18,7.18,0,0,1,2.2-5.36,7.7,7.7,0,0,1,5.56-2.13c2.58,0,5.21,1.28,7.82,3.79l.11.1-2.5,2.59-.11-.1c-1.87-1.82-3.72-2.74-5.5-2.74a4.1,4.1,0,0,0-2.88,1.11,3.41,3.41,0,0,0-1.19,2.57,3.84,3.84,0,0,0,1,2.48,14.31,14.31,0,0,0,4.25,2.9,16.3,16.3,0,0,1,5.47,4,7.44,7.44,0,0,1,1.44,4.45,8,8,0,0,1-2.45,5.9A8.38,8.38,0,0,1,516.64,133.86Zm-8-4.07a9.86,9.86,0,0,0,3.48,2.74,10.39,10.39,0,0,0,4.52,1,8.09,8.09,0,0,0,5.9-2.33,7.72,7.72,0,0,0,2.36-5.68,7.13,7.13,0,0,0-1.38-4.27,16,16,0,0,0-5.37-3.93,14.56,14.56,0,0,1-4.34-3,4.13,4.13,0,0,1-1.06-2.67A3.7,3.7,0,0,1,514,108.9a4.4,4.4,0,0,1,3.08-1.19c1.82,0,3.7.91,5.6,2.72l2.09-2.16c-2.51-2.39-5-3.6-7.51-3.6a7.42,7.42,0,0,0-5.35,2,6.9,6.9,0,0,0-2.11,5.15,7.08,7.08,0,0,0,1.33,4.22,14.32,14.32,0,0,0,5.06,3.78,16,16,0,0,1,4.54,3,4.32,4.32,0,0,1,1,2.83,4.42,4.42,0,0,1-1.56,3.35,5.4,5.4,0,0,1-3.76,1.42c-2,0-4-1-5.8-3Zm-32.56,4.07c-4.55,0-8.17-1.52-10.74-4.5a15.23,15.23,0,0,1-3.87-10.16,15,15,0,0,1,3.28-9.5,13.45,13.45,0,0,1,11.12-5.31,13.89,13.89,0,0,1,11.45,5.44,15.24,15.24,0,0,1,3.1,9.58v.15h-25a11.15,11.15,0,0,0,3,7.67,9.75,9.75,0,0,0,7.27,3,11.79,11.79,0,0,0,4.07-.73,10.75,10.75,0,0,0,3.36-1.93,16.53,16.53,0,0,0,3-3.9l.07-.12,3.27,1.72-.07.13a16.67,16.67,0,0,1-3.45,4.73,13.84,13.84,0,0,1-4.41,2.75A15.48,15.48,0,0,1,476.07,133.86Zm-.21-29.18a13.17,13.17,0,0,0-10.89,5.2,14.75,14.75,0,0,0-3.21,9.32,14.93,14.93,0,0,0,3.79,10c2.51,2.92,6,4.4,10.51,4.4a15.18,15.18,0,0,0,5.43-.92,13.52,13.52,0,0,0,4.32-2.69,16.21,16.21,0,0,0,3.32-4.52L486.39,124a16.54,16.54,0,0,1-3,3.85,11,11,0,0,1-3.46,2,12.06,12.06,0,0,1-4.18.75,10,10,0,0,1-7.49-3.14,11.49,11.49,0,0,1-3.13-8v-.15h25a14.89,14.89,0,0,0-3-9.25A13.6,13.6,0,0,0,475.86,104.67Zm-61,29.18c-4.55,0-8.16-1.52-10.73-4.5a15.23,15.23,0,0,1-3.87-10.16,15.05,15.05,0,0,1,3.27-9.5,13.46,13.46,0,0,1,11.12-5.31,13.89,13.89,0,0,1,11.45,5.44,15.24,15.24,0,0,1,3.1,9.58v.15h-25a11.16,11.16,0,0,0,3,7.67,9.75,9.75,0,0,0,7.27,3,11.8,11.8,0,0,0,4.07-.73,10.74,10.74,0,0,0,3.36-1.93,16.63,16.63,0,0,0,3-3.9l.07-.12,3.27,1.72-.07.13a16.68,16.68,0,0,1-3.45,4.73,13.81,13.81,0,0,1-4.41,2.75A15.47,15.47,0,0,1,414.9,133.86Zm-.2-29.18a13.17,13.17,0,0,0-10.89,5.2,14.75,14.75,0,0,0-3.21,9.32,14.93,14.93,0,0,0,3.79,10c2.51,2.92,6,4.4,10.51,4.4a15.18,15.18,0,0,0,5.44-.92,13.49,13.49,0,0,0,4.32-2.69,16.25,16.25,0,0,0,3.32-4.52L425.23,124a16.59,16.59,0,0,1-3,3.85,11,11,0,0,1-3.46,2,12.07,12.07,0,0,1-4.18.75,10,10,0,0,1-7.49-3.14,11.5,11.5,0,0,1-3.13-8v-.15h25a14.89,14.89,0,0,0-3-9.25A13.61,13.61,0,0,0,414.7,104.67Zm-61,29.18a10.69,10.69,0,0,1-4.65-1.06,10.14,10.14,0,0,1-3.67-2.93l-.07-.1,2.44-2.77.11.13c1.79,2,3.7,3,5.69,3a5.11,5.11,0,0,0,3.56-1.34,4.13,4.13,0,0,0,1.46-3.13,4,4,0,0,0-1-2.63,16,16,0,0,0-4.45-2.92,14.59,14.59,0,0,1-5.17-3.87,7.38,7.38,0,0,1-1.38-4.4,7.19,7.19,0,0,1,2.21-5.36,7.7,7.7,0,0,1,5.56-2.13c2.58,0,5.21,1.28,7.82,3.79l.11.1-2.5,2.59-.11-.1c-1.87-1.82-3.72-2.74-5.5-2.74a4.1,4.1,0,0,0-2.88,1.11,3.42,3.42,0,0,0-1.19,2.57,3.84,3.84,0,0,0,1,2.48,14.3,14.3,0,0,0,4.25,2.9,16.28,16.28,0,0,1,5.47,4,7.44,7.44,0,0,1,1.43,4.45,8,8,0,0,1-2.45,5.9A8.38,8.38,0,0,1,353.73,133.86Zm-8-4.07a9.85,9.85,0,0,0,3.48,2.74,10.39,10.39,0,0,0,4.52,1,8.09,8.09,0,0,0,5.9-2.33,7.72,7.72,0,0,0,2.36-5.68,7.14,7.14,0,0,0-1.38-4.27,16,16,0,0,0-5.37-3.93,14.54,14.54,0,0,1-4.34-3,4.13,4.13,0,0,1-1.06-2.67,3.71,3.71,0,0,1,1.29-2.79,4.39,4.39,0,0,1,3.08-1.19c1.82,0,3.71.91,5.6,2.72l2.09-2.16c-2.52-2.39-5-3.6-7.51-3.6a7.42,7.42,0,0,0-5.35,2,6.9,6.9,0,0,0-2.11,5.15,7.09,7.09,0,0,0,1.33,4.22,14.33,14.33,0,0,0,5.06,3.78,16,16,0,0,1,4.55,3,4.32,4.32,0,0,1,1,2.83,4.42,4.42,0,0,1-1.56,3.35,5.4,5.4,0,0,1-3.76,1.42c-2,0-4-1-5.8-3Zm-18.18,4.07a13.75,13.75,0,0,1-10.17-4.32,14.53,14.53,0,0,1-4.21-10.5,14.27,14.27,0,0,1,4.25-10.36,13.93,13.93,0,0,1,10.23-4.3,13.32,13.32,0,0,1,6.26,1.47,14.07,14.07,0,0,1,4.64,4v-4.8h3.82v28.05h-3.82v-4.51a15.33,15.33,0,0,1-4.82,3.83A13.84,13.84,0,0,1,327.54,133.86Zm.1-29.18a13.64,13.64,0,0,0-10,4.22A14,14,0,0,0,313.46,119a14.25,14.25,0,0,0,4.13,10.29,13.93,13.93,0,0,0,16,2.87,15.22,15.22,0,0,0,5-4.07l.27-.32v5h3.22V105.39h-3.22v5.42l-.27-.38a14,14,0,0,0-4.81-4.32A13,13,0,0,0,327.65,104.67Zm-79,29.18a13.82,13.82,0,0,1-10.55-4.4,15,15,0,0,1-.22-20.37,14.64,14.64,0,0,1,21.51,0,15.05,15.05,0,0,1-.22,20.39A13.8,13.8,0,0,1,248.67,133.86Zm0-29.18a13.65,13.65,0,0,0-10.54,4.62,14.72,14.72,0,0,0,.22,20,14.52,14.52,0,0,0,20.63,0,14.75,14.75,0,0,0,.22-20A13.66,13.66,0,0,0,248.67,104.67Zm337.06,28.47h-3.87V119.75a32.79,32.79,0,0,0-.39-6.37,6.92,6.92,0,0,0-2.33-4.06,7.08,7.08,0,0,0-4.5-1.36,8.7,8.7,0,0,0-5.71,2.11,9.93,9.93,0,0,0-3.33,5.23,36.9,36.9,0,0,0-.51,7.51v10.33h-3.87V105.09h3.87v4.68a14.88,14.88,0,0,1,4.52-4,11.86,11.86,0,0,1,5.74-1.43A10,10,0,0,1,581,106a9.62,9.62,0,0,1,3.61,4.33c.77,1.8,1.16,4.62,1.16,8.4Zm-3.57-.3h3.27V118.71c0-3.74-.38-6.52-1.14-8.28a9.31,9.31,0,0,0-3.5-4.19,9.74,9.74,0,0,0-5.44-1.56,11.57,11.57,0,0,0-5.59,1.4,14.85,14.85,0,0,0-4.7,4.23l-.27.36v-5.27h-3.27v27.45h3.27v-10a37.14,37.14,0,0,1,.52-7.59,10.22,10.22,0,0,1,3.43-5.38,9,9,0,0,1,5.9-2.18,7.37,7.37,0,0,1,4.69,1.42,7.22,7.22,0,0,1,2.43,4.23,32.92,32.92,0,0,1,.4,6.44Zm-83.84.3h-3.95V105.09h3.95v3.73a12.56,12.56,0,0,1,3.21-3.23,7,7,0,0,1,3.86-1.21,6.7,6.7,0,0,1,3.24,1l.14.08-2,3.25-.12-.05a4.84,4.84,0,0,0-1.83-.47,5,5,0,0,0-3.35,1.43,9.18,9.18,0,0,0-2.48,4.48c-.44,1.56-.66,4.78-.66,9.55Zm-3.65-.3H498V123.6c0-4.8.22-8,.67-9.63a9.46,9.46,0,0,1,2.57-4.62,5.33,5.33,0,0,1,3.54-1.5,5,5,0,0,1,1.83.45l1.71-2.77a6.29,6.29,0,0,0-3-.85,6.67,6.67,0,0,0-3.69,1.16,12.73,12.73,0,0,0-3.4,3.54l-.27.4v-4.39h-3.35Zm-40.61.3h-3.87V108.47h-3.65v-3.39h3.65V100.9a11.77,11.77,0,0,1,.56-4.32,4.55,4.55,0,0,1,1.92-2.12,6.31,6.31,0,0,1,3.25-.8,15.28,15.28,0,0,1,4.2.72l.11,0v3.83l-.21-.09c-2.22-1-3.94-1.06-5-.43a1.74,1.74,0,0,0-.8.89,13.52,13.52,0,0,0-.17,2.87v3.6h5.79v3.39h-5.79Zm-3.57-.3h3.27l0-24.67h5.79v-2.79h-5.79v-3.9a13.34,13.34,0,0,1,.19-3,2,2,0,0,1,.93-1.05c1.08-.66,2.81-.59,5,.32V94.64a14.83,14.83,0,0,0-4-.68,6,6,0,0,0-3.1.76,4.24,4.24,0,0,0-1.8,2,11.68,11.68,0,0,0-.54,4.2v4.49h-3.65v2.79h3.65Zm-13,.3h-3.87V108.47H430v-3.39h3.65V100.9a11.79,11.79,0,0,1,.56-4.32,4.55,4.55,0,0,1,1.92-2.12,6.31,6.31,0,0,1,3.25-.8,15.27,15.27,0,0,1,4.2.72l.11,0v3.83l-.21-.09c-2.22-1-3.93-1.06-5-.43a1.73,1.73,0,0,0-.8.89,13.52,13.52,0,0,0-.17,2.87v3.6h5.79v3.39h-5.8Zm-3.57-.3h3.27l0-24.67H443v-2.79h-5.79v-3.9a13.34,13.34,0,0,1,.19-3,2,2,0,0,1,.93-1.05c1.09-.66,2.81-.59,5,.32V94.64a14.81,14.81,0,0,0-4-.68,6,6,0,0,0-3.1.76,4.24,4.24,0,0,0-1.8,2,11.67,11.67,0,0,0-.54,4.2v4.49h-3.65v2.79h3.65Zm-124.66.3h-3.95v-15.3a19.81,19.81,0,0,0-.62-6.08,5.41,5.41,0,0,0-2.12-2.62,6.39,6.39,0,0,0-3.59-1,7.88,7.88,0,0,0-4.65,1.5,8.7,8.7,0,0,0-3.09,4c-.65,1.67-1,4.52-1,8.47v11H286.4V118.78a24.43,24.43,0,0,0-.62-6.78,5.59,5.59,0,0,0-2.12-2.81,6.19,6.19,0,0,0-3.61-1.06,7.87,7.87,0,0,0-4.54,1.47,8.72,8.72,0,0,0-3.14,4,21.65,21.65,0,0,0-1,7.67v11.91h-3.87V105.09h3.87v4.48a13.56,13.56,0,0,1,3.6-3.54,11.07,11.07,0,0,1,5.77-1.66,9.68,9.68,0,0,1,3.89.8,8.41,8.41,0,0,1,3,2.14,11,11,0,0,1,1.91,3.5,13.23,13.23,0,0,1,4.34-4.73,10.73,10.73,0,0,1,5.83-1.72,9.2,9.2,0,0,1,5.16,1.48,8.86,8.86,0,0,1,3.32,4.12,21.86,21.86,0,0,1,1.08,7.86Zm-3.65-.3H309v-15a21.64,21.64,0,0,0-1.06-7.75,8.57,8.57,0,0,0-3.21-4,8.89,8.89,0,0,0-5-1.43,10.44,10.44,0,0,0-5.67,1.67,13.09,13.09,0,0,0-4.4,4.91l-.16.3-.11-.32a11.18,11.18,0,0,0-2-3.71,8.11,8.11,0,0,0-2.91-2.07,9.38,9.38,0,0,0-3.77-.78,10.78,10.78,0,0,0-5.62,1.61,13.78,13.78,0,0,0-3.78,3.84l-.27.39v-5.12h-3.27v27.45H271V121.23a21.93,21.93,0,0,1,1-7.78,9,9,0,0,1,3.24-4.08,8.16,8.16,0,0,1,4.71-1.52,6.49,6.49,0,0,1,3.78,1.11,5.89,5.89,0,0,1,2.24,3,24.65,24.65,0,0,1,.63,6.87v14.06H290V122.12c0-4,.34-6.87,1-8.57a9,9,0,0,1,3.19-4.15,8.18,8.18,0,0,1,4.83-1.56,6.67,6.67,0,0,1,3.76,1,5.69,5.69,0,0,1,2.23,2.76,20,20,0,0,1,.65,6.19Zm-75.51.3h-3.87V119.75a34,34,0,0,0-.38-6.37,7.16,7.16,0,0,0-2.36-4.06A7,7,0,0,0,219,108a8.69,8.69,0,0,0-5.71,2.11A9.93,9.93,0,0,0,210,115.3a36.78,36.78,0,0,0-.51,7.51v10.33h-3.87V94.38h3.87v15.4a15.12,15.12,0,0,1,4.55-4,11.82,11.82,0,0,1,5.71-1.43,10,10,0,0,1,5.6,1.61,9.63,9.63,0,0,1,3.61,4.31c.77,1.79,1.16,4.62,1.16,8.41Zm-3.57-.3h3.27V118.71c0-3.76-.38-6.55-1.13-8.3a9.33,9.33,0,0,0-3.5-4.18,9.74,9.74,0,0,0-5.44-1.56,11.53,11.53,0,0,0-5.57,1.4,15.12,15.12,0,0,0-4.72,4.23l-.27.35v-16h-3.27v38.17h3.27v-10a37,37,0,0,1,.52-7.59,10.22,10.22,0,0,1,3.43-5.38,9,9,0,0,1,5.9-2.18,7.31,7.31,0,0,1,4.67,1.42,7.44,7.44,0,0,1,2.46,4.23,34.2,34.2,0,0,1,.39,6.44Zm-31.73.3h-4.13V99.29h-8.37v-4h20.86v4h-8.37Zm-3.83-.3h3.53V99h8.37V95.62H182.62V99H191Zm136.93-2.28a10.76,10.76,0,0,1-5.52-1.51,11.14,11.14,0,0,1-4.09-4.22,11.39,11.39,0,0,1,0-11.36,10.92,10.92,0,0,1,9.65-5.66,10.7,10.7,0,0,1,7.92,3.28,11.24,11.24,0,0,1,3.22,8.16,11.61,11.61,0,0,1-1.43,5.75,10.54,10.54,0,0,1-4.09,4.06A11.36,11.36,0,0,1,327.91,130.56Zm0-22.45a10.62,10.62,0,0,0-9.39,5.5,11.09,11.09,0,0,0,0,11.06,10.85,10.85,0,0,0,4,4.11,10.46,10.46,0,0,0,5.36,1.47,11.07,11.07,0,0,0,5.48-1.46,10.24,10.24,0,0,0,4-3.94,11.31,11.31,0,0,0,1.4-5.61,11,11,0,0,0-3.13-7.95A10.41,10.41,0,0,0,327.94,108.12Zm214.44,22.35a11,11,0,0,1-5.53-1.44,10.51,10.51,0,0,1-4-4.07,11.49,11.49,0,0,1-1.48-5.68,11.2,11.2,0,0,1,3.24-8.06,10.68,10.68,0,0,1,15.51,0,11.16,11.16,0,0,1,3.26,8.06A11.49,11.49,0,0,1,551.9,125a10.51,10.51,0,0,1-4,4.07A11,11,0,0,1,542.38,130.46Zm0-22.29a10.2,10.2,0,0,0-7.55,3.25,10.9,10.9,0,0,0-3.16,7.85,11.19,11.19,0,0,0,1.44,5.54,10.24,10.24,0,0,0,3.88,4,11.07,11.07,0,0,0,10.76,0,10.24,10.24,0,0,0,3.88-4,11.19,11.19,0,0,0,1.44-5.54,10.88,10.88,0,0,0-3.17-7.85A10.22,10.22,0,0,0,542.38,108.17ZM248.65,130.46a11,11,0,0,1-5.53-1.44,10.54,10.54,0,0,1-4-4.07,11.48,11.48,0,0,1-1.48-5.68,11.19,11.19,0,0,1,3.24-8.06,10.68,10.68,0,0,1,15.51,0,11.17,11.17,0,0,1,3.26,8.06,11.49,11.49,0,0,1-1.48,5.68,10.54,10.54,0,0,1-4,4.07A11,11,0,0,1,248.65,130.46Zm0-22.29a10.21,10.21,0,0,0-7.55,3.25,10.9,10.9,0,0,0-3.16,7.85,11.18,11.18,0,0,0,1.44,5.54,10.24,10.24,0,0,0,3.89,4,11.07,11.07,0,0,0,10.76,0,10.24,10.24,0,0,0,3.89-4,11.19,11.19,0,0,0,1.44-5.54,10.88,10.88,0,0,0-3.17-7.85A10.21,10.21,0,0,0,248.65,108.17Zm237.87,8.29H465.45l.05-.19a12,12,0,0,1,3.29-5.81,10.35,10.35,0,0,1,7.12-2.67,11.28,11.28,0,0,1,4.79,1.06,10,10,0,0,1,3.67,2.8,12,12,0,0,1,2.11,4.62Zm-20.68-.3h20.29a11.53,11.53,0,0,0-2-4.32,9.74,9.74,0,0,0-3.56-2.71,11,11,0,0,0-4.66-1,10.06,10.06,0,0,0-6.92,2.59A11.6,11.6,0,0,0,465.85,116.16Zm-40.48.3H404.29l.05-.19a12.07,12.07,0,0,1,3.29-5.81,10.36,10.36,0,0,1,7.12-2.67,11.26,11.26,0,0,1,4.79,1.06,10.06,10.06,0,0,1,3.67,2.8,12,12,0,0,1,2.11,4.62Zm-20.68-.3H425a11.55,11.55,0,0,0-2-4.32,9.78,9.78,0,0,0-3.56-2.71,11,11,0,0,0-4.66-1,10.07,10.07,0,0,0-6.92,2.59A11.62,11.62,0,0,0,404.68,116.16Z" transform="translate(-14.55 -50.94)"/><path class="cls-1" d="M322.38,70a8.38,8.38,0,0,1,2.45,6.07,8.61,8.61,0,0,1-1.11,4.28,7.9,7.9,0,0,1-3,3.07,8.56,8.56,0,0,1-8.32,0,7.9,7.9,0,0,1-3-3.07,8.62,8.62,0,0,1-1.11-4.28A8.4,8.4,0,0,1,310.71,70a8,8,0,0,1,11.68,0m-14-1.62a11.35,11.35,0,0,0,.16,15.39,11.2,11.2,0,0,0,15.92,0,11.38,11.38,0,0,0,.17-15.41,11.06,11.06,0,0,0-16.25,0m-12.23-3h-3.72v2.36h3.72V86.58h2.73V67.75h4.32V65.4h-4.32V57.53h-2.73ZM270,75.6a17.13,17.13,0,0,0,1,6.77,7.74,7.74,0,0,0,3.1,3.51,9.82,9.82,0,0,0,5.17,1.26,9.72,9.72,0,0,0,5.15-1.26,7.81,7.81,0,0,0,3.08-3.48,16.45,16.45,0,0,0,1-6.6V65.4h-2.78v9.89a20.46,20.46,0,0,1-.41,5.2,5.63,5.63,0,0,1-2.19,2.89,6.65,6.65,0,0,1-3.87,1.1,6.78,6.78,0,0,1-3.93-1.13,5.56,5.56,0,0,1-2.23-3.08,21.18,21.18,0,0,1-.39-5V65.4H270ZM260,65.4h-3.72v2.36H260V86.58h2.73V67.75h4.32V65.4h-4.32V57.53H260Zm-10,21.19h2.73V65.4h-2.73Zm-.22-29.25a2.18,2.18,0,0,0-.66,1.6,2.24,2.24,0,0,0,4.48,0,2.25,2.25,0,0,0-2.25-2.26,2.14,2.14,0,0,0-1.57.66m-9.71,8.06h-3.72v2.36h3.72V86.58h2.73V67.75h4.32V65.4h-4.32V57.53h-2.73Zm-12.3-.55a5.75,5.75,0,0,0-4.16,1.6,5.36,5.36,0,0,0-1.65,4,5.49,5.49,0,0,0,1,3.29,11,11,0,0,0,3.9,2.92,12.22,12.22,0,0,1,3.44,2.26,3.17,3.17,0,0,1,.76,2.08A3.25,3.25,0,0,1,230,83.49a4,4,0,0,1-2.79,1.05,6,6,0,0,1-4.43-2.36l-1.71,1.95a7.6,7.6,0,0,0,2.76,2.2,8,8,0,0,0,3.5.8,6.25,6.25,0,0,0,4.58-1.81,6,6,0,0,0,1.83-4.42,5.54,5.54,0,0,0-1.07-3.33,12.24,12.24,0,0,0-4.14-3,11,11,0,0,1-3.28-2.24,3,3,0,0,1-.78-2,2.71,2.71,0,0,1,.95-2,3.23,3.23,0,0,1,2.27-.88A6.3,6.3,0,0,1,232,69.53l1.75-1.81q-3-2.86-5.89-2.86M199.55,86.58h2.73V78.81a28.2,28.2,0,0,1,.39-5.76A7.67,7.67,0,0,1,205.24,69a6.73,6.73,0,0,1,4.43-1.64,5.5,5.5,0,0,1,3.51,1.06A5.38,5.38,0,0,1,215,71.59a24.89,24.89,0,0,1,.3,4.89V86.58H218V75.68a17.19,17.19,0,0,0-.88-6.37,7.19,7.19,0,0,0-2.72-3.25,7.5,7.5,0,0,0-4.22-1.21,8.9,8.9,0,0,0-4.32,1.08,11.4,11.4,0,0,0-3.62,3.26V65.4h-2.73Zm-8.18,0h2.86V57.94h-2.86Z" transform="translate(-14.55 -50.94)"/><path class="cls-1" d="M316.56,87.28a10.59,10.59,0,0,1-8.08-3.37,11.5,11.5,0,0,1-.17-15.6,11.21,11.21,0,0,1,16.47,0,11.53,11.53,0,0,1-.17,15.61A10.57,10.57,0,0,1,316.56,87.28Zm0-22.28a10.39,10.39,0,0,0-8,3.51,11.2,11.2,0,0,0,.16,15.19,11.06,11.06,0,0,0,15.7,0,11.23,11.23,0,0,0,.16-15.21A10.4,10.4,0,0,0,316.56,65ZM279.31,87.28A10,10,0,0,1,274.06,86a7.92,7.92,0,0,1-3.16-3.57,17.35,17.35,0,0,1-1-6.83V65.25h3v10a21.17,21.17,0,0,0,.38,4.94,5.43,5.43,0,0,0,2.17,3,6.66,6.66,0,0,0,3.85,1.1,6.53,6.53,0,0,0,3.79-1.07,5.51,5.51,0,0,0,2.14-2.82,20.51,20.51,0,0,0,.4-5.15v-10h3.08V75.79a16.66,16.66,0,0,1-1,6.66A8,8,0,0,1,284.54,86,9.91,9.91,0,0,1,279.31,87.28Zm-9.14-21.73V75.6a17.08,17.08,0,0,0,1,6.7,7.63,7.63,0,0,0,3,3.44,11.09,11.09,0,0,0,10.17,0,7.7,7.7,0,0,0,3-3.41,16.4,16.4,0,0,0,1-6.54V65.55h-2.48v9.74a20.28,20.28,0,0,1-.42,5.25,5.81,5.81,0,0,1-2.25,3,6.82,6.82,0,0,1-4,1.13,7,7,0,0,1-4-1.16A5.73,5.73,0,0,1,273,80.32a21.38,21.38,0,0,1-.4-5V65.55ZM227.33,87.28a8.19,8.19,0,0,1-3.57-.81,7.79,7.79,0,0,1-2.81-2.24l-.08-.1L222.78,82l.11.13a5.85,5.85,0,0,0,4.32,2.31,3.87,3.87,0,0,0,2.69-1A3.12,3.12,0,0,0,231,81a3,3,0,0,0-.73-2,12.17,12.17,0,0,0-3.39-2.22,11.19,11.19,0,0,1-4-3,5.67,5.67,0,0,1-1.06-3.38,5.52,5.52,0,0,1,1.69-4.12,5.92,5.92,0,0,1,4.27-1.64c2,0,4,1,6,2.9l.11.1-2,2-.11-.1a6.19,6.19,0,0,0-4.17-2.08,3.1,3.1,0,0,0-2.17.84,2.57,2.57,0,0,0-.9,1.94,2.9,2.9,0,0,0,.75,1.87,10.88,10.88,0,0,0,3.23,2.2,12.44,12.44,0,0,1,4.19,3.08,5.71,5.71,0,0,1,1.1,3.42A6.15,6.15,0,0,1,232,85.42,6.43,6.43,0,0,1,227.33,87.28Zm-6.07-3.14a7.5,7.5,0,0,0,2.63,2.06,7.89,7.89,0,0,0,3.44.78,6.14,6.14,0,0,0,4.48-1.77,5.86,5.86,0,0,0,1.79-4.31,5.41,5.41,0,0,0-1-3.24,12.17,12.17,0,0,0-4.08-3,11.1,11.1,0,0,1-3.32-2.28,3.19,3.19,0,0,1-.81-2.06,2.86,2.86,0,0,1,1-2.15,3.39,3.39,0,0,1,2.38-.92A6.37,6.37,0,0,1,232,69.31l1.54-1.6A8.43,8.43,0,0,0,227.83,65a5.62,5.62,0,0,0-4.06,1.55,5.23,5.23,0,0,0-1.6,3.9,5.38,5.38,0,0,0,1,3.2A10.91,10.91,0,0,0,227,76.54a12.18,12.18,0,0,1,3.48,2.29,3.34,3.34,0,0,1,.8,2.18,3.41,3.41,0,0,1-1.2,2.58,4.16,4.16,0,0,1-2.89,1.09,6,6,0,0,1-4.43-2.28Zm77.81,2.6h-3V67.9h-3.72V65.25H296V57.38h3v7.87h4.32V67.9h-4.32Zm-2.73-.3h2.43V67.6h4.32V65.55h-4.32V57.68h-2.43v7.87h-3.72V67.6h3.72Zm-33.44.3h-3V67.9h-3.72V65.25h3.72V57.38h3v7.87h4.32V67.9h-4.32Zm-2.73-.3h2.43V67.6h4.32V65.55h-4.32V57.68h-2.43v7.87h-3.72V67.6h3.72Zm-7.24.3h-3V65.25h3Zm-2.73-.3h2.43V65.55h-2.43Zm-7.21.3h-3V67.9h-3.72V65.25H240V57.38h3v7.87h4.32V67.9H243Zm-2.73-.3h2.43V67.6H247V65.55h-4.32V57.68h-2.43v7.87h-3.72V67.6h3.72Zm-22.1.3h-3V76.48a24.88,24.88,0,0,0-.3-4.85,5.26,5.26,0,0,0-1.76-3.08,5.38,5.38,0,0,0-3.41-1,6.61,6.61,0,0,0-4.34,1.6,7.56,7.56,0,0,0-2.53,4,28.28,28.28,0,0,0-.38,5.73v7.92h-3V65.25h3v3.51a11.31,11.31,0,0,1,3.4-3,9.08,9.08,0,0,1,4.39-1.1,7.69,7.69,0,0,1,4.3,1.23,7.37,7.37,0,0,1,2.77,3.32,17.4,17.4,0,0,1,.89,6.43Zm-2.73-.3h2.43V75.68a17.16,17.16,0,0,0-.86-6.31,7.07,7.07,0,0,0-2.66-3.19A7.4,7.4,0,0,0,210.22,65,8.8,8.8,0,0,0,206,66.06a11.31,11.31,0,0,0-3.57,3.22l-.27-.09V65.55H199.7V86.43h2.43V78.81a28.43,28.43,0,0,1,.39-5.8,7.85,7.85,0,0,1,2.63-4.13,6.91,6.91,0,0,1,4.53-1.67,5.67,5.67,0,0,1,3.6,1.09,5.55,5.55,0,0,1,1.87,3.25,25.13,25.13,0,0,1,.31,4.92Zm-21.07.3h-3.16V57.79h3.16Zm-2.86-.3h2.56V58.09h-2.56Zm125-1.74a8.43,8.43,0,0,1-4.23-1.1,8.08,8.08,0,0,1-3.07-3.12,8.8,8.8,0,0,1-1.13-4.36,8.58,8.58,0,0,1,2.48-6.18,8.19,8.19,0,0,1,11.89,0,8.56,8.56,0,0,1,2.5,6.18,8.8,8.8,0,0,1-1.13,4.36,8.07,8.07,0,0,1-3.06,3.12A8.45,8.45,0,0,1,316.55,84.69Zm0-17a7.75,7.75,0,0,0-5.73,2.47,8.28,8.28,0,0,0-2.4,6,8.51,8.51,0,0,0,1.09,4.21,7.79,7.79,0,0,0,3,3,8.41,8.41,0,0,0,8.18,0,7.78,7.78,0,0,0,3-3,8.51,8.51,0,0,0,1.09-4.21,8.27,8.27,0,0,0-2.41-6A7.77,7.77,0,0,0,316.55,67.67Zm-65.14-6.35A2.4,2.4,0,0,1,249,58.93a2.34,2.34,0,0,1,.7-1.7,2.37,2.37,0,0,1,3.37,0,2.34,2.34,0,0,1,.7,1.7,2.41,2.41,0,0,1-2.4,2.39Zm0-4.5a2,2,0,0,0-1.47.62,2,2,0,0,0-.61,1.49,2.09,2.09,0,0,0,4.18,0,2.11,2.11,0,0,0-2.1-2.11Z" transform="translate(-14.55 -50.94)"/></svg>